<svg width="310" height="353" viewBox="0 0 310 353" fill="none" xmlns="http://www.w3.org/2000/svg">
<path d="M308.753 9.53125C308.703 9.53125 308.661 7.39728 308.661 4.76559C308.661 2.13305 308.703 -4.29153e-05 308.753 -4.29153e-05C308.804 -4.29153e-05 308.845 2.13305 308.845 4.76559C308.845 7.39728 308.804 9.53125 308.753 9.53125Z" fill="#F3F2F1"/>
<path d="M309.627 9.53125C309.575 9.53125 309.535 7.39728 309.535 4.76559C309.535 2.13305 309.575 -4.29153e-05 309.627 -4.29153e-05C309.677 -4.29153e-05 309.718 2.13305 309.718 4.76559C309.718 7.39728 309.677 9.53125 309.627 9.53125Z" fill="#F3F2F1"/>
<path d="M253.992 339.607H243.188V320.129H253.992V339.607Z" fill="#DADBD8"/>
<path d="M301.731 339.607H290.928V320.129H301.731V339.607Z" fill="#DADBD8"/>
<path d="M219.449 320.129H308.928V203.364H219.449V320.129Z" fill="#DADBD8"/>
<path d="M203.057 320.129H290.215V203.364H203.057V320.129Z" fill="#F3F2F1"/>
<path d="M221.565 339.607H210.761V320.129H221.565V339.607Z" fill="#F3F2F1"/>
<path d="M283.684 339.607H272.88V320.129H283.684V339.607Z" fill="#F3F2F1"/>
<path d="M283.281 306.79C283.281 306.79 283.272 306.611 283.268 306.274C283.265 305.927 283.261 305.431 283.255 304.782C283.248 303.465 283.238 301.541 283.225 299.059C283.209 294.09 283.187 286.901 283.158 277.966L283.28 278.088C264.552 278.101 237.954 278.121 208.483 278.142H208.478L208.655 277.966C208.652 288.04 208.65 297.778 208.647 306.79L208.478 306.62C230.103 306.653 248.78 306.68 262.062 306.699C268.706 306.72 274.001 306.736 277.645 306.747C279.459 306.757 280.862 306.763 281.822 306.769C282.292 306.773 282.652 306.777 282.906 306.779C283.151 306.783 283.281 306.79 283.281 306.79C283.281 306.79 283.164 306.796 282.927 306.8C282.678 306.802 282.325 306.806 281.863 306.811C280.91 306.816 279.52 306.824 277.721 306.832C274.086 306.843 268.807 306.859 262.177 306.879C248.867 306.9 230.149 306.927 208.478 306.959L208.309 306.96V306.79C208.306 297.778 208.304 288.04 208.302 277.966V277.789H208.478H208.483C237.954 277.812 264.552 277.83 283.28 277.845H283.403L283.402 277.966C283.374 286.933 283.352 294.147 283.337 299.132C283.324 301.603 283.313 303.518 283.306 304.828C283.301 305.468 283.296 305.957 283.294 306.298C283.289 306.627 283.281 306.79 283.281 306.79Z" fill="#DADBD8"/>
<path d="M248.139 292.378C248.107 292.378 248.103 292.177 248.001 291.843C247.9 291.516 247.666 291.041 247.17 290.682C246.691 290.321 245.912 290.126 245.165 290.409C244.425 290.67 243.788 291.459 243.796 292.378C243.788 293.297 244.424 294.087 245.165 294.347C245.912 294.631 246.691 294.435 247.17 294.075C247.667 293.715 247.9 293.24 248.001 292.912C248.103 292.579 248.107 292.377 248.139 292.378C248.155 292.376 248.199 292.581 248.134 292.946C248.07 293.304 247.856 293.844 247.321 294.273C246.807 294.702 245.926 294.962 245.055 294.653C244.191 294.371 243.433 293.454 243.444 292.378C243.434 291.302 244.191 290.385 245.055 290.103C245.926 289.794 246.807 290.054 247.321 290.483C247.855 290.913 248.07 291.452 248.134 291.81C248.199 292.175 248.155 292.379 248.139 292.378Z" fill="#DADBD8"/>
<path d="M283.281 272.272C283.281 272.272 283.272 272.093 283.268 271.756C283.265 271.41 283.261 270.914 283.255 270.264C283.248 268.948 283.238 267.024 283.225 264.541C283.209 259.572 283.187 252.384 283.158 243.448L283.28 243.571C264.552 243.583 237.954 243.603 208.483 243.625H208.478L208.655 243.448C208.652 253.522 208.65 263.26 208.647 272.272L208.478 272.103C230.103 272.135 248.78 272.163 262.062 272.182C268.706 272.203 274.001 272.218 277.645 272.23C279.459 272.239 280.862 272.246 281.822 272.251C282.292 272.255 282.652 272.259 282.906 272.261C283.151 272.265 283.281 272.272 283.281 272.272C283.281 272.272 283.164 272.279 282.927 272.282C282.678 272.285 282.325 272.289 281.863 272.293C280.91 272.298 279.52 272.306 277.721 272.315C274.086 272.325 268.807 272.342 262.177 272.361C248.867 272.382 230.149 272.409 208.478 272.441L208.309 272.442V272.272C208.306 263.26 208.304 253.522 208.302 243.448V243.272H208.478H208.483C237.954 243.294 264.552 243.313 283.28 243.327H283.403L283.402 243.448C283.374 252.415 283.352 259.63 283.337 264.615C283.324 267.085 283.313 269 283.306 270.31C283.301 270.951 283.296 271.439 283.294 271.78C283.289 272.109 283.281 272.272 283.281 272.272Z" fill="#DADBD8"/>
<path d="M248.139 257.86C248.107 257.861 248.103 257.659 248.001 257.325C247.9 256.998 247.666 256.523 247.17 256.164C246.691 255.803 245.912 255.609 245.165 255.892C244.425 256.152 243.788 256.941 243.796 257.86C243.788 258.78 244.424 259.569 245.165 259.829C245.912 260.113 246.691 259.918 247.17 259.557C247.667 259.197 247.9 258.723 248.001 258.394C248.103 258.061 248.107 257.859 248.139 257.86C248.155 257.859 248.199 258.063 248.134 258.429C248.07 258.787 247.856 259.326 247.321 259.755C246.807 260.184 245.926 260.444 245.055 260.135C244.191 259.853 243.433 258.937 243.444 257.86C243.434 256.784 244.191 255.867 245.055 255.585C245.926 255.276 246.807 255.537 247.321 255.966C247.855 256.395 248.07 256.934 248.134 257.292C248.199 257.658 248.155 257.862 248.139 257.86Z" fill="#DADBD8"/>
<path d="M283.281 238.22C283.281 238.22 283.272 238.041 283.268 237.704C283.265 237.358 283.261 236.861 283.255 236.212C283.248 234.896 283.238 232.971 283.225 230.489C283.209 225.52 283.187 218.331 283.158 209.396L283.28 209.518C264.552 209.532 237.954 209.551 208.483 209.572H208.478L208.655 209.396C208.652 219.471 208.65 229.208 208.647 238.22L208.478 238.05C230.103 238.083 248.78 238.11 262.062 238.13C268.706 238.15 274.001 238.166 277.645 238.177C279.459 238.187 280.862 238.193 281.822 238.198C282.292 238.203 282.652 238.207 282.906 238.209C283.151 238.213 283.281 238.22 283.281 238.22C283.281 238.22 283.164 238.227 282.927 238.23C282.678 238.233 282.325 238.236 281.863 238.241C280.91 238.246 279.52 238.253 277.721 238.262C274.086 238.274 268.807 238.29 262.177 238.31C248.867 238.329 230.149 238.357 208.478 238.389H208.309V238.22C208.306 229.208 208.304 219.471 208.302 209.396V209.22H208.478H208.483C237.954 209.242 264.552 209.261 283.28 209.275H283.403L283.402 209.396C283.374 218.362 283.352 225.577 283.337 230.562C283.324 233.033 283.313 234.948 283.306 236.259C283.301 236.898 283.296 237.387 283.294 237.728C283.289 238.058 283.281 238.22 283.281 238.22Z" fill="#DADBD8"/>
<path d="M248.139 223.808C248.107 223.809 248.103 223.607 248.001 223.273C247.9 222.945 247.666 222.471 247.17 222.112C246.691 221.75 245.912 221.556 245.165 221.839C244.425 222.1 243.788 222.889 243.796 223.807C243.788 224.727 244.424 225.516 245.165 225.777C245.912 226.06 246.691 225.866 247.17 225.504C247.667 225.145 247.9 224.671 248.001 224.343C248.103 224.009 248.107 223.806 248.139 223.808C248.155 223.806 248.199 224.01 248.134 224.377C248.07 224.735 247.856 225.273 247.321 225.702C246.807 226.132 245.926 226.392 245.055 226.082C244.191 225.802 243.433 224.884 243.444 223.807C243.434 222.732 244.191 221.815 245.055 221.534C245.926 221.224 246.807 221.484 247.321 221.914C247.855 222.343 248.07 222.881 248.134 223.239C248.199 223.606 248.155 223.809 248.139 223.808Z" fill="#DADBD8"/>
<path d="M285.618 203.364C285.618 203.51 272.047 203.628 255.31 203.628C238.569 203.628 225.001 203.51 225.001 203.364C225.001 203.218 238.569 203.1 255.31 203.1C272.047 203.1 285.618 203.218 285.618 203.364Z" fill="#DADBD8"/>
<path d="M74.3129 311.332L73.0424 332.498L76.864 349.531C77.1399 350.759 76.3175 351.963 75.0744 352.154C74.378 352.261 73.6781 352.03 73.1881 351.523C70.0698 348.302 58.8551 336.497 58.9005 335.175C58.9605 333.464 58.6941 312.434 58.6941 312.434L74.3129 311.332Z" fill="#A51212"/>
<path d="M75.0745 352.154L58.8963 332.743L58.8552 334.318C58.8586 335.183 58.8064 335.646 59.287 336.256C60.5737 337.887 64.3062 342.851 72.9397 351.849C73.4417 352.373 74.3609 352.284 75.0745 352.154Z" fill="#17282F"/>
<path d="M63.4914 326.746C64.0088 327.133 64.1519 327.942 63.7869 328.475C63.422 329.008 62.5996 329.161 62.0762 328.784C61.5519 328.406 61.3497 327.439 61.7721 326.951C62.1944 326.463 63.1701 326.335 63.5873 326.827" fill="white"/>
<path d="M70.5743 342.715C70.6925 342.779 71.2117 341.686 72.4941 341.137C73.7594 340.548 74.9193 340.89 74.951 340.76C74.9707 340.709 74.7094 340.534 74.216 340.446C73.7268 340.355 73.0072 340.398 72.3039 340.711C71.6014 341.027 71.0892 341.533 70.8304 341.958C70.5674 342.385 70.5229 342.697 70.5743 342.715Z" fill="#17282F"/>
<path d="M71.9784 345.609C72.076 345.704 72.7819 345.041 73.8896 344.768C74.9913 344.47 75.9302 344.709 75.9687 344.577C76.0338 344.472 75.0307 343.985 73.7731 344.316C72.5121 344.635 71.8704 345.548 71.9784 345.609Z" fill="#17282F"/>
<path d="M67.9007 338.974C67.9958 339.079 69.076 338.053 70.7611 337.477C72.4376 336.875 73.9222 337.002 73.9316 336.86C73.9702 336.749 72.4067 336.396 70.6069 337.037C68.8019 337.66 67.8004 338.912 67.9007 338.974Z" fill="#17282F"/>
<path d="M67.749 332.507C67.8004 332.637 68.9895 332.191 70.5152 332.193C72.0409 332.173 73.2343 332.605 73.2848 332.475C73.3465 332.374 72.1514 331.71 70.5118 331.727C68.873 331.729 67.6856 332.407 67.749 332.507Z" fill="#17282F"/>
<path d="M67.9649 326.285C68.0257 326.41 69.2293 325.747 70.8347 325.88C72.4444 325.978 73.5409 326.805 73.6189 326.69C73.6549 326.647 73.4338 326.373 72.9558 326.072C72.4821 325.771 71.7342 325.479 70.8681 325.416C70.0029 325.356 69.2216 325.538 68.7093 325.768C68.1936 325.997 67.9349 326.237 67.9649 326.285Z" fill="#17282F"/>
<path d="M70.8416 324.695C70.8681 324.696 70.9272 324.414 70.9007 323.894C70.8724 323.379 70.7516 322.619 70.3413 321.772C70.1271 321.369 69.907 320.854 69.3261 320.553C69.0374 320.401 68.5971 320.439 68.335 320.711C68.0762 320.974 67.9846 321.32 67.9649 321.655C67.9366 323.002 69.0434 324.345 70.5486 324.594C72.0615 324.818 73.4698 324.002 74.1141 322.862C74.2571 322.567 74.3625 322.201 74.2109 321.837C74.0627 321.469 73.6377 321.311 73.3319 321.351C72.6997 321.421 72.2885 321.769 71.909 322.024C71.1568 322.584 70.6822 323.185 70.4021 323.617C70.1203 324.052 70.0252 324.324 70.0492 324.337C70.1211 324.395 70.6231 323.317 72.0992 322.293C72.471 322.059 72.8993 321.761 73.3542 321.736C73.5761 321.723 73.7628 321.818 73.8348 321.998C73.9093 322.172 73.8553 322.436 73.732 322.668C73.188 323.601 71.8987 324.343 70.6231 324.135C69.3518 323.937 68.3812 322.754 68.3932 321.671C68.4001 321.41 68.4789 321.15 68.6245 321.002C68.7667 320.854 68.9775 320.82 69.1694 320.906C69.5763 321.087 69.8358 321.543 70.0483 321.922C70.8835 323.511 70.7465 324.713 70.8416 324.695Z" fill="#17282F"/>
<path d="M39.8268 312.488L40.5533 330.002C40.5533 330.002 22.995 336.622 22.814 339.871L56.8231 339.683L56.8111 312.348L39.8268 312.488Z" fill="#A51212"/>
<path d="M51.0611 328.47C51.7198 328.646 52.179 329.384 52.03 330.049C51.8809 330.715 51.1347 331.188 50.4725 331.023C49.8103 330.859 49.2329 329.991 49.4548 329.346C49.6784 328.7 50.5839 328.193 51.187 328.512" fill="white"/>
<path d="M56.8231 339.683L56.8214 337.197L24.0354 338.142C24.0354 338.142 22.8805 338.923 22.814 339.871L56.8231 339.683Z" fill="#17282F"/>
<path d="M40.0007 329.831C40.0067 329.998 40.8377 330.068 41.6584 330.598C42.4919 331.106 42.9168 331.823 43.0702 331.756C43.2227 331.722 42.97 330.731 41.9651 330.107C40.9671 329.475 39.9639 329.679 40.0007 329.831Z" fill="#17282F"/>
<path d="M36.4421 331.327C36.4044 331.488 37.1257 331.766 37.6937 332.465C38.2822 333.148 38.4287 333.907 38.594 333.898C38.75 333.924 38.8596 332.951 38.1366 332.094C37.4221 331.233 36.4447 331.168 36.4421 331.327Z" fill="#17282F"/>
<path d="M34.4392 335.607C34.5909 335.641 34.817 334.811 34.3853 333.904C33.9604 332.994 33.1756 332.639 33.1062 332.778C33.0129 332.915 33.52 333.4 33.8627 334.149C34.2234 334.891 34.2747 335.592 34.4392 335.607Z" fill="#17282F"/>
<path d="M40.2782 325.822C40.3484 325.972 41.1092 325.739 42.0481 325.798C42.9878 325.837 43.7203 326.148 43.8068 326.005C43.9019 325.885 43.1849 325.274 42.078 325.22C40.9721 325.159 40.1959 325.692 40.2782 325.822Z" fill="#17282F"/>
<path d="M27.2698 230.727C27.2698 230.727 36.0643 310.661 39.0078 323.416H55.6863H74.0002C74.0002 323.416 84.1029 253.374 85.7382 234.08L27.2698 230.727Z" fill="#17282F"/>
<path d="M57.942 240.733C58.0653 240.733 58.1647 259.244 58.1647 282.073C58.1647 304.908 58.0653 323.416 57.942 323.416C57.8186 323.416 57.7192 304.908 57.7192 282.073C57.7192 259.244 57.8186 240.733 57.942 240.733Z" fill="#33535F"/>
<path d="M40.9045 23.3964C38.3833 30.9916 35.8622 38.5868 33.341 46.1821C31.7176 51.0711 30.0736 56.0064 27.4128 60.4182C26.2186 62.3997 24.7984 64.3263 24.3265 66.5913C23.8611 68.8255 24.3651 71.2088 23.6847 73.3873C22.99 75.6112 21.1776 77.2749 19.9157 79.2332C18.6541 81.1924 18.044 84.028 19.6775 85.6899C19.6775 85.6899 36.4121 88.6386 36.849 88.9298C37.2859 89.2211 40.9045 23.3964 40.9045 23.3964Z" fill="#17282F"/>
<path d="M49.472 59.9128L42.0755 68.5095L24.882 74.6415C24.882 74.6415 17.8848 144.66 16.2855 153.566C14.686 162.472 8.96838 233.227 8.96838 233.227C8.96838 233.227 59.268 243.439 80.4603 240.041C101.652 236.643 102.052 228.646 102.052 228.646L100.452 142.28L99.3558 119.482C99.3558 119.482 100.252 116.491 100.652 105.894C101.052 95.2984 101.501 79.522 98.1025 77.1224C94.7041 74.7238 77.8611 69.9084 77.8611 69.9084L70.8639 62.9111L49.472 59.9128Z" fill="white"/>
<path d="M49.472 59.9128C49.472 59.9128 49.9363 59.9633 50.8564 60.085C51.785 60.2101 53.1557 60.3943 54.9564 60.6367C58.5827 61.1344 63.936 61.8694 70.8767 62.8212L70.9058 62.8255L70.9281 62.8469C73.0038 64.9158 75.3691 67.2725 77.9374 69.8313L77.8911 69.8039C81.7341 70.9159 85.9284 72.1837 90.4105 73.7232C92.6447 74.5113 94.9688 75.3226 97.2604 76.4671C97.5456 76.6127 97.8172 76.796 98.0991 76.9597C98.2404 77.0385 98.3612 77.1712 98.4931 77.2758C98.6054 77.4008 98.7142 77.5302 98.8195 77.6604C99.2127 78.2061 99.4663 78.8264 99.6787 79.4534C100.105 80.7136 100.329 82.0414 100.52 83.3847C101.199 88.7817 101.126 94.5462 100.991 100.582C100.903 103.602 100.812 106.695 100.63 109.86C100.54 111.441 100.419 113.04 100.26 114.653C100.087 116.269 99.9161 117.888 99.5254 119.533L99.5323 119.474C99.7816 124.587 100.039 129.877 100.305 135.33C100.42 138.056 100.613 140.821 100.669 143.63C100.722 146.439 100.777 149.286 100.831 152.172C101.049 163.713 101.279 175.853 101.519 188.486C101.755 201.118 102.001 214.243 102.255 227.756C102.239 228.174 102.329 228.594 102.203 229.065C102.086 229.494 101.935 229.911 101.724 230.294C101.337 231.083 100.783 231.76 100.204 232.403C99.0148 233.671 97.5671 234.652 96.0611 235.49C93.031 237.16 89.7071 238.239 86.3353 239.074C85.4863 239.264 84.6451 239.499 83.7867 239.655L81.2107 240.129C80.3558 240.317 79.4742 240.361 78.6039 240.475C77.7309 240.566 76.858 240.685 75.9807 240.756C74.2237 240.814 72.4615 240.931 70.6951 240.941C68.9286 240.915 67.1562 240.931 65.3829 240.869C55.5355 240.487 45.8748 239.392 36.4498 238.085C27.0277 236.743 17.8326 235.194 8.9252 233.44L8.73682 233.402L8.75224 233.209C10.1717 215.838 11.5786 199.206 12.9893 183.539C13.7025 175.706 14.4035 168.113 15.1889 160.797C15.3816 158.967 15.5975 157.157 15.8341 155.363C16.0824 153.561 16.3936 151.815 16.6115 150.058C17.0816 146.552 17.4761 143.105 17.8677 139.732C20.9115 112.742 23.1449 90.4308 24.7783 74.6321L24.785 74.5661L24.8471 74.5439C32.193 71.9422 37.8359 69.9427 42.0541 68.4487L42.0267 68.4675C44.5693 65.536 46.4282 63.3926 47.6567 61.9757C48.2658 61.2792 48.7173 60.7618 49.0222 60.4131C49.3229 60.0722 49.472 59.9128 49.472 59.9128C49.472 59.9128 49.3298 60.0927 49.0342 60.4439C48.7336 60.7986 48.2881 61.3246 47.6867 62.0339C46.4728 63.456 44.6361 65.608 42.1235 68.5506L42.1132 68.5634L42.0961 68.5695C37.8856 70.0815 32.2512 72.1058 24.9171 74.74L24.9858 74.6527C23.4079 90.4582 21.2234 112.773 18.2174 139.772C17.8302 143.147 17.441 146.595 16.9742 150.106C16.7587 151.862 16.4448 153.639 16.2032 155.415C15.9697 157.2 15.7561 159.01 15.5658 160.838C14.7894 168.15 14.0957 175.743 13.3896 183.575C11.9932 199.241 10.5967 215.874 9.18485 233.243L9.01189 233.014C17.9062 234.763 27.0992 236.308 36.5115 237.648C45.9262 238.95 55.5766 240.044 65.3975 240.423C67.1665 240.485 68.9312 240.469 70.6908 240.495C72.4504 240.485 74.2014 240.369 75.9499 240.311C76.8203 240.241 77.6838 240.122 78.5499 240.032C79.4134 239.919 80.2846 239.877 81.1362 239.691L83.6976 239.219C84.5517 239.064 85.3861 238.831 86.2291 238.642C89.5761 237.815 92.8691 236.745 95.8452 235.103C97.3238 234.282 98.7381 233.321 99.8826 232.101C100.439 231.483 100.971 230.834 101.332 230.094C101.53 229.734 101.669 229.348 101.774 228.963C101.881 228.609 101.802 228.169 101.815 227.749C101.568 214.24 101.328 201.118 101.097 188.488C100.868 175.859 100.649 163.721 100.439 152.183C100.387 149.298 100.336 146.451 100.286 143.642C100.232 140.834 100.044 138.069 99.9315 135.343C99.6728 129.892 99.4218 124.603 99.1793 119.491L99.1785 119.467L99.187 119.432C99.5622 117.86 99.7439 116.216 99.9152 114.618C100.076 113.012 100.2 111.418 100.292 109.839C100.478 106.683 100.575 103.59 100.667 100.574C100.813 94.5454 100.895 88.7851 100.232 83.4241C100.045 82.0911 99.8252 80.7735 99.4106 79.5442C99.2059 78.9317 98.9592 78.3303 98.5942 77.8241C98.2558 77.2955 97.6741 77.0265 97.1327 76.7087C94.8771 75.5761 92.5521 74.7554 90.3265 73.9648C85.8564 72.4159 81.6656 71.136 77.8312 70.013L77.8037 70.0052L77.784 69.9855C75.2243 67.4164 72.8676 65.052 70.7996 62.9754L70.851 63.0011C63.9317 62.0108 58.5938 61.2467 54.9778 60.7284C53.1745 60.4662 51.8021 60.2658 50.8718 60.1304C49.9483 59.9934 49.472 59.9128 49.472 59.9128Z" fill="#17282F"/>
<path d="M27.8806 87.9011L28.0811 107.893L25.8327 128.678L43.675 130.685L42.4337 154.355C42.4337 154.355 19.4707 154.102 8.47483 149.705C-2.52094 145.306 0.0919026 137.482 0.891688 129.485C1.69147 121.488 13.6865 81.9036 17.2848 79.1049C20.8835 76.3061 26.4877 74.6416 26.4877 74.6416L27.8806 87.9011Z" fill="white"/>
<path d="M102.851 87.1018C100.452 75.3064 95.8537 76.5057 95.8537 76.5057L98.9463 126.677L88.4272 128.885L87.257 138.362C87.0574 148.639 97.3648 152.11 97.3648 152.11C97.3648 152.11 112.447 142.08 113.447 135.683C114.447 129.285 105.25 98.8973 102.851 87.1018Z" fill="white"/>
<path d="M51.0723 59.9128C51.0723 59.9128 48.6728 62.3115 49.0728 66.51C49.472 70.7086 52.8713 77.7058 54.6703 80.1045C56.4693 82.504 67.0654 103.895 67.0654 103.895L72.6629 74.6415L73.0167 65.064L70.8639 62.9112L51.0723 59.9128Z" fill="#CB1D1D"/>
<path d="M64.4217 103.343C64.4132 103.356 64.2452 103.248 63.9351 103.028C63.5907 102.779 63.1453 102.456 62.5919 102.054C61.3934 101.161 59.7332 99.9228 57.7003 98.4065C55.6314 96.8431 53.1874 94.9961 50.4803 92.9504C49.1225 91.9164 47.6996 90.8327 46.2244 89.7105C45.5073 89.1459 44.7004 88.3912 44.5607 87.3152C44.4365 86.2632 44.8134 85.3097 45.1381 84.3785C45.9562 82.3662 47.0262 80.5732 48.0782 78.8676L48.342 79.1871C45.6007 80.4036 43.0333 81.543 40.7168 82.571L40.4059 82.7089L40.4444 82.3782C40.919 78.2662 41.3165 74.8276 41.6018 72.3586C41.7491 71.191 41.8682 70.2547 41.9556 69.5582C42.0438 68.9131 42.1012 68.5704 42.1209 68.5722C42.1415 68.5747 42.1235 68.9217 42.073 69.571C42.0104 70.2701 41.9273 71.2107 41.8237 72.3826C41.5778 74.8558 41.2351 78.2996 40.8248 82.4193L40.5524 82.2249C42.8705 81.1789 45.4397 80.0198 48.1827 78.7819L48.8175 78.4949L48.4466 79.1006C47.4134 80.7874 46.3452 82.5898 45.5545 84.5387C45.2341 85.4408 44.888 86.3797 45.001 87.2552C45.1073 88.1367 45.7909 88.811 46.4968 89.3678C47.9643 90.496 49.3795 91.5848 50.7296 92.6231C53.4152 94.698 55.8396 96.5706 57.8913 98.1555C59.8891 99.7189 61.5202 100.995 62.6972 101.916C63.2292 102.345 63.6584 102.691 63.99 102.957C64.2821 103.199 64.432 103.331 64.4217 103.343Z" fill="#17282F"/>
<path d="M67.0653 103.895C67.0525 103.886 67.1484 103.73 67.3403 103.441C67.5631 103.116 67.8466 102.701 68.197 102.189C68.9834 101.061 70.0645 99.5098 71.3864 97.614C72.7322 95.6813 74.3342 93.3803 76.0741 90.8018C76.9393 89.509 77.8517 88.1538 78.752 86.724C79.2078 86.0121 79.6558 85.2771 80.0833 84.5232C80.5013 83.7676 80.9682 82.9932 80.9502 82.1725C80.9262 81.0537 80.1364 80.0865 79.308 79.3541C78.465 78.6062 77.4919 78.016 76.5324 77.5448L75.4736 77.0248L76.6395 77.1345C79.6618 77.418 82.4511 77.6802 84.9106 77.9106L84.7573 78.2079C82.6721 75.7338 80.9442 73.6829 79.6969 72.2018C79.1272 71.5087 78.6681 70.9493 78.3185 70.5227C78.0059 70.1329 77.8465 69.9204 77.8611 69.9085C77.8748 69.8965 78.0607 70.0858 78.3999 70.4524C78.7683 70.8628 79.2523 71.4008 79.8528 72.0681C81.1293 73.5236 82.8974 75.5393 85.0305 77.9731L85.3252 78.3089L84.8772 78.2704C82.4168 78.0605 79.6258 77.8215 76.6009 77.5628L76.7089 77.1533C77.7223 77.6442 78.7075 78.237 79.601 79.0234C80.0516 79.4081 80.4619 79.8604 80.802 80.3761C81.1558 80.8815 81.3743 81.5146 81.3957 82.1622C81.4026 82.4072 81.394 82.6497 81.3177 82.8819L81.2312 83.2322L81.0881 83.5449C80.9091 83.9724 80.6864 84.3553 80.4705 84.7408C80.0336 85.5075 79.5813 86.2443 79.1212 86.9579C78.2115 88.3919 77.2905 89.7438 76.4142 91.0322C74.6529 93.6031 73.0235 95.8861 71.6442 97.7964C70.2633 99.7051 69.1308 101.239 68.3375 102.291C67.9597 102.782 67.653 103.181 67.4132 103.494C67.1973 103.766 67.0782 103.904 67.0653 103.895Z" fill="#17282F"/>
<path d="M68.0111 240.776C67.8877 240.777 67.432 210.023 66.9934 172.093C66.5539 134.149 66.2978 103.399 66.4211 103.398C66.5445 103.397 67.0002 134.144 67.4388 172.088C67.8783 210.018 68.1345 240.774 68.0111 240.776Z" fill="#17282F"/>
<path d="M98.7012 126.748C98.6669 126.716 99.1415 126.132 100.162 125.494C101.168 124.857 102.772 124.221 104.626 124.208C106.481 124.196 108.095 124.811 109.109 125.434C110.136 126.059 110.619 126.636 110.585 126.669C110.537 126.726 109.985 126.242 108.955 125.71C107.935 125.177 106.387 124.644 104.629 124.655C102.871 124.667 101.33 125.221 100.319 125.767C99.2957 126.313 98.7509 126.805 98.7012 126.748Z" fill="#17282F"/>
<path d="M111.015 132.069C110.949 132.106 110.562 131.388 109.71 130.417C108.869 129.447 107.499 128.251 105.695 127.477C103.892 126.702 102.08 126.532 100.798 126.59C99.5067 126.642 98.7202 126.856 98.7014 126.782C98.686 126.738 99.451 126.412 100.776 126.275C102.09 126.133 103.987 126.258 105.871 127.067C107.756 127.876 109.152 129.165 109.954 130.216C110.768 131.27 111.058 132.05 111.015 132.069Z" fill="#17282F"/>
<path d="M6.27993 130.9C6.26116 130.875 6.47936 130.686 6.89261 130.361C7.29927 130.029 7.93604 129.609 8.75561 129.15C9.57279 128.683 10.6004 128.225 11.7777 127.817C12.9613 127.43 14.2989 127.106 15.728 126.933C17.1593 126.776 18.5357 126.785 19.7768 126.891C21.0157 127.02 22.1213 127.232 23.0231 127.5C23.9263 127.76 24.6421 128.024 25.1133 128.254C25.5897 128.475 25.8455 128.61 25.8327 128.638C25.7996 128.716 24.7425 128.241 22.9435 127.805C22.0463 127.579 20.9571 127.405 19.7417 127.301C18.5243 127.22 17.1794 127.222 15.7793 127.376C14.3812 127.546 13.0713 127.85 11.9048 128.207C10.7456 128.586 9.72467 129.005 8.90279 129.429C7.2507 130.263 6.32978 130.967 6.27993 130.9Z" fill="#17282F"/>
<path d="M12.6493 121.645C12.6463 121.614 12.8628 121.573 13.2594 121.525C13.6552 121.47 14.2358 121.453 14.9509 121.49C16.3788 121.559 18.3606 121.977 20.3165 122.985C22.2691 124.002 23.7525 125.381 24.6316 126.509C25.0744 127.071 25.3959 127.555 25.5783 127.911C25.7683 128.262 25.8591 128.463 25.8326 128.478C25.7637 128.519 25.3173 127.761 24.3903 126.712C23.4697 125.661 22.003 124.368 20.1113 123.381C18.2149 122.404 16.3132 121.952 14.9238 121.805C13.5324 121.652 12.655 121.725 12.6493 121.645Z" fill="#17282F"/>
<path d="M41.2318 130.501C41.2283 130.526 40.8171 130.502 40.0624 130.437C39.2426 130.357 38.1615 130.25 36.8388 130.119C34.0255 129.806 30.197 129.38 25.8073 128.893L25.5985 128.869L25.6173 128.659C25.7568 127.075 25.9191 125.389 26.1199 123.657C26.7647 118.019 27.5097 112.939 28.0819 109.266C28.3689 107.431 28.6156 105.948 28.7989 104.926C28.8872 104.457 28.9608 104.069 29.0217 103.749C29.0774 103.48 29.115 103.342 29.1305 103.343C29.145 103.346 29.1382 103.491 29.1108 103.763C29.0722 104.086 29.026 104.478 28.9703 104.951C28.8246 106.05 28.6302 107.523 28.3937 109.313C27.902 112.994 27.2073 118.078 26.5633 123.707C26.3625 125.436 26.1959 127.118 26.0483 128.696L25.8582 128.463C30.2407 129.013 34.0623 129.492 36.8713 129.845C38.1872 130.028 39.264 130.177 40.0804 130.289C40.8291 130.401 41.2352 130.475 41.2318 130.501Z" fill="#17282F"/>
<path d="M23.8748 75.6473C23.8764 75.655 23.7577 75.6935 23.5237 75.7629C23.2708 75.8383 22.9277 75.9411 22.488 76.073C21.5976 76.372 20.2142 76.7669 18.775 77.8412C17.3199 78.9086 16.1343 80.8293 15.1143 83.1671C14.1302 85.5204 13.2484 88.3157 12.2515 91.3843C10.2825 97.536 8.03816 104.895 5.62938 113.089C3.45593 121.307 -0.22706 130.22 0.460331 140.164C0.46864 140.448 0.477033 140.733 0.485428 141.008L0.480717 140.972C0.966962 143.146 1.97483 145.225 3.48839 146.78C5.04984 148.28 7.05796 149.263 9.04337 150.004C11.0529 150.734 13.1159 151.202 15.1475 151.611C17.1807 152.02 19.1849 152.368 21.1522 152.638C23.1208 152.917 25.0473 153.078 26.939 153.184C28.8289 153.307 30.669 153.425 32.4526 153.54C36.0181 153.773 39.3616 153.99 42.4431 154.191L42.2692 154.344C42.8123 147.153 43.2535 141.321 43.5593 137.261C43.7212 135.261 43.8471 133.699 43.9345 132.612C43.9816 132.098 44.0176 131.697 44.0442 131.404C44.0716 131.132 44.0973 130.993 44.0973 130.993C44.0973 130.993 44.1041 131.134 44.093 131.408C44.0767 131.702 44.0562 132.103 44.0296 132.619C43.9628 133.707 43.866 135.271 43.7418 137.274C43.4702 141.337 43.0796 147.172 42.5981 154.367L42.587 154.529L42.4242 154.52C39.3419 154.334 35.9975 154.132 32.4312 153.917C30.6467 153.809 28.8066 153.697 26.9166 153.581C25.0259 153.482 23.072 153.323 21.0963 153.049C19.118 152.782 17.105 152.436 15.0638 152.03C13.0242 151.623 10.9391 151.155 8.89346 150.415C6.86324 149.656 4.83062 148.677 3.17289 147.093C1.58162 145.455 0.55165 143.321 0.044331 141.064L0.0403049 141.045L0.0399598 141.027C0.0316502 140.749 0.0225733 140.462 0.013921 140.174C-0.0634362 135.254 0.146103 130.34 1.55352 125.866C2.76562 121.374 4.02553 117.071 5.23523 112.973C7.66637 104.782 9.94253 97.4306 11.9513 91.2875C12.97 88.2197 13.8688 85.4381 14.8871 83.0634C15.9325 80.7256 17.1637 78.775 18.6705 77.7024C20.1593 76.6264 21.5604 76.2607 22.4626 75.9865C22.9207 75.8555 23.2741 75.7723 23.5123 75.7184C23.75 75.6635 23.8727 75.6396 23.8748 75.6473Z" fill="#17282F"/>
<path d="M38.3311 132.427C38.5923 132.166 43.675 128.642 43.675 128.642C43.675 128.642 43.9679 126.205 45.2726 125.771C45.2726 125.771 46.2304 123.595 49.3624 123.595C52.4952 123.595 56.9336 123.595 56.9336 123.595L63.4597 130.905C63.4597 130.905 63.1993 132.731 61.4585 132.557L63.2498 135.923C63.2498 135.923 61.1973 137.431 59.4574 136.213C57.7166 134.995 55.2802 132.906 55.2802 132.906L58.7609 138.389C58.7609 138.389 58.4645 139.606 56.5241 138.737C54.5838 137.866 52.67 135.431 52.67 135.431L46.8395 134.82L51.7996 136.474L55.6281 139.955C55.6281 139.955 55.2802 141.173 53.5395 140.738C51.7996 140.303 49.7976 138.911 49.7976 138.911L47.1873 139.084C47.1873 139.084 46.9937 140.929 45.0114 141.956C43.0299 142.983 40.5738 142.826 40.5738 142.826L34.8444 144.822C34.7673 141.473 36.5723 136.37 38.3311 132.427Z" fill="#F8A58D"/>
<path d="M61.4586 132.557C61.4038 132.596 60.9275 131.96 60.1094 130.985C59.6956 130.503 59.1987 129.931 58.5888 129.366C57.9703 128.79 57.2755 128.267 56.3383 127.995C54.5188 127.369 52.76 127.154 51.4982 127.017C50.2311 126.888 49.4387 126.844 49.4396 126.778C49.4396 126.722 50.2337 126.652 51.5204 126.702C52.8029 126.761 54.6001 126.926 56.4848 127.573C56.9448 127.732 57.4246 127.919 57.8221 128.198C58.2204 128.466 58.5631 128.768 58.8715 129.068C59.4892 129.671 59.9689 130.274 60.3561 130.789C61.122 131.828 61.5049 132.527 61.4586 132.557Z" fill="#F68260"/>
<path d="M55.2802 132.906C55.2219 132.952 54.9401 132.64 54.421 132.236C53.8967 131.841 53.0983 131.401 52.1174 131.193C51.1408 130.972 50.2113 130.955 49.5388 130.921C48.8646 130.893 48.4423 130.851 48.4414 130.788C48.4414 130.728 48.8552 130.658 49.5345 130.606C50.2113 130.56 51.1716 130.523 52.2159 130.758C53.2645 130.979 54.1263 131.513 54.6257 131.995C55.1243 132.489 55.3187 132.878 55.2802 132.906Z" fill="#F68260"/>
<path d="M42.4207 134.353C42.3787 134.389 42.1483 134.222 41.9444 133.822C41.7405 133.431 41.5966 132.781 41.7851 132.1C41.9752 131.42 42.4353 130.938 42.8113 130.709C43.1943 130.472 43.477 130.448 43.4941 130.501C43.5592 130.604 42.5415 131.058 42.2151 132.22C41.893 133.383 42.5303 134.298 42.4207 134.353Z" fill="#F68260"/>
<path d="M37.8034 141.563C37.8839 141.463 38.4818 141.828 39.2743 142.12C40.0624 142.421 40.7537 142.539 40.7477 142.668C40.7503 142.786 39.9844 142.867 39.1166 142.538C38.248 142.215 37.7237 141.65 37.8034 141.563Z" fill="#F68260"/>
<path d="M41.1383 130.543C41.152 130.584 40.7374 130.674 40.1172 131.079C39.4995 131.476 38.7122 132.235 38.0937 133.407C37.4726 134.57 36.9509 136.091 36.3633 137.756C35.8013 139.425 35.2641 141.302 35.1057 143.319C34.9755 144.977 35.1331 146.592 35.5768 148.004C36.0112 149.422 36.7513 150.612 37.602 151.48C38.4527 152.35 39.3796 152.919 40.184 153.237C40.9876 153.57 41.6635 153.65 42.0875 153.702L42.3539 153.733L42.1081 153.822C41.6866 153.973 41.4887 154.032 41.4801 154.012C41.4716 153.991 41.654 153.894 42.061 153.706L42.0815 153.826C41.648 153.821 40.943 153.782 40.0941 153.474C39.2451 153.18 38.2582 152.619 37.3501 151.73C36.4412 150.846 35.6411 149.603 35.1751 148.132C34.697 146.665 34.5274 144.991 34.6611 143.284C34.8247 141.208 35.3858 139.3 35.9743 137.621C36.5894 135.95 37.1385 134.444 37.8187 133.252C38.4929 132.06 39.3582 131.295 40.0272 130.93C40.3613 130.742 40.6432 130.642 40.8359 130.59C41.0295 130.537 41.1349 130.53 41.1383 130.543Z" fill="#17282F"/>
<path d="M26.9618 92.2238C27.0776 92.1818 27.7075 93.6253 28.368 95.4474C29.0285 97.2704 29.4697 98.7816 29.3541 98.8236C29.2384 98.8655 28.6087 97.4229 27.9483 95.5999C27.2878 93.7778 26.846 92.2658 26.9618 92.2238Z" fill="#17282F"/>
<path d="M91.7298 128.008C91.7272 127.992 91.8951 127.947 92.2172 127.872C92.5873 127.793 93.055 127.694 93.6299 127.571C94.9191 127.317 96.6839 126.968 98.8384 126.544L98.7099 126.709C98.4118 122.183 98.0066 116.032 97.5594 109.237C97.1619 102.435 96.8021 96.2809 96.5382 91.7534C96.4312 89.5595 96.3438 87.7631 96.2795 86.4515C96.2607 85.8647 96.2444 85.3866 96.2324 85.008C96.2264 84.6782 96.2307 84.5051 96.2461 84.5034C96.2615 84.5026 96.2872 84.6748 96.3215 85.0029C96.3566 85.3807 96.4003 85.8561 96.4534 86.4403C96.552 87.7502 96.6882 89.5432 96.8526 91.7337C97.1516 96.2595 97.5568 102.411 98.004 109.21C98.4015 116.008 98.7604 122.161 99.0251 126.689L99.0329 126.831L98.8958 126.854C96.7301 127.221 94.9568 127.522 93.6607 127.742C93.0807 127.831 92.6079 127.903 92.2335 127.961C91.9062 128.006 91.7332 128.022 91.7298 128.008Z" fill="#17282F"/>
<path d="M98.7014 77.5183C98.7074 77.5131 98.7673 77.5842 98.8795 77.7299C99.0046 77.8961 99.1665 78.1111 99.3704 78.3818C99.7388 78.9935 100.266 79.911 100.833 81.1446C101.989 83.6023 103.444 87.2517 105.093 91.8109C106.734 96.3736 108.589 101.84 110.535 107.946C111.015 109.476 111.507 111.043 112.009 112.643C112.529 114.239 112.896 115.948 113.146 117.675C113.636 121.142 113.878 124.754 113.958 128.458C113.993 130.311 113.995 132.142 113.882 133.952C113.858 134.405 113.811 134.855 113.742 135.313C113.672 135.784 113.521 136.209 113.368 136.635C113.045 137.48 112.638 138.277 112.182 139.032C111.266 140.555 110.07 141.828 108.89 143.021C107.699 144.212 106.483 145.322 105.275 146.381C104.066 147.436 102.863 148.438 101.661 149.374C101.062 149.844 100.456 150.288 99.8441 150.71C99.5306 150.914 99.2256 151.119 98.8753 151.287C98.5566 151.42 98.2807 151.626 97.9355 151.798C97.5928 151.984 97.1542 152.023 96.7944 151.951C96.4226 151.886 96.0877 151.761 95.7673 151.632C95.1171 151.383 94.5002 151.086 93.916 150.761C92.7449 150.113 91.7144 149.331 90.8269 148.491C89.9376 147.648 89.1932 146.742 88.591 145.819C88.2834 145.362 88.0238 144.893 87.7968 144.418C87.5955 143.934 87.4345 143.454 87.3257 142.978C86.8965 141.068 87.0155 139.377 87.1286 138.031C87.2657 136.677 87.4516 135.64 87.5809 134.937C87.6478 134.607 87.7 134.345 87.7411 134.141C87.7805 133.963 87.8037 133.872 87.8114 133.873C87.8191 133.874 87.8105 133.968 87.7857 134.149C87.7566 134.354 87.718 134.62 87.67 134.953C87.5689 135.659 87.4105 136.699 87.3017 138.045C87.2143 139.385 87.126 141.064 87.5689 142.92C87.7797 143.851 88.2037 144.772 88.8283 145.662C89.4271 146.562 90.1655 147.443 91.0427 148.26C91.9191 149.077 92.9334 149.835 94.0831 150.459C94.6553 150.775 95.2601 151.061 95.8958 151.298C96.5186 151.54 97.2056 151.784 97.7727 151.466C98.0648 151.32 98.3724 151.095 98.7228 150.944C99.0252 150.797 99.3284 150.595 99.63 150.394C100.228 149.977 100.827 149.534 101.42 149.064C102.609 148.13 103.805 147.127 105.005 146.071C106.202 145.014 107.409 143.905 108.587 142.72C109.758 141.531 110.924 140.281 111.808 138.806C113.906 135.905 113.487 132.126 113.512 128.467C113.433 124.78 113.194 121.178 112.714 117.738C112.465 116.014 112.116 114.364 111.601 112.768C111.104 111.167 110.618 109.601 110.144 108.071C108.22 101.962 106.398 96.4875 104.796 91.9163C103.186 87.3485 101.779 83.688 100.675 81.2174C100.135 79.9761 99.6351 79.0534 99.2942 78.4289C99.1074 78.1505 98.9584 77.9295 98.8444 77.759C98.7442 77.6048 98.6954 77.5243 98.7014 77.5183Z" fill="#17282F"/>
<path d="M83.5477 130.993L87.5492 125.767C87.5492 125.767 91.3948 124.283 92.8708 126.748C92.8708 126.748 96.6547 126.968 96.1416 130.752C96.1416 130.752 98.0665 132.485 97.4891 134.922L97.597 145.175L93.6067 143.232C93.6067 143.232 91.7263 143.831 90.1029 142.448C88.9438 141.462 88.6954 139.182 88.6954 139.182C88.6954 139.182 86.6985 140.674 85.8144 139.541C84.6451 138.041 87.1063 136.173 87.1063 136.173C87.1063 136.173 84.7307 137.212 83.9614 136.122C83.1913 135.031 83.8903 134.088 83.8903 134.088L84.8524 132.741C84.8524 132.741 82.7321 133.049 83.5477 130.993Z" fill="#F8A58D"/>
<path d="M89.7655 128.478C89.8469 128.571 88.7854 129.637 87.3951 130.859C86.0047 132.082 84.8114 132.999 84.73 132.905C84.6486 132.813 85.71 131.747 87.1004 130.524C88.4907 129.301 89.6841 128.386 89.7655 128.478Z" fill="#F68260"/>
<path d="M92.726 130.991C92.81 131.082 91.4761 132.445 89.7474 134.035C88.0186 135.626 86.5503 136.842 86.4663 136.751C86.3832 136.661 87.7162 135.298 89.4458 133.707C91.1737 132.116 92.6429 130.901 92.726 130.991Z" fill="#F68260"/>
<path d="M95.4854 134.612C95.5351 134.745 93.7626 135.368 91.8951 136.666C90.0241 137.961 88.8205 139.403 88.7126 139.31C88.6243 139.254 89.7003 137.646 91.6406 136.299C93.5801 134.954 95.464 134.51 95.4854 134.612Z" fill="#F68260"/>
<path d="M97.1115 141.302C97.1535 141.336 96.923 141.725 96.3705 142.191C95.8248 142.654 94.9236 143.169 93.8193 143.343C92.7502 143.496 91.7076 143.494 91.0248 143.157C90.3575 142.838 90.0722 142.484 90.1031 142.448C90.1442 142.387 90.5057 142.648 91.1388 142.863C91.7642 143.092 92.7133 143.048 93.7482 142.903C95.8248 142.579 97.031 141.193 97.1115 141.302Z" fill="#F68260"/>
<path d="M96.1185 137.943C96.1408 137.956 96.08 138.134 95.8529 138.374C95.6311 138.616 95.2267 138.88 94.7179 139.127C94.2244 139.378 93.5871 139.65 93.2058 140.197C93.0088 140.46 92.9882 140.813 92.8178 141.249C92.6361 141.699 92.1915 142.028 91.7127 142.121C91.2372 142.23 90.7129 142.109 90.348 141.822C89.9796 141.538 89.7552 141.139 89.6515 140.745C89.5453 140.351 89.5667 139.936 89.6747 139.599C89.7775 139.264 89.9085 138.977 90.0404 138.721C90.5596 137.688 91.1781 137.236 91.2209 137.31C91.2441 137.344 90.7558 137.828 90.3257 138.857C90.1218 139.366 89.8383 139.987 90.0473 140.635C90.2135 141.281 90.8663 141.869 91.621 141.685C91.9834 141.61 92.2866 141.383 92.4168 141.076C92.5522 140.766 92.6036 140.305 92.8683 139.963C93.3832 139.288 94.0831 139.061 94.5868 138.84C95.6499 138.461 96.0765 137.92 96.1185 137.943Z" fill="#F68260"/>
<path d="M97.6023 134.82C97.6674 134.821 97.7094 135.767 97.7693 137.297C97.825 138.826 97.9175 140.938 97.9492 143.279C97.9818 145.62 97.8893 147.746 97.7154 149.274C97.5466 150.804 97.3367 151.733 97.2827 151.724C97.2151 151.714 97.3136 150.772 97.401 149.248C97.4935 147.725 97.5355 145.617 97.5029 143.284C97.4721 140.952 97.4292 138.834 97.4541 137.301C97.4746 135.767 97.544 134.819 97.6023 134.82Z" fill="#17282F"/>
<path d="M89.7475 109.995C89.7603 110.002 89.6901 110.144 89.5427 110.406C89.3662 110.709 89.1478 111.084 88.8814 111.542C88.3031 112.525 87.4276 113.925 86.3122 115.633C84.0849 119.051 80.8321 123.665 76.9146 128.508C72.9902 133.348 69.1532 137.49 66.273 140.38C64.8338 141.826 63.6465 142.973 62.8044 143.743C62.4129 144.099 62.0916 144.389 61.8321 144.625C61.6059 144.823 61.4817 144.922 61.4714 144.912C61.4611 144.9 61.5639 144.779 61.7695 144.56C62.0137 144.309 62.3161 143.997 62.6836 143.618C63.4871 142.811 64.6394 141.63 66.0469 140.16C68.8645 137.219 72.6535 133.055 76.5676 128.227C80.4749 123.397 83.7593 118.826 86.0501 115.458C87.1972 113.775 88.1112 112.404 88.734 111.449C89.0296 111.011 89.2712 110.65 89.4665 110.359C89.6378 110.112 89.7338 109.987 89.7475 109.995Z" fill="#17282F"/>
<path d="M73.7886 9.06787C75.7538 9.46022 77.8252 9.16896 79.7544 9.71294C82.5488 10.5011 84.6237 12.9606 85.6903 15.6591C86.7577 18.3584 86.9727 21.3071 87.1757 24.2026C87.3582 26.7984 87.5398 29.3932 87.7223 31.9889C87.8388 33.6568 87.9587 35.3393 88.4162 36.9464C88.9267 38.7411 90.3214 43.5128 90.4122 45.8455C90.7095 53.4373 90.1998 68.8873 86.8151 72.7209C85.0255 74.7486 74.4833 69.7046 71.8319 70.2409C70.6634 69.2188 67.7431 65.0383 66.5754 64.0171C66.3758 63.8424 75.0573 57.2041 74.9536 56.9608C74.7866 56.5624 74.9305 56.111 75.0701 55.7023C80.1999 40.7372 79.2395 23.7803 72.4522 9.4902" fill="#17282F"/>
<path d="M72.8455 73.1235C72.9894 62.9968 73.2087 60.9888 73.2122 61.0462C73.2122 61.0462 81.9133 59.5822 83.6918 48.2219C84.5759 42.5713 84.2717 33.3124 83.7783 25.7438C83.3337 18.9315 78.8019 10.5824 72.0145 11.3158L50.8283 16.7205C48.7671 16.9432 47.2183 18.7062 47.2637 20.7794L47.2628 73.0524C47.2628 73.0524 53.179 78.4143 61.2848 77.388C69.3906 76.3609 72.8455 73.1235 72.8455 73.1235Z" fill="#F8A58D"/>
<path d="M81.1687 34.2026C81.1978 34.9711 80.5699 35.6298 79.7672 35.6752C78.9662 35.7198 78.292 35.1347 78.2629 34.3654C78.2346 33.5961 78.8617 32.9365 79.6627 32.8919C80.4654 32.8465 81.1396 33.4333 81.1687 34.2026Z" fill="#17282F"/>
<path d="M81.1285 30.5659C80.9486 30.7552 79.8435 29.9414 78.2766 29.9491C76.7106 29.9346 75.5619 30.7432 75.3914 30.5522C75.3083 30.4665 75.4907 30.1239 75.991 29.7581C76.4836 29.394 77.324 29.0385 78.2998 29.0402C79.2755 29.0436 80.0979 29.4017 80.5708 29.7684C81.054 30.1376 81.2176 30.4802 81.1285 30.5659Z" fill="#17282F"/>
<path d="M66.2106 34.8039C66.2397 35.5724 65.6118 36.2311 64.8091 36.2766C64.0081 36.3211 63.3339 35.7351 63.3048 34.9667C63.2765 34.1974 63.9044 33.5378 64.7054 33.4932C65.5072 33.4478 66.1814 34.0347 66.2106 34.8039Z" fill="#17282F"/>
<path d="M65.7247 31.6727C65.5431 31.8629 64.4372 31.0491 62.8703 31.0568C61.3052 31.0413 60.1564 31.8509 59.9859 31.659C59.9028 31.5742 60.0844 31.2315 60.5856 30.8657C61.0782 30.5008 61.9185 30.1461 62.8943 30.1479C63.87 30.1513 64.6924 30.5085 65.1662 30.876C65.6476 31.2444 65.8121 31.5879 65.7247 31.6727Z" fill="#17282F"/>
<path d="M71.437 42.5028C71.4302 42.4137 72.4034 42.2432 73.9822 42.0376C74.3823 41.9956 74.7609 41.9151 74.8277 41.6418C74.9211 41.3523 74.7532 40.9214 74.5579 40.4562C74.1792 39.4882 73.7835 38.4747 73.368 37.4116C71.7146 33.076 70.517 29.5114 70.6917 29.4463C70.8665 29.3812 72.3494 32.8421 74.0028 37.1769C74.4003 38.2469 74.7806 39.2654 75.143 40.2403C75.2955 40.6944 75.5576 41.2101 75.3537 41.8106C75.2466 42.1096 74.9537 42.328 74.6975 42.3974C74.4405 42.4762 74.2161 42.4805 74.0173 42.4933C72.4291 42.5824 71.4439 42.5919 71.437 42.5028Z" fill="#17282F"/>
<path d="M73.2121 61.0463C73.2121 61.0463 64.9221 61.556 57.3431 57.0234C57.3431 57.0234 61.6916 65.0178 73.0553 63.9299L73.2121 61.0463Z" fill="#F68260"/>
<path d="M70.7825 46.2807C70.218 45.5371 69.2294 45.1302 68.2493 45.2381C67.5691 45.3126 66.8829 45.6416 66.4709 46.1967C66.0588 46.7519 65.974 47.5383 66.351 48.0651C66.775 48.6588 67.6591 48.795 68.4061 48.5808C69.154 48.3658 69.7965 47.8724 70.4073 47.3806C70.576 47.2436 70.7482 47.1022 70.8536 46.9163C70.959 46.7296 70.9812 46.4863 70.8502 46.3329" fill="#F2575D"/>
<path d="M66.8272 43.5967C67.0825 43.5813 67.0893 45.2827 68.5482 46.4871C70.0046 47.695 71.8173 47.4997 71.831 47.7379C71.855 47.845 71.4284 48.0694 70.6634 48.0917C69.9121 48.1191 68.8147 47.8801 67.922 47.1433C67.0319 46.4049 66.6481 45.418 66.589 44.7207C66.5222 44.0096 66.7107 43.5873 66.8272 43.5967Z" fill="#17282F"/>
<path d="M66.4281 27.0947C66.2747 27.5213 64.7087 27.3226 62.8712 27.5487C61.0285 27.7372 59.5465 28.2786 59.3014 27.8966C59.1926 27.7141 59.4496 27.3132 60.0493 26.8986C60.6421 26.4856 61.5896 26.0924 62.693 25.9665C63.7964 25.8431 64.8081 26.017 65.478 26.2877C66.1531 26.5576 66.494 26.8925 66.4281 27.0947Z" fill="#17282F"/>
<path d="M80.5425 27.7091C80.2675 28.0663 79.1873 27.6988 77.8894 27.6851C76.5916 27.6251 75.4916 27.9292 75.2372 27.5566C75.1267 27.3767 75.2988 27.0195 75.7786 26.6811C76.2515 26.3444 77.0422 26.0685 77.934 26.0942C78.8266 26.1199 79.6002 26.4412 80.0534 26.8044C80.5125 27.1694 80.6633 27.5352 80.5425 27.7091Z" fill="#17282F"/>
<path d="M65.7514 44.3626C65.7299 44.3669 65.6743 44.2204 65.6922 43.9728C65.7077 43.7269 65.8233 43.3877 66.0709 43.0973C66.3193 42.8086 66.6363 42.6424 66.877 42.5893C67.1195 42.5336 67.2728 42.5661 67.2719 42.5884C67.2728 42.6201 67.128 42.639 66.919 42.7221C66.71 42.8035 66.4427 42.9679 66.22 43.2258C65.9998 43.4853 65.8781 43.7749 65.8302 43.9942C65.7796 44.2127 65.7831 44.3583 65.7514 44.3626Z" fill="#F68260"/>
<path d="M63.835 45.1157C63.8144 45.1234 63.7039 44.9006 63.6722 44.5049C63.6396 44.1142 63.7176 43.5428 64.0466 43.0228C64.3764 42.5028 64.8604 42.1893 65.2271 42.0522C65.5989 41.9109 65.8481 41.916 65.8498 41.9383C65.855 41.97 65.6194 42.0137 65.2836 42.1798C64.9495 42.3418 64.516 42.651 64.2128 43.1282C63.9104 43.6053 63.8153 44.1296 63.8118 44.5006C63.8058 44.8749 63.8667 45.1071 63.835 45.1157Z" fill="#F68260"/>
<path d="M71.832 7.58768C71.832 7.58768 46.747 0.710342 40.8883 20.8489C37.9225 31.0458 21.691 83.4996 21.691 83.4996C21.691 83.4996 28.0246 93.4567 36.563 94.178C45.1022 94.8993 51.9496 79.7012 51.9496 79.7012L55.7172 28.917C55.7172 28.917 60.0999 25.6779 65.7471 21.8624L76.0023 11.034L71.832 7.58768Z" fill="#17282F"/>
<path d="M23.0613 84.4554C23.0392 84.458 22.9997 84.231 22.9451 83.7949C22.8746 83.3597 22.8408 82.7121 22.8294 81.8751C22.8207 80.2046 23.1192 77.7614 24.1154 74.9284C25.1136 72.1014 26.8396 68.9292 29.2752 65.81C31.7056 62.6798 34.8384 59.6583 38.1529 56.5683C41.4691 53.4774 44.6259 50.5322 47.1196 47.5245C49.6203 44.5261 51.4647 41.4978 52.6152 38.7847C53.7622 36.0682 54.2463 33.7047 54.4047 32.0642C54.5701 30.4193 54.5007 29.4984 54.5727 29.4959C54.5958 29.495 54.6215 29.7229 54.6497 30.1615C54.6952 30.6001 54.6926 31.2486 54.6575 32.0847C54.5735 33.7526 54.1529 36.1736 53.0392 38.9612C51.9238 41.7436 50.0897 44.8465 47.5814 47.9048C45.0782 50.9751 41.9111 53.9537 38.5966 57.0429C35.2848 60.1303 32.1656 63.1158 29.7455 66.1801C27.3195 69.235 25.5827 72.3302 24.5464 75.0869C23.5147 77.8488 23.151 80.2355 23.0827 81.882C23.0081 83.5328 23.1342 84.4494 23.0613 84.4554Z" fill="#E7E8E5"/>
<path d="M27.5515 88.1906C27.5327 88.2034 27.3862 88.0107 27.1215 87.6294C26.8613 87.2474 26.517 86.6494 26.1767 85.833C25.5034 84.2122 24.9305 81.6105 25.3973 78.4571C25.7875 75.302 27.3785 71.7202 30.0153 68.4803C32.6213 65.1976 36.1808 62.2661 39.8867 59.2763C43.5927 56.2839 47.0442 53.301 49.4411 49.9652C51.8604 46.6524 53.3013 43.1786 54.0988 40.1863C54.9015 37.1837 55.1191 34.6539 55.1602 32.9158C55.1962 31.1733 55.1097 30.207 55.1731 30.2018C55.1954 30.2001 55.2331 30.44 55.2845 30.8992C55.3479 31.3575 55.3847 32.0377 55.4138 32.9166C55.4489 34.6711 55.3016 37.2376 54.5434 40.3019C53.7904 43.3551 52.3709 46.9128 49.9269 50.3155C47.5025 53.7456 44.0056 56.7859 40.2971 59.78C36.5851 62.7741 33.0616 65.6576 30.4813 68.8564C27.8711 72.0167 26.2911 75.4613 25.8514 78.5265C25.3394 81.5865 25.826 84.1274 26.4129 85.7431C27.0186 87.369 27.6141 88.1529 27.5515 88.1906Z" fill="#33535F"/>
<path d="M39.4146 29.8677C39.3924 29.8643 39.4001 29.717 39.4378 29.4343C39.4712 29.1524 39.5611 28.7395 39.7427 28.2289C40.0863 27.2061 40.8787 25.7892 42.3042 24.4587C43.71 23.1172 45.7617 21.9144 48.2006 21.1537C50.6319 20.3553 53.3989 19.933 56.2319 19.3461C61.9082 18.1682 66.8006 16.1542 70.1776 14.4314C71.8661 13.5876 73.0603 12.6033 73.6248 11.7261C74.1988 10.8531 74.2322 10.232 74.2982 10.2483C74.3187 10.2509 74.3187 10.4008 74.2793 10.6852C74.2245 10.9645 74.1131 11.3808 73.8407 11.8589C73.3113 12.8312 72.0905 13.9243 70.3935 14.8366C67.0396 16.6819 62.1129 18.7893 56.3655 19.9818C53.5017 20.5746 50.7629 20.9755 48.3814 21.7251C45.9904 22.4387 44.0124 23.5472 42.6126 24.7988C41.2025 26.0367 40.3827 27.3568 39.9783 28.3214C39.5663 29.2895 39.4746 29.8797 39.4146 29.8677Z" fill="#E7E8E5"/>
<path d="M155.688 258.501V251.668C155.688 246.882 159.573 243.007 164.358 243.019L204.561 243.12L237.829 149.551L239.004 112.755L294.83 111.073L283.336 153.938L233.165 258.501H155.688Z" fill="#33535F"/>
<path d="M278.772 152.913C278.772 153.035 269.98 153.135 259.135 153.135C248.286 153.135 239.496 153.035 239.496 152.913C239.496 152.789 248.286 152.689 259.135 152.689C269.98 152.689 278.772 152.789 278.772 152.913Z" fill="#17282F"/>
<path d="M220.973 241.079C221.009 241.035 221.622 241.441 222.542 242.198C223.458 242.956 224.671 244.083 225.829 245.493C226.984 246.905 227.85 248.317 228.413 249.364C228.974 250.415 229.252 251.097 229.202 251.123C229.066 251.2 227.751 248.56 225.483 245.776C223.201 243.007 220.872 241.197 220.973 241.079Z" fill="#17282F"/>
<path d="M156.376 325.215H183.737V321.172H156.376V325.215Z" fill="#17282F"/>
<path d="M153.147 253.788V268.58H237.399L294.83 154.288V111.073H281.406L281.323 153.151L230.527 253.788H153.147Z" fill="#17282F"/>
<path d="M224.225 334.112H183.493V268.58H224.225V334.112Z" fill="#17282F"/>
<path d="M237.398 268.58C237.398 268.704 218.638 268.837 195.501 268.878C172.357 268.919 153.6 268.853 153.599 268.73C153.599 268.607 172.356 268.473 195.5 268.432C218.637 268.391 237.398 268.458 237.398 268.58Z" fill="#33535F"/>
<path d="M237.398 268.58C237.287 268.632 235.658 265.363 233.76 261.279C231.863 257.193 230.415 253.84 230.527 253.788C230.638 253.736 232.267 257.005 234.165 261.09C236.062 265.175 237.51 268.529 237.398 268.58Z" fill="#33535F"/>
<path d="M295.01 152.913C295.01 153.035 291.89 153.135 288.043 153.135C284.194 153.135 281.075 153.035 281.075 152.913C281.075 152.789 284.194 152.689 288.043 152.689C291.89 152.689 295.01 152.789 295.01 152.913Z" fill="#33535F"/>
<path d="M183.493 334.112L146.519 339.991H256.923L224.225 334.112H183.493Z" fill="#17282F"/>
<path d="M227.741 334.361C227.741 334.484 217.89 334.585 205.74 334.585C193.587 334.585 183.737 334.484 183.737 334.361C183.737 334.239 193.587 334.138 205.74 334.138C217.89 334.138 227.741 334.239 227.741 334.361Z" fill="#33535F"/>
<path d="M215.448 43.7672C215.17 40.804 216.783 37.7483 219.386 36.3056C221.989 34.863 225.436 35.1157 227.799 36.9225C228.388 37.3722 228.932 37.917 229.634 38.15C230.475 38.4285 231.388 38.2092 232.27 38.1132C235.636 37.7457 239.146 39.3879 241.021 42.2072C242.897 45.0265 243.055 48.897 241.415 51.8602C244.702 52.7228 247.458 55.3725 248.449 58.6219C249.441 61.8712 248.634 65.6088 246.389 68.1591C247.971 69.6343 248.733 71.9388 248.344 74.0667C247.954 76.1947 246.425 78.0794 244.422 78.8984C243.743 79.1759 242.976 79.3661 242.507 79.9306C241.2 81.5043 243.412 84.0341 242.48 85.8554C241.773 87.2372 239.598 87.4479 239.09 88.9154C238.725 89.9691 239.437 91.0673 239.578 92.1741C239.884 94.5771 237.455 96.4738 235.114 97.094C230.477 98.3216 225.382 96.6031 221.806 93.4069C218.23 90.2106 216.028 85.7148 214.768 81.0871C211.805 70.2169 213.665 58.687 215.543 47.5777" fill="#17282F"/>
<path d="M212.003 47.3044C210.676 46.3355 210.414 44.1999 211.469 42.9397C212.522 41.6787 214.669 41.557 215.859 42.6913C216.191 43.0065 216.503 43.4254 216.961 43.4563C217.396 43.4854 217.753 43.1453 218.116 42.902C219.056 42.2672 220.37 42.239 221.337 42.8318C222.304 43.4237 222.875 44.6068 222.737 45.7333C224.252 45.0848 226.352 45.2707 227.114 46.7296C227.793 48.0283 227.01 49.7245 225.75 50.4724C224.488 51.2194 222.924 51.2203 221.475 51.0104C218.02 50.5109 214.734 48.9115 212.21 46.5017" fill="#A51212"/>
<path d="M221.428 47.3713C221.466 47.4535 221.964 47.2625 222.328 46.7442C222.696 46.2285 222.71 45.6956 222.62 45.687C222.523 45.6682 222.37 46.1017 222.05 46.5471C221.736 46.9969 221.377 47.2865 221.428 47.3713Z" fill="white"/>
<path d="M216.051 46.9909C216.15 46.9755 216.087 46.2396 216.319 45.3855C216.539 44.5271 216.957 43.918 216.878 43.8563C216.817 43.7921 216.233 44.3575 215.989 45.2981C215.737 46.2362 215.965 47.0157 216.051 46.9909Z" fill="white"/>
<path d="M213.162 46.284C213.259 46.2549 213.066 45.5276 213.235 44.6504C213.389 43.7697 213.827 43.158 213.748 43.0964C213.691 43.027 213.075 43.6061 212.9 44.5878C212.715 45.5687 213.085 46.3286 213.162 46.284Z" fill="white"/>
<path d="M223.58 49.2192C223.59 49.2611 223.816 49.2577 224.149 49.1181C224.478 48.9827 224.908 48.6889 225.223 48.2254C225.537 47.7611 225.649 47.2523 225.652 46.8959C225.656 46.5352 225.577 46.3236 225.534 46.3305C225.435 46.3305 225.504 47.2077 224.94 48.0336C224.383 48.8645 223.543 49.1275 223.58 49.2192Z" fill="white"/>
<path d="M192.721 81.3218C190.479 80.6716 188.988 78.105 189.533 75.8348C186.856 74.1541 186.238 69.9589 188.317 67.5774C187.104 66.5374 186.608 64.7367 187.12 63.223C187.631 61.7092 189.116 60.5767 190.711 60.4859C190.028 58.7015 190.372 56.5641 191.579 55.0838C192.787 53.6043 194.813 52.8393 196.698 53.1511C196.396 51.239 197.323 49.189 198.959 48.1533C200.595 47.1176 202.846 47.1544 204.445 48.245C206.893 44.9314 212.522 44.7292 215.202 47.8603C218.318 45.9594 222.952 47.3806 224.467 50.701C226.5 48.8061 230.049 49.4837 231.898 51.5603C233.746 53.636 234.185 56.6318 233.962 59.4031C235.432 60.0756 236.489 61.5773 236.626 63.1887C236.763 64.8001 235.975 66.4577 234.641 67.3701C237.212 70.5586 236.512 75.852 233.201 78.2643C233.731 81.8075 231.866 85.5863 228.731 87.3219" fill="#17282F"/>
<path d="M225.533 65.2789L226.689 61.9705L206.176 58.692C199.867 58.2123 193.252 64.7153 193.04 71.0392C192.805 78.0656 192.795 86.652 193.779 91.8596C195.761 102.332 203.864 103.433 203.864 103.433L204.496 119.956L227.334 110.341L225.533 65.2789Z" fill="#C96752"/>
<path d="M195.792 77.3803C195.788 78.0939 196.389 78.6858 197.134 78.7038C197.878 78.7218 198.484 78.1589 198.489 77.4462C198.492 76.7326 197.892 76.1398 197.149 76.1218C196.404 76.1038 195.797 76.6675 195.792 77.3803Z" fill="#17282F"/>
<path d="M195.397 75.4434C195.569 75.6147 196.569 74.8275 198.022 74.7889C199.471 74.729 200.559 75.4443 200.711 75.2618C200.786 75.1813 200.606 74.8686 200.133 74.5448C199.667 74.2218 198.878 73.9168 197.973 73.9477C197.068 73.9794 196.317 74.3349 195.89 74.6887C195.454 75.0442 195.312 75.3672 195.397 75.4434Z" fill="#17282F"/>
<path d="M209.691 77.3803C209.687 78.0939 210.288 78.6858 211.032 78.7038C211.776 78.7218 212.383 78.1589 212.387 77.4462C212.392 76.7326 211.791 76.1398 211.048 76.1218C210.303 76.1038 209.696 76.6675 209.691 77.3803Z" fill="#17282F"/>
<path d="M209.999 75.2634C210.172 75.4339 211.172 74.6475 212.625 74.6081C214.074 74.549 215.161 75.2635 215.314 75.0818C215.388 75.0005 215.211 74.6886 214.735 74.3639C214.268 74.041 213.48 73.7369 212.576 73.7668C211.671 73.7994 210.92 74.1541 210.492 74.5079C210.057 74.8634 209.914 75.1863 209.999 75.2634Z" fill="#17282F"/>
<path d="M204.725 86.217C204.73 86.1339 203.822 86.0054 202.354 85.8615C201.983 85.8341 201.63 85.7706 201.56 85.5196C201.464 85.2541 201.608 84.8497 201.775 84.4128C202.096 83.5056 202.434 82.5547 202.788 81.5575C204.193 77.4927 205.197 74.1551 205.033 74.1003C204.869 74.0446 203.597 77.2948 202.193 81.3597C201.856 82.3611 201.533 83.3163 201.227 84.2304C201.098 84.6561 200.871 85.141 201.077 85.691C201.185 85.9651 201.463 86.1587 201.703 86.2153C201.943 86.2804 202.151 86.2787 202.335 86.2847C203.81 86.3206 204.723 86.3001 204.725 86.217Z" fill="#17282F"/>
<path d="M203.87 103.461C203.87 103.461 211.321 103.677 218.208 99.2545C218.208 99.2545 214.872 106.727 203.953 106.084L203.87 103.461Z" fill="#99483A"/>
<path d="M210.504 67.6382C210.583 68.0511 212.044 68.0983 213.694 68.5737C215.353 69.0166 216.629 69.7285 216.909 69.4149C217.036 69.2642 216.859 68.859 216.372 68.3921C216.005 67.9012 215.341 67.3684 214.088 67.1525C213.096 66.8784 212.146 66.8886 211.492 67.0385C210.835 67.1876 210.474 67.4438 210.504 67.6382Z" fill="#17282F"/>
<path d="M195.434 70.8704C195.715 71.1788 196.685 70.7599 197.885 70.6511C199.079 70.4995 200.117 70.6999 200.324 70.3376C200.413 70.1619 200.228 69.845 199.76 69.5691C199.298 69.2916 198.547 69.0954 197.724 69.1845C196.902 69.2744 196.211 69.6282 195.82 69.9975C195.422 70.3684 195.309 70.7179 195.434 70.8704Z" fill="#17282F"/>
<path d="M215.038 58.5225C214.757 59.3474 214.452 60.2092 213.805 60.7926C213.159 61.3769 212.056 61.5542 211.444 60.9348C210.544 62.0288 208.556 61.8909 207.816 60.6821C206.82 61.6562 205.134 61.8232 203.965 61.0642C202.919 61.2921 201.874 61.5199 200.828 61.7478C199.692 61.9963 198.279 62.1487 197.581 61.2184C197.42 61.0034 197.3 60.7318 197.056 60.6187C196.809 60.5039 196.522 60.593 196.253 60.6282C195.353 60.7455 194.466 60.2255 193.899 59.5188C193.332 58.8103 193.026 57.9348 192.728 57.0781C192.272 55.7606 191.909 54.0601 192.983 53.1691C193.403 52.8205 193.959 52.6911 194.493 52.5738C195.582 52.333 196.711 52.0915 197.801 52.3245C199.146 52.6123 200.247 53.5898 201.07 54.6906C200.768 53.9993 201.272 53.1512 201.974 52.8736C202.676 52.596 203.481 52.7639 204.17 53.0732C205.164 53.5178 206.025 54.2511 206.624 55.16C208.374 55.1326 210.095 56.1881 210.867 57.76C211.646 57.2349 212.65 57.0541 213.564 57.2752C213.885 57.3531 214.219 57.497 214.38 57.7849C214.542 58.0727 214.424 58.5225 214.101 58.5884" fill="#17282F"/>
<path d="M204.884 59.1478C205.431 60.5433 204.947 62.2729 203.756 63.1818C202.563 64.0899 200.767 64.0985 199.566 63.2007C199.098 64.6433 197.45 65.5899 195.967 65.2695C196 67.0625 194.967 68.835 193.391 69.6899C193.78 70.5903 193.809 71.6423 193.466 72.5623C193.247 73.1517 192.854 73.7094 192.28 73.9681C191.6 74.2748 190.797 74.1103 190.111 73.8148C189.139 73.3959 188.242 72.6694 187.899 71.668C187.557 70.6665 187.931 69.3901 188.893 68.9489C187.981 68.1171 187.255 67.0805 186.787 65.9377C186.519 65.2841 186.338 64.5311 186.616 63.8826C186.895 63.2341 187.809 62.8452 188.343 63.3069C187.792 62.2866 187.883 60.9536 188.566 60.0164C189.248 59.0792 190.489 58.5841 191.629 58.7948C191.644 57.8216 192.264 56.8827 193.153 56.487C194.043 56.0903 195.155 56.2574 195.889 56.8982" fill="#17282F"/>
<path d="M217.464 57.9682C217.365 56.6934 218.586 55.6132 219.852 55.4384C221.119 55.2628 222.377 55.7588 223.524 56.3242C224.693 54.9124 226.804 54.3719 228.509 55.0478C230.207 55.7211 231.296 57.3539 232.696 58.5293C233.439 59.1521 234.303 59.6772 234.816 60.5005C235.328 61.3237 235.315 62.5933 234.479 63.0859C235.588 63.468 236.449 64.4883 236.641 65.6439C236.833 66.8004 236.346 68.0443 235.421 68.763C235.125 68.9926 234.769 69.1974 234.648 69.552C234.545 69.8476 234.637 70.1723 234.74 70.4669C235.235 71.8787 236.009 73.198 236.31 74.6638C236.61 76.1287 236.298 77.8728 235.046 78.6927C234.716 78.9094 234.309 79.0816 234.16 79.4474C234.063 79.6881 234.103 79.9605 234.17 80.2107C234.387 81.0357 234.863 81.7647 235.23 82.5348C235.597 83.305 235.861 84.1873 235.619 85.0055C235.379 85.8244 234.464 86.4815 233.666 86.1774C234.224 87.7888 234.188 89.7094 233.143 91.0561C232.096 92.4028 228.64 93.0119 226.592 91.7672L226.404 86.9467C226.674 86.0994 225.357 81.5805 225.905 80.6604C225.905 80.6604 227.349 83.7958 224.096 83.2724C223.038 83.5628 221.001 80.4549 220.862 79.3669C220.723 78.2789 221.408 77.1995 222.349 76.6358C220.501 75.2514 219.923 72.4287 221.078 70.4293C219.921 70.2639 218.943 69.2445 218.823 68.082C218.705 66.9195 219.458 65.7236 220.558 65.3286C217.557 64.6142 215.75 60.8209 217.084 58.0393" fill="#17282F"/>
<path d="M224.761 78.3399C224.905 78.2585 230.697 75.9044 231.125 82.0159C231.552 88.1273 225.329 87.2955 225.306 87.1216C225.283 86.9468 224.761 78.3399 224.761 78.3399Z" fill="#C96752"/>
<path d="M227.011 84.6758C227.036 84.6535 227.122 84.7426 227.308 84.812C227.489 84.8805 227.795 84.9148 228.105 84.7734C228.734 84.4907 229.206 83.4276 229.158 82.3242C229.136 81.7674 228.982 81.2448 228.755 80.8208C228.536 80.3864 228.225 80.0943 227.896 80.0592C227.567 80.0069 227.351 80.2177 227.288 80.395C227.219 80.5715 227.266 80.6905 227.233 80.7043C227.218 80.7205 227.095 80.6109 227.127 80.3547C227.144 80.2314 227.206 80.0823 227.34 79.9555C227.479 79.8253 227.691 79.7491 227.919 79.7585C228.392 79.7576 228.847 80.162 229.097 80.628C229.373 81.0949 229.559 81.68 229.585 82.3054C229.633 83.5398 229.082 84.7366 228.218 85.0536C227.795 85.1958 227.428 85.0913 227.232 84.9602C227.032 84.8223 226.99 84.6878 227.011 84.6758Z" fill="#99483A"/>
<path d="M208.919 88.2326C208.431 87.7674 207.71 87.5584 207.049 87.6895C206.386 87.8214 205.801 88.2908 205.527 88.9076C205.304 89.4156 205.292 90.0179 205.522 90.5225C205.844 91.2292 206.651 91.6807 207.422 91.5873C208.194 91.4931 208.868 90.8609 209.012 90.0976C209.156 89.3343 209.398 88.4296 208.714 88.0621" fill="#99483A"/>
<path d="M206.511 77.7076C206.557 77.7118 206.529 77.1019 206.816 76.0688C207.099 75.057 207.808 73.575 209.359 72.4493C210.127 71.8994 211.089 71.4385 212.19 71.2663C213.283 71.1027 214.513 71.16 215.673 71.6278C216.259 71.8428 216.82 72.1632 217.335 72.5633C217.855 72.9548 218.326 73.4388 218.71 73.9965C219.507 75.0965 219.942 76.498 219.931 77.9354C219.893 79.3721 219.41 80.759 218.577 81.8307C218.174 82.3756 217.687 82.8433 217.154 83.2177C216.625 83.5997 216.053 83.9004 215.461 84.0966C214.285 84.5232 213.055 84.5395 211.967 84.3382C210.872 84.1292 209.926 83.6348 209.177 83.06C207.666 81.8812 207.009 80.3761 206.761 79.3549C206.509 78.3132 206.557 77.705 206.511 77.7076C206.511 77.7076 206.415 78.3132 206.63 79.3849C206.844 80.4352 207.483 82.0029 209.027 83.2493C209.794 83.8584 210.77 84.3844 211.91 84.6149C213.042 84.8385 214.328 84.8325 215.564 84.3939C216.186 84.1925 216.788 83.8816 217.343 83.4832C217.905 83.0926 218.417 82.6043 218.844 82.0337C219.723 80.9106 220.233 79.4517 220.272 77.9406C220.285 76.4303 219.823 74.9551 218.984 73.8029C218.578 73.2186 218.081 72.7132 217.533 72.3037C216.992 71.8874 216.401 71.5558 215.786 71.334C214.565 70.8534 213.281 70.8028 212.142 70.9879C210.996 71.1789 210.001 71.6723 209.216 72.2549C207.628 73.4474 206.937 74.9928 206.688 76.0345C206.436 77.0993 206.511 77.7076 206.511 77.7076Z" fill="#33535F"/>
<path d="M189.466 77.4171C189.512 77.4214 189.485 76.8114 189.772 75.7792C190.055 74.7657 190.764 73.2845 192.315 72.1589C193.082 71.6089 194.044 71.148 195.145 70.9767C196.239 70.8114 197.468 70.8696 198.629 71.3365C199.214 71.5524 199.776 71.8719 200.29 72.272C200.811 72.6643 201.281 73.1483 201.666 73.706C202.462 74.8051 202.897 76.2075 202.886 77.645C202.848 79.0825 202.367 80.4686 201.532 81.5411C201.13 82.0851 200.642 82.5528 200.109 82.9272C199.581 83.3093 199.009 83.61 198.417 83.8053C197.241 84.2328 196.01 84.249 194.922 84.0469C193.827 83.8387 192.882 83.3453 192.133 82.7687C190.622 81.5908 189.964 80.0856 189.716 79.0645C189.464 78.0228 189.512 77.4145 189.466 77.4171C189.466 77.4171 189.37 78.0228 189.586 79.0945C189.8 80.1447 190.438 81.7116 191.983 82.958C192.749 83.5671 193.726 84.0948 194.865 84.3253C195.997 84.548 197.283 84.542 198.52 84.1034C199.141 83.9021 199.743 83.5911 200.299 83.1928C200.86 82.8021 201.373 82.3138 201.8 81.7433C202.678 80.6202 203.189 79.1604 203.228 77.651C203.24 76.1398 202.778 74.6646 201.939 73.5124C201.532 72.9282 201.036 72.4227 200.489 72.0141C199.948 71.5969 199.356 71.2654 198.741 71.0435C197.522 70.5629 196.237 70.5124 195.098 70.6966C193.952 70.8885 192.957 71.3819 192.172 71.9636C190.583 73.1569 189.892 74.7015 189.643 75.744C189.391 76.8089 189.466 77.4171 189.466 77.4171Z" fill="#33535F"/>
<path d="M219.996 76.5922C219.961 76.6761 221.047 77.2107 222.465 77.6639C223.883 78.1188 225.077 78.3149 225.097 78.2259C225.119 78.1316 223.972 77.7889 222.57 77.3383C221.166 76.8903 220.034 76.5022 219.996 76.5922Z" fill="#33535F"/>
<path d="M202.356 75.7663C202.388 75.8648 203.372 75.5033 204.604 75.6627C205.841 75.8006 206.71 76.384 206.766 76.2974C206.834 76.24 205.986 75.4776 204.646 75.3234C203.308 75.1555 202.303 75.6952 202.356 75.7663Z" fill="#33535F"/>
<path d="M215.568 82.9333C215.579 82.9701 216.022 82.887 216.651 82.5332C217.273 82.1863 218.068 81.5241 218.616 80.5552C219.163 79.5854 219.321 78.5634 219.297 77.8498C219.276 77.1294 219.119 76.707 219.081 76.7165C219.027 76.7267 219.096 77.1576 219.055 77.8455C219.018 78.5292 218.832 79.4792 218.319 80.3864C217.805 81.2945 217.087 81.9438 216.521 82.3293C215.954 82.7191 215.549 82.8819 215.568 82.9333Z" fill="white"/>
<path d="M198.704 82.4441C198.716 82.4818 199.13 82.3935 199.715 82.0509C200.296 81.7142 201.034 81.0845 201.549 80.1748C202.065 79.2658 202.228 78.3089 202.219 77.6373C202.213 76.9597 202.076 76.5596 202.038 76.5682C201.984 76.5759 202.033 76.9837 201.978 77.6279C201.926 78.2687 201.735 79.1553 201.252 80.0069C200.77 80.8575 200.106 81.4752 199.583 81.8487C199.058 82.2273 198.683 82.3944 198.704 82.4441Z" fill="white"/>
<path d="M209.435 86.3924C209.546 86.3847 209.709 86.8353 209.582 87.5788C209.462 88.307 208.975 89.3247 207.986 89.9955C206.995 90.6629 205.87 90.7348 205.149 90.5729C204.412 90.4153 204.055 90.0949 204.103 89.9947C204.155 89.8722 204.573 89.963 205.21 89.945C205.842 89.9338 206.719 89.7736 207.487 89.2562C208.254 88.7371 208.73 87.9824 208.976 87.4007C209.231 86.8164 209.303 86.3941 209.435 86.3924Z" fill="#17282F"/>
<path d="M224.467 50.7011C224.46 50.6899 224.57 50.6162 224.788 50.4843C225.011 50.3644 225.314 50.1262 225.781 49.9626C226.655 49.5737 228.178 49.1702 229.937 49.7724C231.685 50.3558 233.419 51.9398 234.54 54.1629C235.058 55.3005 235.44 56.5701 235.541 57.9622C235.582 58.6544 235.548 59.3825 235.329 60.0927C235.115 60.8003 234.708 61.4848 234.113 61.9919L234.046 61.6313C235.496 62.1359 236.745 63.3969 237.183 65.0074C237.62 66.6162 237.143 68.4769 235.916 69.726C235.822 69.827 235.714 69.9153 235.621 70.0027L235.561 69.6266C236.581 70.0386 237.295 70.951 237.65 71.907C238.019 72.8716 238.103 73.8954 238.011 74.8728C237.78 76.8457 236.902 78.5162 236.347 80.155C236.059 80.9749 235.843 81.7853 235.747 82.5965C235.643 83.4087 235.611 84.2148 235.517 84.9978C235.378 86.5732 234.75 88.0107 233.888 89.0412C232.145 91.1538 229.891 91.8648 228.432 91.9899C227.686 92.0499 227.104 91.995 226.719 91.9274C226.335 91.846 226.137 91.7963 226.14 91.7817C226.147 91.7175 226.953 91.9882 228.412 91.8186C229.832 91.6464 232.002 90.9002 233.643 88.8459C234.457 87.8325 235.029 86.4927 235.151 84.9567C235.235 84.1908 235.259 83.3847 235.36 82.5486C235.451 81.709 235.672 80.8558 235.96 80.0222C236.519 78.3517 237.37 76.6804 237.577 74.8308C237.661 73.9125 237.577 72.9479 237.236 72.0664C236.906 71.1874 236.276 70.3967 235.392 70.0395L235.074 69.9101L235.331 69.6634C235.415 69.5837 235.513 69.5041 235.599 69.4124C236.712 68.2833 237.152 66.5717 236.757 65.1214C236.367 63.6607 235.22 62.4922 233.908 62.0305L233.557 61.9071L233.841 61.669C234.924 60.7592 235.237 59.2883 235.146 57.9853C235.063 56.6643 234.699 55.4067 234.216 54.3179C233.161 52.1642 231.502 50.6051 229.849 50.02C228.184 49.4101 226.711 49.7502 225.834 50.0937C225.368 50.2325 225.056 50.4483 224.823 50.5469C224.596 50.6582 224.474 50.7113 224.467 50.7011Z" fill="#33535F"/>
<path d="M226.292 49.4109C226.305 49.3937 226.546 49.5343 226.894 49.8949C227.232 50.2581 227.668 50.8655 227.941 51.7282C228.215 52.5806 228.321 53.7131 227.927 54.8679C227.546 56.021 226.618 57.1046 225.367 57.7266C224.526 58.1575 223.593 58.3185 222.745 58.2603L222.925 58.1832C221.514 59.8211 219.597 60.3505 218.335 60.378C217.691 60.3977 217.18 60.318 216.841 60.2323C216.503 60.1424 216.33 60.0653 216.336 60.0439C216.35 59.9719 217.082 60.2152 218.317 60.1064C219.524 60.0079 221.309 59.4425 222.595 57.9082L222.665 57.826L222.776 57.8311C223.547 57.8731 224.396 57.7231 225.168 57.3274C226.317 56.756 227.172 55.7734 227.54 54.7317C227.92 53.6865 227.859 52.6311 227.638 51.8164C227.178 50.1485 226.213 49.4674 226.292 49.4109Z" fill="#33535F"/>
<path d="M231.189 50.3302C231.201 50.3208 231.261 50.3841 231.366 50.5144C231.475 50.6411 231.61 50.8459 231.769 51.12C232.083 51.6692 232.432 52.5438 232.541 53.6858C232.637 54.8166 232.474 56.2343 231.73 57.5767C231.003 58.9277 229.617 60.0679 227.941 60.6085C226.527 61.0651 225.033 61.0428 223.79 60.6299L224.042 60.5271C223.439 61.6459 222.46 62.4015 221.493 62.7707C220.516 63.1485 219.563 63.1322 218.833 62.9772C218.094 62.8195 217.563 62.5274 217.231 62.3013C216.898 62.0708 216.751 61.9063 216.765 61.8909C216.8 61.8215 217.46 62.4683 218.881 62.721C219.581 62.8333 220.467 62.8135 221.36 62.44C222.247 62.0742 223.134 61.3555 223.669 60.3318L223.751 60.1759L223.921 60.2298C225.081 60.5982 226.476 60.6119 227.805 60.1836C229.378 59.6747 230.676 58.6219 231.372 57.3746C232.088 56.1298 232.279 54.7917 232.226 53.7072C232.088 51.4893 231.086 50.3679 231.189 50.3302Z" fill="#33535F"/>
<path d="M158.719 203.115C158.719 203.115 127.119 209.25 120.17 211.17C109.978 213.988 105.499 218.074 105.499 224.979C105.499 231.883 139.803 311.122 139.803 311.122L153.765 309.796L133.403 237.636L173.862 236.119L158.719 203.115Z" fill="#C96752"/>
<path d="M159.294 214.911C159.294 214.911 121.321 216.06 114.129 221.815C106.937 227.568 109.814 234.473 112.115 242.527C114.417 250.581 145.966 316.883 145.966 316.883L159.304 314.035C159.304 314.035 153.146 268.507 150.269 260.165C147.393 251.823 138.853 241.179 138.853 241.179C138.853 241.179 169.363 245.116 175.115 243.678C180.87 242.239 159.294 214.911 159.294 214.911Z" fill="#C96752"/>
<path d="M145.325 315.719C145.318 315.723 145.26 315.615 145.155 315.404C145.043 315.173 144.891 314.861 144.698 314.462C144.294 313.607 143.716 312.381 142.977 310.815C141.49 307.619 139.357 303.032 136.725 297.372C131.477 285.985 124.242 270.287 116.251 252.948C114.233 248.549 112.262 244.254 110.362 240.116L110.356 240.101L110.352 240.086C109.789 238.196 109.339 236.297 109.068 234.403C108.798 232.507 108.701 230.633 108.696 228.796C108.71 226.95 108.976 225.132 109.587 223.462C110.191 221.797 111.187 220.288 112.524 219.231C113.861 218.171 115.436 217.583 116.965 217.217C118.501 216.849 120.016 216.684 121.461 216.501C124.355 216.139 127.029 215.735 129.463 215.388C134.331 214.673 138.256 214.28 140.962 214.175C142.315 214.112 143.363 214.104 144.07 214.112C144.408 214.118 144.674 214.123 144.874 214.128C145.055 214.133 145.147 214.139 145.147 214.146C145.146 214.152 145.055 214.16 144.874 214.168C144.674 214.173 144.409 214.181 144.071 214.191C143.365 214.208 142.319 214.242 140.971 214.328C138.273 214.481 134.363 214.917 129.505 215.668C127.074 216.033 124.402 216.456 121.504 216.836C120.055 217.026 118.555 217.199 117.049 217.566C115.552 217.933 114.032 218.514 112.761 219.528C111.491 220.542 110.542 221.985 109.962 223.599C109.376 225.216 109.119 226.991 109.112 228.797C109.121 230.613 109.22 232.475 109.491 234.342C109.762 236.211 110.21 238.086 110.771 239.961L110.76 239.933C112.662 244.071 114.634 248.364 116.657 252.763C124.601 270.122 131.794 285.839 137.012 297.24C139.59 302.925 141.679 307.533 143.134 310.743C143.842 312.325 144.393 313.56 144.779 314.424C144.955 314.831 145.093 315.149 145.197 315.386C145.289 315.603 145.332 315.717 145.325 315.719Z" fill="#99483A"/>
<path d="M129.859 232.709C129.893 232.66 130.506 233.01 131.438 233.667C132.369 234.324 133.609 235.3 134.883 236.488C136.155 237.677 137.215 238.847 137.933 239.731C138.654 240.616 139.044 241.204 138.998 241.24C138.894 241.324 137.104 239.162 134.578 236.814C132.064 234.456 129.782 232.818 129.859 232.709Z" fill="#99483A"/>
<path d="M139.442 310.139L139.803 311.122C139.803 311.122 125.656 323.985 126.652 327.206L159.612 314.758L155.02 303.96C150.979 308.08 145.947 310.272 139.442 310.139Z" fill="#A51212"/>
<path d="M153.237 311.426C152.559 311.426 151.78 310.823 151.765 310.156C151.749 309.487 152.376 308.714 153.038 308.714C153.073 308.714 153.109 308.717 153.144 308.721C153.802 308.732 154.429 309.256 154.519 309.911C154.614 310.612 154.06 311.34 153.358 311.419C153.318 311.424 153.278 311.426 153.237 311.426Z" fill="#CB1D1D"/>
<path d="M126.652 327.206C126.281 326.559 126.702 325.813 127.025 325.388C126.665 326.137 126.515 326.763 126.652 327.206L138.769 322.63L126.652 327.206Z" fill="white"/>
<path d="M126.652 327.206C126.515 326.763 126.665 326.137 127.024 325.388C127.185 325.175 127.322 325.042 127.322 325.042L142.743 318.673C141.641 319.728 140.215 321.124 138.768 322.63L126.652 327.206Z" fill="#CB1D1D"/>
<path d="M139.722 311.257C139.788 311.417 140.621 311.186 141.607 311.404C142.6 311.597 143.272 312.14 143.396 312.02C143.532 311.933 142.929 311.061 141.73 310.818C140.531 310.564 139.631 311.123 139.722 311.257Z" fill="#17282F"/>
<path d="M136.805 313.993C136.827 314.163 137.628 314.174 138.431 314.648C139.249 315.098 139.666 315.783 139.822 315.715C139.983 315.683 139.738 314.698 138.728 314.127C137.724 313.549 136.75 313.838 136.805 313.993Z" fill="#17282F"/>
<path d="M136.404 318.872C136.564 318.852 136.484 317.963 135.738 317.237C134.996 316.506 134.106 316.446 134.089 316.606C134.048 316.772 134.715 317.061 135.319 317.666C135.936 318.255 136.239 318.917 136.404 318.872Z" fill="#17282F"/>
<path d="M235.685 227.349C234.954 229.208 236.729 225.366 235.685 227.349V227.349Z" fill="#F2575D"/>
<path d="M236.534 201.965C236.534 201.965 241.513 138.586 240.024 124.463C238.993 114.673 227.006 107.047 227.006 107.047L204.172 111.44C204.172 111.44 188.772 133.025 185.598 143.714C184.746 146.584 184.259 156.55 184.03 159.877C183.135 172.811 179.962 185.607 179.291 193.633C179.036 196.68 176.714 199.152 173.695 199.647L155.249 202.674C148.686 198.08 138.006 202.828 136.999 206.743C135.991 210.657 146.924 214.911 146.924 214.911C146.924 214.911 152.677 220.088 156.705 232.171C160.732 244.253 175.115 243.678 175.115 243.678L208.632 243.681C219.982 243.682 230.402 237.394 235.686 227.349C239.425 217.856 236.534 201.965 236.534 201.965Z" fill="#CB1D1D"/>
<path d="M215.837 206.765C214.757 206.765 213.681 206.615 212.649 206.29C211.34 205.878 210.101 205.19 208.735 205.038C208.494 205.011 208.252 204.999 208.008 204.999C207.121 204.999 206.217 205.155 205.312 205.31C204.407 205.466 203.503 205.622 202.616 205.622C202.416 205.622 202.216 205.613 202.018 205.596L201.884 205.207C203.258 203.687 204.647 202.153 206.324 200.976C207.584 200.091 209.033 199.414 210.544 199.184C210.997 199.912 211.469 200.497 211.956 200.868C211.999 200.969 212.041 201.071 212.084 201.173L212.104 201.222L212.145 201.256C212.567 201.618 212.999 201.981 213.462 202.316C214.065 202.755 214.744 203.135 215.497 203.314C215.773 203.381 216.057 203.411 216.341 203.411C216.828 203.411 217.314 203.323 217.751 203.191C219.161 202.827 220.538 202.364 221.848 201.78C224.472 200.623 226.866 199.025 228.767 197.012C232.562 193.073 234.19 187.422 232.94 182.64C233.13 182.547 233.31 182.442 233.482 182.327C233.938 182.624 234.326 183.055 234.579 183.534C235.444 185.17 234.842 188.721 234.339 190.503C232.929 195.499 230.385 198.529 226.535 202.011C224.655 203.712 222.514 205.169 220.121 206.011C218.75 206.494 217.289 206.765 215.837 206.765Z" fill="#A51212"/>
<path d="M174.166 184.558C174.166 184.558 172.767 182.559 172.613 180.851C172.457 179.144 184.091 158.929 184.091 158.929C184.091 158.929 182.175 181.627 182.904 182.093C183.634 182.559 180.122 185.191 180.122 185.191L174.166 184.558Z" fill="#CB1D1D"/>
<path d="M184.376 154.44C184.392 154.44 184.403 154.598 184.412 154.899C184.416 155.251 184.422 155.687 184.428 156.218C184.45 157.363 184.375 159.021 184.231 161.062C183.942 165.15 183.099 170.752 181.978 176.887C181.433 179.959 180.914 182.884 180.508 185.553C180.123 188.223 179.806 190.634 179.667 192.67C179.57 193.685 179.529 194.608 179.499 195.417C179.454 196.226 179.432 196.924 179.442 197.495C179.435 198.024 179.43 198.459 179.425 198.81C179.417 199.111 179.404 199.27 179.389 199.271C179.374 199.271 179.356 199.114 179.335 198.814C179.317 198.463 179.295 198.027 179.268 197.497C179.232 196.924 179.228 196.223 179.25 195.41C179.255 194.597 179.274 193.67 179.352 192.648C179.452 190.6 179.738 188.176 180.102 185.494C180.486 182.813 180.994 179.882 181.539 176.81C182.659 170.673 183.548 165.102 183.918 161.036C184.101 159.004 184.223 157.355 184.254 156.214C184.283 155.684 184.304 155.25 184.322 154.899C184.343 154.598 184.36 154.44 184.376 154.44Z" fill="#17282F"/>
<path d="M205.847 185.161C205.847 185.161 208.71 199.119 212.289 201.087C212.289 201.087 214.232 204.513 219.961 202.29C222.267 201.396 225.606 199.887 229.032 196.404C234.501 190.847 232.703 182.53 232.703 182.53C232.703 182.53 234.477 181.762 234.834 179.435C235.192 177.11 234.834 176.002 234.834 176.002C234.834 176.002 237.876 173.531 237.698 170.489C237.519 167.447 236.982 166.552 236.982 166.552L240.024 142.217C240.024 142.217 239.666 128.977 235.909 122.714C232.15 116.451 227.678 116.451 224.099 116.988C220.52 117.525 212.11 124.145 211.394 154.564L210.321 178.005L211.216 181.404C211.216 181.404 204.956 181.409 205.847 185.161Z" fill="#CB1D1D"/>
<path d="M239.003 141.684C239.003 141.684 238.999 141.904 238.961 142.325C238.918 142.768 238.859 143.388 238.783 144.189C238.623 145.844 238.392 148.236 238.098 151.276C237.825 154.334 237.491 158.054 237.296 162.335C237.205 164.479 237.157 166.752 237.389 169.152C237.477 170.354 237.539 171.621 237.257 172.898C236.972 174.15 236.322 175.441 235.136 176.21L235.202 175.964C236.385 178.223 235.394 181.552 232.782 182.714L232.897 182.475C234.227 187.292 232.605 193.027 228.767 197.012C226.866 199.025 224.472 200.623 221.848 201.78C220.537 202.364 219.161 202.826 217.751 203.191C217.059 203.4 216.247 203.496 215.497 203.314C214.744 203.135 214.065 202.755 213.462 202.316C212.999 201.981 212.567 201.618 212.145 201.256L212.104 201.222L212.084 201.173C209.95 196.063 207.874 191.093 205.886 186.331L205.875 186.303L205.871 186.273C205.779 185.468 205.72 184.608 206.012 183.79C206.316 182.972 206.938 182.365 207.602 181.904C208.958 180.98 210.694 180.727 212.213 181.179L212.04 181.553C210.45 180.491 209.841 178.581 209.741 176.887C209.646 175.156 209.817 173.502 209.914 171.874C210.153 168.626 210.454 165.539 210.753 162.627C211.363 156.806 211.988 151.692 212.57 147.463C213.148 143.235 213.686 139.893 214.109 137.614C214.329 136.477 214.501 135.601 214.646 135.016C214.712 134.737 214.765 134.518 214.804 134.352C214.841 134.203 214.864 134.128 214.87 134.129C214.875 134.13 214.865 134.208 214.839 134.359C214.807 134.529 214.767 134.748 214.714 135.031C214.59 135.62 214.441 136.498 214.243 137.638C213.862 139.921 213.365 143.267 212.822 147.497C212.277 151.727 211.684 156.842 211.102 162.662C210.817 165.573 210.528 168.66 210.301 171.902C210.209 173.518 210.045 175.191 210.144 176.859C210.202 177.69 210.362 178.522 210.705 179.288C211.043 180.05 211.565 180.748 212.267 181.204L213.467 181.985L212.093 181.579C210.699 181.165 209.086 181.402 207.843 182.256C207.228 182.683 206.668 183.244 206.415 183.937C206.163 184.637 206.208 185.433 206.302 186.222L206.287 186.164C208.278 190.924 210.358 195.893 212.495 201L212.434 200.918C212.855 201.277 213.278 201.633 213.723 201.954C214.302 202.376 214.928 202.719 215.596 202.879C216.274 203.037 216.948 202.964 217.639 202.76C219.028 202.402 220.382 201.948 221.669 201.374C224.248 200.239 226.592 198.675 228.452 196.713C232.202 192.833 233.785 187.243 232.509 182.582L232.463 182.414L232.624 182.344C235.001 181.315 235.952 178.188 234.867 176.138L234.787 175.985L234.934 175.892C236.006 175.206 236.629 174.008 236.905 172.817C237.178 171.609 237.129 170.371 237.045 169.177C236.824 166.77 236.884 164.461 236.99 162.321C237.213 158.03 237.577 154.311 237.881 151.255C238.194 148.199 238.472 145.806 238.669 144.176C238.769 143.379 238.847 142.759 238.903 142.319C238.959 141.899 239.003 141.684 239.003 141.684Z" fill="#17282F"/>
<path d="M239.004 124.962C238.957 124.964 238.96 124.517 238.772 123.746C238.579 122.976 238.135 121.904 237.361 120.716C236.567 119.558 235.473 118.193 233.9 117.227C232.281 116.373 230.161 115.983 228.044 116.307C226.983 116.473 225.969 116.775 225.025 117.156C224.076 117.543 223.201 117.979 222.462 118.542C220.973 119.664 219.951 121.052 219.168 122.235C218.384 123.428 217.827 124.447 217.421 125.139C217.02 125.835 216.784 126.213 216.758 126.198C216.73 126.183 216.914 125.779 217.268 125.057C217.626 124.339 218.143 123.295 218.902 122.066C219.661 120.847 220.675 119.404 222.214 118.214C222.98 117.615 223.899 117.148 224.859 116.751C225.827 116.354 226.874 116.037 227.978 115.866C230.196 115.533 232.386 115.937 234.107 116.873C235.769 117.924 236.841 119.334 237.625 120.545C238.385 121.785 238.796 122.906 238.941 123.707C239.001 124.111 239.042 124.422 239.029 124.637C239.027 124.852 239.018 124.962 239.004 124.962Z" fill="#17282F"/>
<path d="M223.554 192.268C222.51 192.268 221.588 191.3 220.965 190.384C219.718 188.553 219.074 186.348 217.24 185.104C215.432 183.876 213.475 182.395 212.61 181.731L213.467 181.985L212.695 181.483C214.172 181.771 218.287 182.614 220.077 183.396C222.278 184.355 224.107 185.524 225.08 188.398C225.321 189.11 225.532 189.864 225.38 190.601C225.229 191.337 224.703 192.028 223.976 192.215C223.833 192.251 223.693 192.268 223.554 192.268Z" fill="#A51212"/>
<path d="M213.466 181.985L212.61 181.731C212.321 181.51 212.154 181.379 212.154 181.379C212.154 181.379 212.355 181.416 212.695 181.483L213.466 181.985Z" fill="#0F191D"/>
<path d="M220.573 189.606C220.448 189.682 219.204 187.245 216.79 184.977C214.399 182.685 211.901 181.57 211.97 181.442C211.991 181.394 212.642 181.606 213.616 182.123C214.59 182.639 215.871 183.492 217.097 184.653C218.321 185.818 219.24 187.053 219.805 187.998C220.373 188.944 220.621 189.582 220.573 189.606Z" fill="#17282F"/>
<path d="M224.107 186.607C224.032 186.646 223.779 185.847 222.797 185.05C221.829 184.234 220.175 183.594 218.296 183.044C216.422 182.476 214.691 182.091 213.431 181.842C212.17 181.592 211.382 181.462 211.389 181.397C211.396 181.339 212.198 181.359 213.483 181.531C214.766 181.702 216.529 182.043 218.424 182.618C220.31 183.168 222.03 183.882 223.003 184.812C223.997 185.73 224.149 186.612 224.107 186.607Z" fill="#17282F"/>
<path d="M235.296 175.868C235.323 175.912 234.903 176.247 234.137 176.65C233.377 177.054 232.235 177.503 230.911 177.664C229.589 177.826 228.406 177.767 227.555 177.766C226.705 177.754 226.176 177.745 226.17 177.681C226.165 177.623 226.689 177.519 227.546 177.45C228.4 177.372 229.585 177.378 230.854 177.222C233.403 176.903 235.223 175.71 235.296 175.868Z" fill="#17282F"/>
<path d="M203.403 208.162C203.403 208.176 203.216 208.205 202.857 208.243C202.453 208.281 201.932 208.331 201.288 208.391C199.87 208.51 197.912 208.672 195.517 208.871C190.641 209.259 183.913 209.879 176.454 210.293C168.993 210.708 162.223 210.662 157.332 210.507C154.886 210.419 152.909 210.334 151.543 210.243C150.898 210.2 150.377 210.165 149.971 210.136C149.612 210.107 149.424 210.084 149.425 210.069C149.425 210.054 149.615 210.047 149.976 210.047C150.382 210.053 150.904 210.06 151.55 210.069C152.973 210.099 154.937 210.141 157.339 210.191C162.227 210.266 168.982 210.262 176.431 209.848C183.877 209.435 190.611 208.864 195.493 208.557C197.934 208.398 199.911 208.28 201.276 208.218C201.922 208.192 202.445 208.17 202.851 208.153C203.212 208.144 203.402 208.146 203.403 208.162Z" fill="#17282F"/>
<path d="M175.096 182.249C174.852 182.645 165.427 207.148 165.427 207.148L170.91 209.362C170.91 209.362 179.204 203.502 179.323 199.86C179.442 196.219 180.403 180.544 180.403 180.544C180.403 180.544 177.579 178.212 175.096 182.249Z" fill="#C96752"/>
<path d="M206.086 186.248L172.161 203.191C172.161 203.191 171.305 202.161 166.647 201.546C161.545 200.873 153.519 210.19 153.519 210.19C153.519 210.19 180.684 210.966 191.24 208.792C201.796 206.62 212.289 201.087 212.289 201.087L206.086 186.248Z" fill="#C96752"/>
<path d="M206.011 186.607C206.02 186.619 205.844 186.731 205.505 186.932C205.166 187.137 204.652 187.404 203.992 187.758C202.668 188.452 200.736 189.43 198.337 190.61C193.541 192.975 186.886 196.177 179.502 199.645C177.651 200.504 175.844 201.344 174.099 202.154C173.66 202.353 173.224 202.549 172.793 202.743C172.27 203.032 171.785 202.924 171.311 202.874C170.363 202.731 169.502 202.404 168.665 202.15C167.829 201.894 167.009 201.691 166.197 201.747C165.38 201.779 164.593 201.933 163.86 202.173C162.39 202.655 161.135 203.415 160.056 204.181C157.908 205.746 156.372 207.283 155.348 208.361C154.835 208.902 154.452 209.337 154.192 209.632C153.931 209.926 153.792 210.079 153.778 210.069C153.767 210.06 153.883 209.887 154.123 209.574C154.361 209.261 154.724 208.806 155.219 208.243C156.212 207.123 157.719 205.546 159.87 203.925C160.954 203.132 162.226 202.337 163.744 201.821C164.502 201.565 165.324 201.395 166.18 201.356C167.05 201.289 167.936 201.503 168.785 201.756C169.638 202.012 170.485 202.323 171.372 202.452C171.804 202.506 172.301 202.573 172.619 202.348C173.047 202.152 173.48 201.956 173.917 201.756C175.66 200.943 177.464 200.103 179.312 199.241C193.623 192.468 203.851 187.629 206.011 186.607Z" fill="#99483A"/>
<path d="M144.466 315.779L144.815 316.728C144.815 316.728 131.141 329.161 132.104 332.275L163.962 320.243L159.524 309.805C155.617 313.788 150.753 315.907 144.466 315.779Z" fill="#A51212"/>
<path d="M157.799 317.022C157.144 317.022 156.391 316.44 156.376 315.795C156.362 315.148 156.967 314.401 157.607 314.401C157.642 314.401 157.677 314.404 157.711 314.408C158.346 314.42 158.952 314.926 159.039 315.558C159.131 316.235 158.595 316.939 157.916 317.015C157.877 317.02 157.839 317.022 157.799 317.022Z" fill="#CB1D1D"/>
<path d="M132.104 332.275C131.746 331.649 132.152 330.928 132.463 330.517C132.116 331.242 131.972 331.847 132.104 332.275L156.376 323.108L132.104 332.275Z" fill="white"/>
<path d="M132.104 332.275C131.972 331.847 132.116 331.242 132.464 330.517C132.619 330.312 132.751 330.183 132.751 330.183L162.894 317.732L163.962 320.243L161.503 321.172L156.376 323.108L132.104 332.275Z" fill="#CB1D1D"/>
<path d="M144.737 316.86C144.801 317.013 145.606 316.79 146.559 317.002C147.519 317.187 148.168 317.713 148.289 317.596C148.42 317.511 147.837 316.669 146.677 316.434C145.52 316.189 144.65 316.729 144.737 316.86Z" fill="#17282F"/>
<path d="M141.917 319.503C141.939 319.668 142.713 319.678 143.489 320.136C144.28 320.572 144.681 321.233 144.834 321.167C144.989 321.137 144.753 320.185 143.776 319.633C142.805 319.074 141.865 319.354 141.917 319.503Z" fill="#17282F"/>
<path d="M141.53 324.219C141.684 324.199 141.607 323.34 140.885 322.639C140.169 321.932 139.309 321.874 139.292 322.029C139.253 322.189 139.898 322.467 140.481 323.052C141.077 323.623 141.37 324.262 141.53 324.219Z" fill="#17282F"/>
</svg>
