<svg width="125" height="200" viewBox="0 0 125 200" fill="none" xmlns="http://www.w3.org/2000/svg">
<path d="M52.9558 182.938C52.0036 183.889 51.0514 184.842 50.0993 185.794C49.7991 186.094 49.3547 186.278 48.9302 186.278C48.5249 186.278 48.0402 186.099 47.7612 185.794C47.4722 185.48 47.258 185.066 47.2772 184.625C47.297 184.187 47.4451 183.773 47.7612 183.456C48.714 182.505 49.6655 181.552 50.6183 180.6C50.9179 180.3 51.3635 180.116 51.7867 180.116C52.1927 180.116 52.6768 180.296 52.9558 180.6C53.2447 180.915 53.4603 181.328 53.4398 181.769C53.4206 182.208 53.2719 182.622 52.9558 182.938Z" fill="#FAFAF9"/>
<path d="M42.5884 139.887C42.5884 139.981 44.0213 140.059 45.7874 140.059C47.5549 140.059 48.9865 139.981 48.9865 139.887C48.9865 139.791 47.5549 139.714 45.7874 139.714C44.0213 139.714 42.5884 139.791 42.5884 139.887Z" fill="#33535F"/>
<path d="M20.2349 66.1961C21.3695 62.7643 19.3224 50.4615 22.0169 50.4383C25.452 50.4092 24.4647 64.3473 24.472 65.5937C24.4786 66.8051 26.2811 66.8256 26.2137 65.7021C26.1178 64.0874 25.5809 48.1829 29.0193 48.4619C30.9249 48.6166 30.6849 52.0888 30.6849 52.0888C30.6849 52.0888 29.619 67.9959 31.2476 68.0733C32.9014 68.152 33.4548 58.8716 33.589 55.6072C33.7173 52.4762 35.0351 51.2325 36.4733 52.2832C38.008 53.4046 37.6272 62.7537 37.5472 65.8912C37.4678 69.0281 37.0962 77.6353 40.727 73.4517C44.3585 69.2681 48.6895 67.3823 50.1951 67.6772C51.7007 67.9735 51.7827 70.1892 50.2282 70.9113C48.9705 71.4951 47.1627 73.1099 45.8515 74.3788C44.7704 75.4235 43.9987 76.7149 43.1821 77.9732C42.5989 78.8718 41.615 80.6723 40.9948 83.2472C40.276 86.2267 38.2851 88.7439 35.5793 90.1828L35.7499 96.0115L18.9838 94.5542L18.6625 83.5255C18.4919 75.0969 17.0167 69.4268 16.128 64.4134C14.709 56.4178 15.7398 56.1712 16.6986 56.2175C18.8139 56.3186 19.128 69.5439 20.2349 66.1961Z" fill="#C0776A"/>
<path d="M20.2362 77.017C20.2289 77.0937 21.1646 77.0858 22.5393 77.5903C23.8988 78.0796 25.69 79.1977 26.8901 81.0736C27.2155 81.5742 27.4581 82.1038 27.6611 82.6189L27.761 82.8735L27.966 82.7023C29.3552 81.5378 30.796 80.8257 31.852 80.4204C32.9106 80.0124 33.5838 79.8682 33.5719 79.8133C33.5666 79.7756 32.8723 79.8352 31.7687 80.1863C30.6704 80.5341 29.1648 81.2198 27.7193 82.4054L28.0242 82.4887C27.8179 81.9445 27.5639 81.3864 27.2234 80.8607C26.5979 79.8841 25.7971 79.1012 24.9898 78.5147C24.1745 77.9335 23.3473 77.5566 22.6305 77.3265C21.9137 77.0878 21.3015 77.0296 20.8869 76.9892C20.467 76.9787 20.2369 76.9906 20.2362 77.017Z" fill="#B85549"/>
<path d="M22.5671 88.8034C22.5274 88.894 24.2982 89.6538 26.6383 89.9394C28.9778 90.2383 30.8808 89.9374 30.8649 89.8402C30.8556 89.7206 28.9751 89.8409 26.6872 89.548C24.3987 89.2696 22.6048 88.6904 22.5671 88.8034Z" fill="#B85549"/>
<path d="M67.5616 89.3053C67.5616 89.3053 58.8248 93.7686 54.2266 100.198C49.6285 106.629 35.7532 126.555 35.7532 126.555L37.7138 96.3097L16.2781 93.5332C16.2781 93.5332 10.0394 123.996 8.58073 134.528C7.21661 144.388 7.78659 154.086 17.4121 159.377C28.7733 165.622 41.6732 157.191 45.9626 153.99C51.2908 150.013 61.1299 143.533 61.1299 143.533L67.5616 89.3053Z" fill="#F5F5F5"/>
<path d="M78.3311 85.5336L84.4461 78.6999L111.183 76.6487L114.649 82.25L105.277 140.734L109.497 199.804H74.6619L78.3311 85.5336Z" fill="#F03D5F"/>
<path d="M74.6619 199.804L75.2332 182.012C75.1657 182.01 75.0983 182.009 75.0308 182.008L74.6619 199.804Z" fill="#A7A9A8"/>
<path d="M74.662 199.804L79.3481 197.612C79.6126 195.591 79.9524 193.176 81.7973 192.31C82.278 192.085 82.7964 192.003 83.3267 192.003C83.9476 192.003 84.585 192.115 85.1953 192.236C88.6721 192.923 92.125 193.821 95.6619 194.041C96.1585 194.072 96.6584 194.088 97.1596 194.088C100.224 194.088 103.318 193.473 105.871 191.813C106.89 191.15 107.834 190.293 108.313 189.175C108.791 188.057 108.713 186.643 107.881 185.755C106.962 184.773 105.454 183.423 104.11 183.393C94.5544 183.183 84.7926 182.232 75.2333 182.012L74.662 199.804Z" fill="#BA2C42"/>
<path d="M84.4462 78.6999L67.3204 89.784L63.7021 101.674L60.234 138.737L64.0526 176.676L57.4542 199.804H74.662L74.697 190.679L76.5293 126.449L78.3311 85.5336L84.4462 78.6999Z" fill="#F5F5F5"/>
<path d="M75.2266 135.305C75.2167 135.311 75.1182 135.146 74.9416 134.826C74.7532 134.479 74.4993 134.01 74.1792 133.42C73.8618 132.802 73.5544 132.009 73.1563 131.104C72.9679 130.649 72.8125 130.143 72.6234 129.616C72.4402 129.087 72.2352 128.531 72.0818 127.929C70.6384 123.169 69.6835 116.295 69.8839 108.714C69.9044 108.127 69.9269 107.546 69.9666 106.967L69.9738 106.868L70.0677 106.828C70.9796 106.445 71.8749 106.069 72.7503 105.7L72.712 105.978C71.7902 105.238 70.8956 104.518 70.0327 103.825L69.9765 103.78L69.9738 103.714C69.8482 100.857 70.5431 98.2868 71.1951 96.0485C71.8696 93.805 72.6088 91.8729 73.2548 90.2846C73.9042 88.6977 74.4675 87.4552 74.8702 86.6115C75.0719 86.1896 75.2313 85.8656 75.3443 85.65C75.4561 85.4338 75.5202 85.3241 75.5288 85.328C75.5367 85.332 75.4891 85.4497 75.3933 85.6732C75.2855 85.9212 75.1446 86.2471 74.9674 86.6551C74.5945 87.5114 74.0609 88.7644 73.438 90.358C72.8198 91.9522 72.1056 93.8883 71.4537 96.1246C70.8228 98.3522 70.1557 100.92 70.2892 103.688L70.2304 103.578C71.0953 104.269 71.9926 104.986 72.9163 105.724L73.1305 105.895L72.8779 106.001C72.0025 106.371 71.1072 106.748 70.1953 107.133L70.2958 106.993C70.2575 107.56 70.2357 108.141 70.2152 108.724C70.0161 116.271 70.9293 123.116 72.3066 127.864C72.4514 128.466 72.6485 129.021 72.8231 129.55C73.0036 130.076 73.149 130.581 73.3289 131.039C73.7091 131.943 73.9974 132.741 74.2956 133.364C74.5912 133.965 74.8259 134.441 74.9998 134.794C75.1579 135.124 75.2359 135.299 75.2266 135.305Z" fill="#17282F"/>
<path d="M63.1975 159.436C63.187 159.439 63.1354 159.267 63.0494 158.937C62.9595 158.578 62.8385 158.096 62.6877 157.492C62.529 156.864 62.3465 156.093 62.1693 155.191C61.9888 154.289 61.7581 153.267 61.5769 152.123C61.3759 150.983 61.1623 149.733 60.9904 148.381C60.786 147.035 60.6459 145.587 60.4832 144.064C60.2081 141.015 60.0223 137.65 60.019 134.115C60.0355 130.579 60.2333 127.215 60.5196 124.165C60.6882 122.643 60.8337 121.195 61.0439 119.849C61.2211 118.499 61.4387 117.249 61.6443 116.11C61.8295 114.967 62.0642 113.945 62.2487 113.045C62.4285 112.143 62.6137 111.373 62.7744 110.746C62.9284 110.143 63.0501 109.662 63.142 109.302C63.2299 108.973 63.2809 108.801 63.2921 108.804C63.3027 108.807 63.2729 108.983 63.2068 109.318C63.1308 109.68 63.0283 110.166 62.9006 110.775C62.7591 111.406 62.5925 112.179 62.4299 113.082C62.2632 113.985 62.045 115.007 61.8744 116.15C61.6847 117.29 61.4803 118.538 61.3157 119.887C61.1186 121.231 60.9831 122.676 60.8237 124.194C60.5546 127.237 60.3668 130.59 60.3503 134.116C60.3536 137.64 60.5288 140.994 60.7867 144.036C60.9408 145.555 61.0697 147.001 61.2628 148.346C61.4228 149.695 61.6218 150.944 61.8076 152.084C61.9743 153.228 62.1878 154.251 62.3518 155.154C62.5105 156.059 62.6745 156.833 62.8134 157.464C62.939 158.074 63.0395 158.559 63.1142 158.922C63.1797 159.257 63.2088 159.433 63.1975 159.436Z" fill="#17282F"/>
<path d="M67.3442 190.459C67.3805 190.478 67.122 191.08 66.5996 192.001C66.0786 192.922 65.2752 194.152 64.2509 195.404C63.2247 196.655 62.1773 197.685 61.3772 198.377C60.5772 199.07 60.0376 199.442 60.0118 199.411C59.9801 199.372 60.4654 198.936 61.2185 198.204C61.9723 197.473 62.98 196.431 63.995 195.194C65.0067 193.956 65.8313 192.762 66.3993 191.88C66.9686 190.998 67.2992 190.436 67.3442 190.459Z" fill="#17282F"/>
<path d="M75.8329 163.338L75.9599 159.389C75.9367 159.4 75.9143 159.411 75.8918 159.423L75.5744 159.926L75.4898 162.895L75.8329 163.338ZM106.811 162.209C107.024 156.639 107.305 151.069 108.029 145.545C109.025 137.939 110.854 130.465 112.039 122.886C113.882 111.099 114.159 99.1318 114.433 87.2052C114.049 88.4972 113.649 89.7912 113.233 91.0839L105.277 140.734L106.811 162.209Z" fill="#A7A9A8"/>
<path d="M83.4226 173.127L100.503 172.78L106.701 165.203C106.737 164.205 106.773 163.207 106.812 162.209L105.277 140.734L113.233 91.084C111.958 95.0514 110.542 99.0082 109.042 102.862C106.988 108.14 105.463 114.543 104.261 120.077C102.05 130.244 101.55 139.161 99.3397 149.328C98.7512 152.038 97.2786 155.645 95.8279 158.007C94.3765 160.369 90.4422 161.379 87.6703 161.406C87.6505 161.406 87.6313 161.406 87.6121 161.406C85.5914 161.406 83.7122 160.44 81.8257 159.708C80.6686 159.261 79.3964 158.903 78.1698 158.903C77.4021 158.903 76.6522 159.043 75.9599 159.389L75.833 163.338L83.4226 173.127Z" fill="#BA2C42"/>
<path d="M75.4898 162.895L75.5745 159.926L74.502 161.622L75.4898 162.895Z" fill="#8F9192"/>
<path d="M137.793 88.8008C144.343 91.3372 149.202 96.9597 150.755 103.809C155.768 125.918 164.351 155.325 164.485 164.813C164.657 176.896 159.373 185.168 152.476 186.694C147.021 187.899 97.5788 185.193 97.5788 185.193L95.2427 164.561L135.304 160.878L129.822 130.244L135.248 87.8149L137.793 88.8008Z" fill="#F5F5F5"/>
<path d="M135.248 87.8149L124.177 83.2914L111.525 76.4537L111.408 76.8206C112.837 79.2679 114.355 83.7834 113.822 86.5665L104.11 137.231L106.314 174.246L109.497 199.804H141.389L129.822 172.586L135.512 121.465L135.248 87.8149Z" fill="#F5F5F5"/>
<path d="M117.598 80.021C117.603 80.0204 117.618 80.062 117.642 80.1447C117.67 80.2445 117.704 80.3662 117.745 80.5149C117.826 80.8423 117.969 81.3223 118.099 81.9551C118.385 83.2161 118.716 85.0708 118.944 87.4076C119.176 89.745 119.275 92.5652 119.155 95.7265C119.047 98.8885 118.712 102.386 118.234 106.092L118.22 106.21L118.103 106.231C116.949 106.445 115.726 106.672 114.484 106.903L114.607 106.679C114.813 107.235 115.027 107.833 115.193 108.451C116.37 112.749 115.852 117.096 114.779 120.733C113.688 124.401 112.021 127.441 110.528 129.892C109.017 132.342 107.651 134.227 106.712 135.531C106.248 136.161 105.881 136.659 105.615 137.021C105.496 137.175 105.399 137.301 105.321 137.402C105.254 137.487 105.217 137.529 105.212 137.525C105.207 137.522 105.235 137.474 105.294 137.383C105.365 137.275 105.452 137.144 105.56 136.981C105.814 136.612 106.164 136.102 106.607 135.456C107.512 134.131 108.848 132.228 110.327 129.771C111.79 127.314 113.423 124.279 114.486 120.647C115.533 117.043 116.029 112.754 114.873 108.539C114.711 107.932 114.501 107.346 114.3 106.801L114.23 106.613L114.424 106.577C115.666 106.348 116.889 106.124 118.043 105.911L117.912 106.05C118.394 102.351 118.742 98.8653 118.868 95.7153C119.007 92.5658 118.934 89.7569 118.731 87.4274C118.533 85.0966 118.235 83.2438 117.986 81.9789C117.874 81.3435 117.75 80.8608 117.687 80.5288C117.658 80.3781 117.633 80.2544 117.613 80.1519C117.599 80.0666 117.593 80.0223 117.598 80.021Z" fill="#17282F"/>
<path d="M117.597 131.99V123.907C117.597 123.907 117.702 121.912 116.022 122.333C114.343 122.753 114.658 125.902 114.658 125.902C114.658 125.902 114.343 138.183 115.078 138.077C115.812 137.973 116.095 137.028 116.095 137.028V132.304L117.597 131.99Z" fill="#F03D5F"/>
<path d="M124.583 132.493C124.583 132.585 122.645 132.659 120.254 132.659C117.862 132.659 115.923 132.585 115.923 132.493C115.923 132.402 117.862 132.327 120.254 132.327C122.645 132.327 124.583 132.402 124.583 132.493Z" fill="#17282F"/>
<path d="M97.5788 185.193C97.5873 185.192 97.5807 185.06 97.5602 184.804C97.5351 184.526 97.5007 184.153 97.4577 183.68C97.3539 182.671 97.2065 181.241 97.022 179.442C96.6226 175.782 96.0612 170.63 95.3974 164.544L95.2559 164.717C99.7502 164.336 104.805 163.908 110.135 163.456C119.945 162.592 128.824 161.811 135.281 161.242C138.496 160.924 141.055 161.877 142.626 162.692C143.423 163.109 143.995 163.514 144.381 163.788C144.557 163.922 144.698 164.029 144.81 164.115C144.908 164.189 144.96 164.223 144.964 164.219C144.964 164.219 144.275 163.469 142.69 162.573C141.122 161.714 138.538 160.708 135.26 161C128.8 161.543 119.917 162.289 110.103 163.114C104.776 163.576 99.7218 164.016 95.2294 164.406L95.0681 164.42L95.0872 164.579C95.8014 170.66 96.4057 175.807 96.8355 179.463C97.0577 181.258 97.2342 182.685 97.3586 183.691C97.422 184.162 97.4723 184.533 97.51 184.81C97.5464 185.064 97.5702 185.194 97.5788 185.193Z" fill="#17282F"/>
<path d="M108.337 185.743C108.361 185.745 108.402 185.434 108.456 184.872C108.513 184.309 108.566 183.493 108.605 182.483C108.687 180.463 108.669 177.663 108.398 174.587C108.123 171.511 107.649 168.751 107.214 166.777C106.997 165.789 106.801 164.995 106.646 164.451C106.494 163.907 106.399 163.609 106.376 163.614C106.353 163.62 106.404 163.93 106.515 164.482C106.637 165.102 106.791 165.888 106.975 166.825C107.347 168.805 107.782 171.556 108.055 174.618C108.325 177.678 108.381 180.462 108.361 182.477C108.346 183.432 108.332 184.233 108.322 184.864C108.309 185.429 108.314 185.741 108.337 185.743Z" fill="#17282F"/>
<path d="M102.667 179.274C102.671 179.257 102.502 179.188 102.175 179.191C101.854 179.193 101.367 179.295 100.89 179.65C100.421 179.987 99.9592 180.657 100.016 181.474C100.055 182.261 100.544 183.142 101.432 183.497C102.328 183.831 103.286 183.5 103.834 182.929C104.417 182.347 104.483 181.52 104.312 180.967C104.15 180.393 103.813 180.019 103.55 179.834C103.283 179.646 103.101 179.612 103.095 179.628C103.082 179.654 103.242 179.731 103.464 179.938C103.685 180.14 103.96 180.505 104.076 181.026C104.198 181.536 104.113 182.225 103.608 182.706C103.13 183.185 102.291 183.454 101.555 183.175C100.823 182.887 100.38 182.13 100.333 181.453C100.268 180.758 100.634 180.173 101.041 179.84C101.452 179.498 101.889 179.366 102.186 179.324C102.488 179.282 102.662 179.303 102.667 179.274Z" fill="#17282F"/>
<path d="M111.383 76.2791C111.383 76.2791 111.452 76.326 111.594 76.408C111.744 76.494 111.953 76.6137 112.226 76.7691C112.797 77.0878 113.627 77.5519 114.707 78.155C116.893 79.3644 120.081 81.1285 124.134 83.3707L124.138 83.3727L124.144 83.3754C128.526 85.2109 133.881 87.4538 140.028 90.0286C143.131 91.2149 145.985 93.5332 148.023 96.6363C149.062 98.1757 149.896 99.9067 150.548 101.744C151.201 103.579 151.686 105.537 151.921 107.547L151.922 107.561L151.924 107.57C154.862 120.135 158.197 134.556 161.425 149.878C162.119 153.173 162.777 156.436 163.388 159.657C163.548 160.461 163.683 161.267 163.829 162.067C163.969 162.868 164.126 163.665 164.225 164.46C164.442 166.049 164.545 167.645 164.468 169.221C164.332 172.371 163.641 175.452 162.367 178.205C161.73 179.579 160.948 180.871 160.003 182.007C159.047 183.132 157.922 184.091 156.687 184.837C154.214 186.345 151.354 186.961 148.61 186.817C145.846 186.761 143.163 186.707 140.568 186.655C135.38 186.526 130.547 186.375 126.136 186.227C117.32 185.904 110.185 185.644 105.241 185.462C102.781 185.37 100.87 185.297 99.5605 185.248C98.9184 185.226 98.4258 185.21 98.0826 185.199C97.75 185.189 97.5788 185.193 97.5788 185.193C97.5788 185.193 97.7487 185.212 98.0807 185.234C98.4245 185.253 98.9158 185.281 99.5572 185.318C100.866 185.381 102.777 185.476 105.235 185.597C110.167 185.826 117.305 186.142 126.127 186.47C130.538 186.634 135.371 186.799 140.561 186.94C143.156 186.998 145.841 187.058 148.606 187.12C151.377 187.273 154.325 186.648 156.851 185.108C158.116 184.348 159.269 183.366 160.25 182.215C161.219 181.053 162.016 179.738 162.665 178.344C163.963 175.547 164.666 172.427 164.805 169.235C164.884 167.638 164.781 166.022 164.563 164.412C164.462 163.604 164.305 162.81 164.165 162.007C164.02 161.205 163.885 160.399 163.725 159.593C163.114 156.368 162.456 153.105 161.762 149.808C158.532 134.48 155.184 120.062 152.224 107.498L152.228 107.521C151.985 105.464 151.492 103.503 150.827 101.644C150.165 99.7884 149.317 98.0381 148.259 96.4796C146.19 93.3388 143.266 90.9815 140.126 89.7946C133.968 87.2456 128.602 85.0245 124.212 83.2074L124.221 83.2121C120.15 81.0022 116.948 79.2632 114.752 78.071C113.663 77.4858 112.826 77.0355 112.25 76.7261C111.972 76.5793 111.759 76.4669 111.605 76.3862C111.46 76.3115 111.383 76.2791 111.383 76.2791Z" fill="#17282F"/>
<path d="M55.9016 134.12H71.016V129.408H55.9016V134.12Z" fill="#17282F"/>
<path d="M5.34058e-05 138.078L50.2911 191.72L99.3397 192.023L100.503 189.794L52.1564 137.409L5.34058e-05 138.078Z" fill="#17282F"/>
<path d="M47.5298 137.409C47.5298 137.409 44.262 137.387 43.2953 138.548C42.1593 139.912 39.9965 142.976 44.7328 150.791C46.6259 153.913 55.9016 164.698 59.7169 175.699C63.2843 185.984 61.657 189.386 61.657 189.386L26.2667 188.282L25.577 187.002C25.577 187.002 10.1896 145.317 14.2674 137.409C16.144 133.771 47.7804 136.074 47.5298 137.409Z" fill="#DADBD8"/>
<path d="M20.385 187.198L58.4578 187.515C58.9121 177.87 55.5656 170.873 50.5872 162.599C48.6803 159.43 46.0777 156.723 44.1786 153.548C42.1883 150.222 41.0087 146.412 40.7713 142.542C40.6767 140.996 40.77 139.322 41.7221 138.1C42.6736 136.879 46.0644 136.809 47.5297 137.409C47.5297 137.409 45.3219 135.625 41.9265 135.343C38.8485 135.086 13.6854 135.259 9.0006 135.293C8.45178 135.297 6.14808 135.583 5.66075 135.835C2.2508 137.604 1.54921 142.251 2.03058 145.594C2.48882 148.768 4.45267 151.755 6.92038 155.098C7.62922 156.057 8.28649 157.054 8.88292 158.088C11.4822 162.592 18.6559 175.218 19.9446 179.576C21.0105 183.179 20.385 187.198 20.385 187.198Z" fill="#FAFAF9"/>
<path d="M20.385 187.115C23.4418 187.141 26.498 187.166 29.5542 187.192C35.3909 187.241 41.2282 187.289 47.0649 187.337C49.5147 187.358 51.9639 187.379 54.4138 187.399C55.2344 187.406 56.055 187.412 56.8762 187.419C57.2795 187.422 57.8575 187.535 58.2502 187.431L58.4572 187.432C58.4631 187.426 58.4043 186.726 58.4063 186.645C58.4142 186.313 58.4175 185.981 58.4162 185.649C58.4136 185.001 58.393 184.354 58.3547 183.707C58.2046 181.228 57.7689 178.774 57.0699 176.392C55.6609 171.589 53.2309 167.162 50.6659 162.892C49.2582 160.547 47.5132 158.452 45.8998 156.252C44.3664 154.161 43.0578 151.947 42.1586 149.509C41.2785 147.126 40.7343 144.568 40.6649 142.022C40.6206 140.38 40.8579 138.134 42.5831 137.398C43.3541 137.07 44.2322 136.97 45.0634 136.96C45.6287 136.953 46.932 136.891 47.4127 137.276C47.5496 137.385 47.4768 137.423 47.379 137.398C47.3129 137.381 47.2077 137.277 47.1535 137.24C46.8956 137.065 46.6258 136.905 46.3521 136.756C45.4297 136.255 44.4358 135.884 43.4123 135.655C41.3624 135.195 39.1407 135.329 37.0539 135.312C30.5282 135.255 24.0019 135.29 17.4769 135.324C14.9656 135.336 12.4549 135.351 9.94419 135.369C8.75464 135.377 7.58494 135.463 6.41456 135.707C4.4203 136.122 3.11966 138.124 2.52985 139.944C1.90036 141.887 1.80646 144.069 2.19526 146.072C2.69713 148.658 4.11877 150.975 5.59794 153.114C6.93362 155.046 8.30368 156.91 9.47471 158.951C10.2874 160.366 11.0921 161.787 11.8889 163.211C13.8011 166.627 15.6817 170.066 17.4253 173.572C18.9237 176.585 20.3751 179.562 20.6039 182.974C20.6984 184.379 20.6766 185.825 20.465 187.22C20.4491 187.325 20.2898 187.28 20.3057 187.176C20.834 183.699 20.2878 180.247 18.886 177.05C17.3936 173.644 15.6189 170.357 13.8428 167.092C12.2248 164.117 10.5671 161.164 8.87102 158.233C6.40332 153.969 2.43462 150.249 1.88844 145.113C1.54791 141.907 2.28849 137.208 5.65877 135.747C6.71872 135.286 8.15291 135.218 9.30014 135.208C10.2159 135.201 11.1324 135.195 12.0482 135.189C18.4582 135.148 24.8681 135.117 31.2794 135.122C34.0413 135.124 36.8053 135.127 39.5679 135.178C42.0786 135.224 44.4768 135.468 46.7098 136.768C47.0127 136.944 47.3135 137.132 47.5879 137.351C47.6514 137.402 47.5826 137.517 47.5079 137.489C46.1398 136.969 44.3631 136.974 42.9785 137.428C40.975 138.083 40.7601 140.469 40.8401 142.284C41.0318 146.623 42.4912 150.876 44.8716 154.494C46.0499 156.285 47.4114 157.944 48.6882 159.665C49.9022 161.3 50.9562 163.023 51.9738 164.786C53.8392 168.014 55.5617 171.347 56.7658 174.884C58.1517 178.961 58.7263 183.216 58.5405 187.515L58.4579 187.598C54.1698 187.562 49.8811 187.526 45.593 187.49C38.7585 187.434 31.9234 187.377 25.089 187.32C23.5212 187.307 21.9528 187.293 20.385 187.28C20.2792 187.28 20.2785 187.114 20.385 187.115Z" fill="#17282F"/>
<path d="M22.6351 179.248C22.6351 179.343 29.3499 179.421 37.6304 179.421C45.9136 179.421 52.6271 179.343 52.6271 179.248C52.6271 179.153 45.9136 179.076 37.6304 179.076C29.3499 179.076 22.6351 179.153 22.6351 179.248Z" fill="#17282F"/>
<path d="M21.7954 174.234C21.7954 174.329 28.5095 174.407 36.7907 174.407C45.074 174.407 51.7867 174.329 51.7867 174.234C51.7867 174.139 45.074 174.062 36.7907 174.062C28.5095 174.062 21.7954 174.139 21.7954 174.234Z" fill="#17282F"/>
<path d="M17.7646 168.851C17.7646 168.946 24.4787 169.023 32.7599 169.023C41.0431 169.023 47.7566 168.946 47.7566 168.851C47.7566 168.757 41.0431 168.679 32.7599 168.679C24.4787 168.679 17.7646 168.757 17.7646 168.851Z" fill="#17282F"/>
<path d="M15.2824 163.934C15.2824 164.029 21.9972 164.106 30.2777 164.106C38.5609 164.106 45.2744 164.029 45.2744 163.934C45.2744 163.838 38.5609 163.762 30.2777 163.762C21.9972 163.762 15.2824 163.838 15.2824 163.934Z" fill="#17282F"/>
<path d="M13.6274 159.436C13.6274 159.532 20.3422 159.608 28.6227 159.608C36.9059 159.608 43.6194 159.532 43.6194 159.436C43.6194 159.341 36.9059 159.264 28.6227 159.264C20.3422 159.264 13.6274 159.341 13.6274 159.436Z" fill="#17282F"/>
<path d="M9.58246 153.527C9.58246 153.622 16.2966 153.699 24.5778 153.699C32.861 153.699 39.5745 153.622 39.5745 153.527C39.5745 153.432 32.861 153.355 24.5778 153.355C16.2966 153.355 9.58246 153.432 9.58246 153.527Z" fill="#17282F"/>
<path d="M5.72089 147.872C5.72089 147.967 12.4357 148.045 20.7162 148.045C28.9995 148.045 35.7129 147.967 35.7129 147.872C35.7129 147.777 28.9995 147.7 20.7162 147.7C12.4357 147.7 5.72089 147.777 5.72089 147.872Z" fill="#17282F"/>
<path d="M5.99677 142.494C5.99677 142.589 12.7116 142.666 20.9921 142.666C29.2753 142.666 35.9888 142.589 35.9888 142.494C35.9888 142.399 29.2753 142.321 20.9921 142.321C12.7116 142.321 5.99677 142.399 5.99677 142.494Z" fill="#17282F"/>
<path d="M52.1564 137.409C52.1517 137.404 52.0823 137.454 51.9474 137.557C51.7993 137.675 51.6042 137.829 51.3569 138.025C50.8213 138.461 50.0609 139.081 49.0783 139.881L49.0175 139.93L49.0718 139.99C53.1674 144.466 62.0378 154.034 72.3324 165.07C79.4393 172.856 86.2797 179.524 91.2303 184.333C93.7093 186.736 95.7293 188.666 97.1331 189.992C97.8241 190.639 98.3676 191.147 98.7564 191.511C98.9336 191.671 99.0745 191.798 99.1856 191.899C99.2834 191.986 99.3357 192.027 99.3396 192.023C99.3443 192.018 99.3 191.968 99.21 191.874C99.1049 191.767 98.972 191.631 98.8047 191.461C98.4265 191.086 97.8982 190.562 97.2264 189.895C95.8325 188.523 93.8468 186.568 91.3996 184.159C86.4913 179.303 79.6899 172.62 72.5837 164.835C62.2897 153.799 53.3618 144.285 49.1815 139.887L49.1749 139.996C50.137 139.173 50.8828 138.535 51.4072 138.086C51.6439 137.878 51.831 137.713 51.9739 137.588C52.0988 137.475 52.161 137.414 52.1564 137.409Z" fill="#33535F"/>
<path d="M95.2903 166.932L88.114 166.928C88.114 166.928 83.2599 162.7 82.1563 162.37C79.8479 161.681 73.885 160.953 73.885 160.953L77.9575 165.366C77.9575 165.366 77.7962 165.191 77.9575 165.366C78.8984 166.386 80.6348 167.305 79.6053 167.305C78.5751 167.305 72.1393 167.305 72.1393 167.305C72.1393 167.305 64.4989 163.64 63.3629 164.31C62.41 164.874 62.0781 165.889 63.0534 167.305C64.0294 168.722 70.723 172.069 71.4953 172.326L73.684 172.969L71.6242 173.613L61.8877 170.211C61.2555 170.098 60.382 169.994 60.0977 170.36C59.7049 170.864 59.4676 171.534 60.1486 172.243C61.3527 173.496 64.5544 175.706 64.5544 175.706C64.5544 175.706 62.9998 177.99 64.2873 179.148C65.574 180.307 69.3066 183.782 69.3066 183.782C69.3066 183.782 69.6934 185.712 70.8519 186.614C72.0104 187.515 84.7543 187.515 85.6548 187.515C86.5561 187.515 91.7044 184.554 91.7044 184.554L97.2958 184.143L95.2903 166.932Z" fill="#C0776A"/>
<path d="M73.0896 179.388C73.0929 179.419 72.5732 179.56 71.6957 179.576C71.2593 179.579 70.7217 179.517 70.1716 179.309C69.6208 179.107 69.066 178.785 68.5132 178.426C67.409 177.708 66.4224 177.044 65.7149 176.552C65.0067 176.059 64.5809 175.736 64.6034 175.703C64.6259 175.668 65.0927 175.927 65.83 176.375C66.5666 176.822 67.573 177.459 68.6746 178.175C69.2234 178.531 69.7544 178.848 70.2701 179.052C70.7845 179.261 71.2785 179.341 71.7017 179.365C72.5487 179.402 73.0856 179.337 73.0896 179.388Z" fill="#B85549"/>
<path d="M73.674 184.156C73.6985 184.172 73.395 184.525 72.706 184.699C72.0368 184.878 70.9921 184.805 70.0789 184.258C69.1605 183.749 68.4404 183.134 67.9458 182.67C67.4545 182.2 67.192 181.871 67.2198 181.844C67.2872 181.767 68.457 182.989 70.2218 183.996C71.092 184.515 72.023 184.603 72.6637 184.492C73.3097 184.385 73.645 184.112 73.674 184.156Z" fill="#B85549"/>
<path d="M77.283 173.609C77.2771 173.689 76.3633 173.68 75.2656 173.451C74.1667 173.226 73.3249 172.872 73.3514 172.797C73.3778 172.716 74.2467 172.938 75.3258 173.16C76.4043 173.384 77.2903 173.524 77.283 173.609Z" fill="#B85549"/>
<path d="M123.951 30.011L122.985 30.7701C123.375 29.1256 125.211 28.0881 126.891 28.266C128.572 28.4439 130.025 29.6155 130.919 31.0491C131.813 32.4826 132.225 34.1608 132.536 35.8218C133.056 38.595 133.312 41.558 132.207 44.1533C131.103 46.7493 128.252 48.7879 125.514 48.1061C122.789 47.4277 121.262 44.4621 120.858 41.6836C120.262 37.59 121.407 33.2721 123.951 30.011Z" fill="#F03D5F"/>
<path d="M120.735 19.1741C120.814 16.4036 118.252 14.2632 115.673 13.2482C113.094 12.2339 110.228 11.851 107.929 10.3031C105.893 8.93367 104.525 6.79658 102.802 5.04961C98.5745 0.764194 91.9741 -1.01252 86.1665 0.571781C80.3596 2.15608 75.5763 7.0386 74.1104 12.8766C73.1198 16.8221 73.7963 21.4864 76.9067 24.1089C80.5163 27.1512 85.8663 26.4754 90.4916 25.5292C95.1176 24.583 100.352 23.6493 104.213 26.365C106.542 28.0028 107.877 30.6669 109.3 33.1326C110.724 35.5984 112.51 38.1163 115.202 39.0427C117.894 39.9698 121.55 38.3696 121.655 35.5243" fill="#17282F"/>
<path d="M120.549 20.6943C120.244 23.0165 121.925 25.0954 123.597 26.7346C125.27 28.3744 127.16 30.1128 127.454 32.4363C127.8 35.15 125.819 37.8227 126.393 40.4974C126.758 42.1948 128.079 43.5027 128.879 45.044C130.003 47.2069 130.062 49.824 129.372 52.1628C128.683 54.5009 127.584 59.7233 125.959 61.5403C121.463 66.5656 114.306 70.9026 107.735 72.4129C101.163 73.9225 94.3375 73.9311 87.6075 73.5171C82.0981 73.1786 75.7629 73.4318 71.172 65.8522C68.7942 61.9265 67.6166 56.7074 66.353 52.295C65.2639 48.4963 64.323 44.4277 65.4544 40.6415C66.1136 38.4357 67.4407 36.4745 68.0907 34.2653C68.9027 31.506 68.6064 28.5549 68.9331 25.6971C69.6406 19.5107 73.4803 13.7639 78.9242 10.7421C84.3694 7.72029 91.2773 7.50208 96.9017 10.1754" fill="#17282F"/>
<path d="M111.183 83.7728C111.183 83.7728 111.16 83.9414 111.149 84.0161C111.154 83.9785 111.164 83.909 111.183 83.7728Z" fill="#C0776A"/>
<path d="M71.5687 30.2153C72.0851 22.309 77.3452 12.6193 85.2224 13.4697L109.81 19.7427C112.203 20.0013 114 22.0478 113.947 24.454L111.244 82.4609C111.198 83.4494 110.969 84.4155 110.561 85.3168C108.734 89.3436 102.668 99.5722 89.4906 95.4303C86.2665 94.4166 84.7946 90.8896 84.1552 87.2628C84.1499 86.8316 83.9773 86.4521 83.972 86.0408C83.4364 81.8546 83.8755 77.8951 83.8755 77.8951C83.8292 73.1058 83.8345 71.142 83.8312 71.1863C83.8312 71.1863 73.7336 69.487 71.6699 56.3021C70.643 49.7453 70.9961 38.9984 71.5687 30.2153Z" fill="#C0776A"/>
<path d="M75.5295 38.7815C75.4958 39.6735 76.2238 40.4385 77.1554 40.4901C78.0851 40.5423 78.8674 39.8633 78.9011 38.9699C78.9348 38.0779 78.2061 37.3122 77.2771 37.2607C76.3454 37.2078 75.5626 37.8888 75.5295 38.7815Z" fill="#17282F"/>
<path d="M73.8883 35.8113C74.0972 36.0321 75.38 35.0872 77.1991 35.0958C79.0161 35.0786 80.3491 36.0176 80.5462 35.7954C80.6441 35.6969 80.4311 35.2982 79.8512 34.8736C79.2793 34.4511 78.3046 34.0392 77.1713 34.0412C76.0386 34.0451 75.0845 34.4604 74.5363 34.8862C73.9756 35.314 73.7851 35.7121 73.8883 35.8113Z" fill="#17282F"/>
<path d="M93.5565 38.7815C93.5221 39.6742 94.2508 40.4385 95.1824 40.4901C96.1115 40.5417 96.8944 39.8633 96.9281 38.9699C96.9618 38.0779 96.2338 37.3122 95.3034 37.2607C94.3724 37.2078 93.5895 37.8888 93.5565 38.7815Z" fill="#17282F"/>
<path d="M91.7666 36.1902C91.9762 36.411 93.2603 35.4661 95.078 35.4754C96.8951 35.4575 98.2281 36.3965 98.4258 36.1743C98.5224 36.0758 98.3121 35.6777 97.7296 35.2532C97.1583 34.83 96.1836 34.4187 95.0503 34.4207C93.9176 34.424 92.9641 34.8393 92.4146 35.2651C91.8559 35.6929 91.6641 36.091 91.7666 36.1902Z" fill="#17282F"/>
<path d="M85.1358 49.6647C85.1444 49.5615 84.0144 49.3638 82.1828 49.1251C81.7186 49.0762 81.2789 48.983 81.2015 48.6662C81.0931 48.3297 81.2881 47.8298 81.5143 47.2902C81.9533 46.1668 82.4135 44.9898 82.8956 43.7559C84.8145 38.7247 86.2044 34.5873 86.0007 34.512C85.7977 34.4366 84.0772 38.4535 82.159 43.4848C81.6974 44.7253 81.2557 45.9082 80.8352 47.0396C80.658 47.5666 80.3545 48.165 80.5905 48.8619C80.7142 49.2091 81.0547 49.4617 81.3523 49.543C81.6498 49.6343 81.9117 49.6402 82.1418 49.6541C83.9853 49.7573 85.1285 49.7685 85.1358 49.6647Z" fill="#17282F"/>
<path d="M83.8312 71.1863C83.8312 71.1863 92.6969 71.7781 101.494 66.5174C101.494 66.5174 97.0352 75.6311 83.8464 74.3688L83.8312 71.1863Z" fill="#B85549"/>
<path d="M85.8949 54.0506C86.5508 53.187 87.6987 52.7142 88.8367 52.8399C89.6255 52.9258 90.4223 53.3087 90.9004 53.9527C91.3778 54.5961 91.4769 55.5093 91.0399 56.1209C90.5466 56.8099 89.521 56.9673 88.6535 56.7187C87.786 56.47 87.0401 55.8967 86.3313 55.3261C86.1362 55.1681 85.9359 55.0034 85.8135 54.7865C85.6919 54.571 85.6661 54.288 85.8175 54.1094" fill="#B85549"/>
<path d="M90.4858 50.9349C90.1903 50.9171 90.1823 52.8915 88.4889 54.2887C86.7988 55.6918 84.6948 55.465 84.6783 55.7407C84.6505 55.865 85.1464 56.1256 86.0344 56.1514C86.9066 56.1838 88.1788 55.906 89.2156 55.0511C90.2478 54.1941 90.6941 53.0482 90.7635 52.2389C90.8402 51.4137 90.6214 50.9237 90.4858 50.9349Z" fill="#17282F"/>
<path d="M90.956 33.0037C91.1339 33.4983 92.9503 33.2682 95.0834 33.53C97.2231 33.7489 98.9423 34.3777 99.2267 33.9347C99.3529 33.7224 99.0541 33.2569 98.3591 32.7762C97.6708 32.2968 96.5712 31.8399 95.2904 31.6951C94.0102 31.5516 92.8359 31.7526 92.0589 32.0667C91.2741 32.3808 90.8786 32.7689 90.956 33.0037Z" fill="#17282F"/>
<path d="M74.5681 30.5485C74.8875 30.9618 76.1412 30.5366 77.6488 30.5194C79.1544 30.4493 80.4305 30.8031 80.7255 30.372C80.8544 30.1617 80.6547 29.7478 80.0979 29.355C79.5491 28.9649 78.6307 28.6442 77.5952 28.6726C76.5597 28.7037 75.6624 29.076 75.1374 29.4978C74.6038 29.921 74.4279 30.3462 74.5681 30.5485Z" fill="#17282F"/>
<path d="M119.013 63.1054C115.388 63.8367 111.441 62.7226 108.732 60.2053C106.025 57.688 104.626 53.8317 105.09 50.1632C105.5 46.9265 107.245 43.6322 106.123 40.5688C104.639 36.5181 98.9608 35.2717 97.4538 31.2296C96.5784 28.8802 97.3646 26.1322 96.3714 23.8298C95.4378 21.6643 93.1605 20.4179 90.9427 19.6158C88.7263 18.8144 86.3485 18.2609 84.4872 16.8142C82.6258 15.3667 81.4647 12.6359 82.6655 10.6072C92.4979 11.7855 102.189 14.1402 111.467 17.605C113.618 18.4084 115.877 19.3738 117.149 21.286C118.494 23.3087 118.429 25.9232 118.317 28.35C117.764 40.1846 117.212 52.0186 116.66 63.8539" fill="#17282F"/>
<path d="M118.187 67.6368C118.193 67.6454 118.265 67.5985 118.4 67.5006C118.559 67.379 118.751 67.2328 118.985 67.055C119.495 66.6549 120.244 66.0618 121.169 65.2459C122.088 64.4273 123.195 63.3858 124.268 61.9847C125.329 60.5954 126.373 58.7843 126.732 56.5599C127.125 54.3951 126.837 51.6702 125.032 49.6243C124.144 48.6219 123.003 47.8714 121.962 47.0059C120.902 46.1588 120.023 45.0817 119.567 43.7387C118.591 41.0515 119.026 37.9404 118.649 34.7606C118.232 31.5973 117.102 28.3308 114.913 25.6793C113.82 24.3674 112.507 23.2327 111.004 22.4849C109.509 21.696 107.888 21.3707 106.392 20.9277C104.881 20.5111 103.495 19.8856 102.344 18.9334C101.186 18.0017 100.238 16.8644 99.4065 15.6941C97.7508 13.3427 96.5268 10.8367 94.9498 8.74785C94.1643 7.70443 93.3119 6.75425 92.3525 5.98987C91.3937 5.22615 90.341 4.66279 89.2732 4.313C87.146 3.58698 84.8998 3.82765 83.4193 4.89685C81.9567 6.00904 81.4217 7.61187 81.3404 8.84241C81.2789 10.1093 81.7067 11.0602 82.1332 11.5568C82.3415 11.814 82.528 11.9799 82.6701 12.0712C82.8044 12.1724 82.8751 12.2193 82.8811 12.2114C82.8864 12.2028 82.8282 12.14 82.7085 12.0262C82.5809 11.9211 82.4129 11.7452 82.2258 11.486C81.8442 10.9835 81.474 10.0657 81.5646 8.85762C81.6737 7.68394 82.2304 6.16509 83.6078 5.16002C84.999 4.19265 87.1202 3.9837 89.1422 4.7018C90.1585 5.04762 91.1623 5.59908 92.0715 6.33834C92.984 7.07891 93.8052 8.0086 94.5643 9.0335C96.0924 11.0893 97.2925 13.5887 98.9707 16.0022C99.8131 17.2003 100.784 18.3806 101.997 19.3645C103.195 20.3683 104.698 21.0487 106.232 21.4725C107.759 21.9261 109.334 22.2501 110.741 22.9973C112.168 23.7081 113.417 24.7906 114.466 26.0476C116.567 28.5893 117.675 31.7599 118.086 34.832C118.47 37.9054 118.025 41.0634 119.065 43.9219C119.551 45.3488 120.542 46.5417 121.637 47.3986C122.717 48.2807 123.836 49.01 124.675 49.9444C126.366 51.8275 126.683 54.3984 126.328 56.4932C126.008 58.6408 125.028 60.405 124.008 61.7909C122.981 63.1841 121.907 64.2401 121.017 65.0792C120.121 65.9157 119.396 66.5366 118.911 66.965C118.425 67.3915 118.173 67.6216 118.187 67.6368Z" fill="#33535F"/>
<path d="M64.6933 47.0303C64.7382 46.9993 64.2126 46.6958 63.923 45.7681C63.6373 44.8642 63.7444 43.3526 64.6754 41.8979C65.1337 41.1646 65.7486 40.4352 66.3715 39.61C66.9937 38.7927 67.6126 37.8214 67.8903 36.6616C68.1859 35.5117 68.1713 34.258 68.0371 33.001C67.8989 31.7407 67.6443 30.4599 67.481 29.1461C67.118 26.521 67.5346 23.9707 68.3419 21.8342C69.1519 19.6905 70.3316 17.9515 71.492 16.6687C72.667 15.3912 73.7957 14.5283 74.6236 14.0198C75.4442 13.4981 75.9335 13.2621 75.9163 13.2297C75.9123 13.2191 75.7874 13.2713 75.554 13.3817C75.3258 13.5014 74.9655 13.6376 74.5535 13.9054C73.6966 14.3842 72.5295 15.2272 71.3135 16.5034C70.1121 17.7849 68.8888 19.5411 68.0457 21.7212C67.2046 23.89 66.7689 26.5104 67.1385 29.1884C67.3051 30.5208 67.5624 31.7976 67.7019 33.0381C67.8387 34.2746 67.8566 35.4866 67.5822 36.5856C67.3263 37.6905 66.7484 38.6215 66.142 39.4401C65.537 40.2627 64.9241 41.0099 64.4685 41.7703C63.5289 43.2977 63.4568 44.8734 63.7947 45.809C63.96 46.2825 64.2 46.5999 64.3838 46.783C64.5729 46.9629 64.6887 47.0376 64.6933 47.0303Z" fill="#17282F"/>
</svg>
