<svg width="318" height="352" viewBox="0 0 318 352" fill="none" xmlns="http://www.w3.org/2000/svg">
<path d="M81.2524 71.2487L85.6379 122.109L111.111 120.074C111.27 117.099 111.058 105.594 111.058 105.594C111.058 105.594 121.656 103.946 121.786 93.3496C121.85 88.2033 121.114 77.5673 120.34 67.9865C119.481 57.3571 110.294 49.364 99.6475 49.9851C88.6235 50.6298 80.3038 60.2455 81.2524 71.2487Z" fill="#F9AD95"/>
<path d="M111.075 105.441C111.075 105.441 104.378 105.986 97.2596 101.515C97.2596 101.515 100.526 109.141 111.099 108.187L111.075 105.441Z" fill="#F6865E"/>
<path d="M116.606 75.0289C116.634 75.8274 115.981 76.5099 115.147 76.5552C114.314 76.5996 113.616 75.9898 113.587 75.1903C113.559 74.3917 114.211 73.7074 115.045 73.663C115.878 73.6177 116.578 74.2294 116.606 75.0289Z" fill="#1D2A30"/>
<path d="M118.075 73.327C117.888 73.5243 116.741 72.6757 115.113 72.6805C113.485 72.6606 112.29 73.4988 112.114 73.2997C112.027 73.2109 112.219 72.8551 112.739 72.4756C113.25 72.099 114.124 71.7318 115.139 71.7365C116.154 71.7422 117.006 72.115 117.497 72.4973C117.997 72.8815 118.167 73.2383 118.075 73.327Z" fill="#1D2A30"/>
<path d="M100.286 75.4104C100.315 76.2099 99.6607 76.8923 98.8272 76.9376C97.9947 76.982 97.2962 76.3722 97.2679 75.5737C97.2395 74.7742 97.8927 74.0898 98.7253 74.0455C99.5597 74.0001 100.258 74.6118 100.286 75.4104Z" fill="#1D2A30"/>
<path d="M102.069 73.631C101.881 73.8283 100.732 72.9798 99.1057 72.9845C97.4784 72.9656 96.2834 73.8028 96.1069 73.6037C96.0201 73.5149 96.2098 73.1591 96.7318 72.7806C97.2434 72.403 98.1174 72.0358 99.1312 72.0406C100.147 72.0453 100.999 72.4191 101.49 72.8013C101.989 73.1855 102.16 73.5423 102.069 73.631Z" fill="#1D2A30"/>
<path d="M107.978 85.7074C107.971 85.6149 108.983 85.4394 110.624 85.2298C111.039 85.1873 111.432 85.1043 111.502 84.8211C111.6 84.52 111.427 84.0716 111.225 83.5883C110.834 82.5821 110.425 81.5268 109.995 80.4215C108.287 75.9143 107.052 72.2066 107.233 72.1396C107.415 72.0725 108.947 75.6717 110.656 80.1808C111.066 81.2918 111.459 82.3518 111.833 83.3656C111.99 83.8385 112.261 84.3737 112.049 84.9976C111.937 85.3082 111.632 85.5337 111.365 85.6055C111.099 85.6867 110.865 85.6914 110.659 85.7037C109.008 85.7924 107.984 85.7999 107.978 85.7074Z" fill="#1D2A30"/>
<path d="M103.185 86.8335C103.451 86.8184 103.454 88.5854 104.968 89.8399C106.477 91.0991 108.362 90.9009 108.375 91.1482C108.4 91.2586 107.956 91.4908 107.16 91.5125C106.381 91.5399 105.241 91.2888 104.315 90.5214C103.392 89.7521 102.996 88.7251 102.935 88.0002C102.867 87.2611 103.065 86.8231 103.185 86.8335Z" fill="#1D2A30"/>
<path d="M102.489 67.2492C102.328 67.6919 100.702 67.4814 98.7925 67.7126C96.8763 67.9042 95.3359 68.463 95.082 68.0666C94.9696 67.8759 95.2377 67.4596 95.8616 67.0311C96.478 66.6035 97.4635 66.1967 98.6103 66.0683C99.7572 65.9437 100.808 66.1249 101.503 66.4081C102.205 66.6913 102.558 67.0387 102.489 67.2492Z" fill="#1D2A30"/>
<path d="M117.476 68.614C117.19 68.9841 116.068 68.5999 114.719 68.5819C113.371 68.5168 112.228 68.8302 111.965 68.4432C111.85 68.2554 112.029 67.8853 112.528 67.5352C113.02 67.1859 113.843 66.9008 114.77 66.9291C115.697 66.9584 116.5 67.2935 116.969 67.673C117.446 68.0524 117.603 68.4338 117.476 68.614Z" fill="#1D2A30"/>
<path d="M92.7571 59.629L92.6995 59.6753C91.0127 61.0071 89.897 62.9355 89.6016 65.065L89.5714 65.2783C89.158 68.3008 89.2325 71.376 88.7889 74.3937C88.3452 77.4124 87.2994 80.483 85.067 82.5624C84.1495 83.4185 82.526 84.0075 81.7709 83.0041C81.4792 82.6171 81.4311 82.1037 81.3933 81.6194C80.8288 74.322 78.8353 67.8468 78.8494 60.2161C78.8532 58.1386 79.8302 56.1894 81.5188 54.9793C83.1169 53.8343 85.068 52.6469 86.8425 53.487C88.6237 54.3299 90.9193 57.6515 92.2955 59.0608" fill="#1D2A30"/>
<path d="M84.8253 76.0426C84.6441 75.9652 77.5439 73.8895 77.7752 81.1341C78.0074 88.3786 85.2331 86.6522 85.2387 86.4436C85.2444 86.2359 84.8253 76.0426 84.8253 76.0426Z" fill="#F9AD95"/>
<path d="M82.9385 83.7697C82.9055 83.748 82.8148 83.8622 82.6043 83.967C82.3995 84.0689 82.0437 84.1463 81.6623 84.017C80.8874 83.7602 80.204 82.5653 80.1275 81.2608C80.0879 80.6019 80.2058 79.9695 80.423 79.4428C80.6268 78.9057 80.9581 78.5243 81.3414 78.4441C81.7218 78.3431 82.0021 78.5649 82.0975 78.766C82.2003 78.9652 82.1588 79.1115 82.1975 79.1219C82.2183 79.1398 82.3495 78.9963 82.2815 78.699C82.2475 78.5555 82.1569 78.3875 81.9823 78.2544C81.803 78.1185 81.5462 78.0543 81.2781 78.092C80.7212 78.1487 80.2342 78.6782 79.9954 79.2578C79.7263 79.8392 79.5791 80.5509 79.6225 81.29C79.716 82.7484 80.507 84.0906 81.5641 84.3596C82.0776 84.4767 82.4977 84.3096 82.7119 84.1321C82.9309 83.9453 82.963 83.782 82.9385 83.7697Z" fill="#F6865E"/>
<path d="M85.8569 55.758C83.6453 53.1716 87.8259 48.302 91.1834 46.6322C94.54 44.9633 99.4634 45.9535 103.162 46.5661C105.496 46.9531 107.867 47.6318 110.186 47.1683C111.742 46.8568 113.146 46.0536 114.542 45.2984C115.937 44.5442 117.398 43.8136 118.978 43.6749C120.558 43.5352 122.298 44.1138 123.12 45.4712C123.941 46.8276 123.403 48.9485 121.885 49.4082C123.695 48.0084 126.785 48.9882 127.459 51.1752C128.133 53.3614 126.131 55.9099 123.847 55.774C124.743 54.8433 126.504 55.8712 126.578 57.1616C126.653 58.4528 125.646 59.5591 124.557 60.2557C121.779 62.0359 118.233 62.1643 114.98 61.6102C111.728 61.0571 108.608 59.8876 105.37 59.2533C102.133 58.618 96.6883 57.4221 93.7848 58.989C91.6468 60.1434 90.5009 63.1167 89.1285 62.7156C87.8013 62.3295 86.8149 61.1581 86.3572 59.8545C85.8994 58.5501 85.8757 57.1399 85.8569 55.758Z" fill="#1D2A30"/>
<path d="M82.9809 75.7274C83.0073 75.752 83.2933 75.5273 83.5661 74.9525C83.8427 74.3871 84.0588 73.4535 83.9276 72.3265C83.7672 69.9931 81.7038 67.488 81.4413 64.2626C81.2809 62.6702 81.5593 61.1175 82.2427 59.9385C82.9195 58.7634 83.9805 57.9979 84.9348 57.6127C85.8995 57.2116 86.7754 57.2078 87.354 57.2833C87.9355 57.3758 88.2489 57.5127 88.2753 57.4542C88.2923 57.4249 88.0186 57.1984 87.4116 57.0115C86.8113 56.8416 85.8438 56.7604 84.7592 57.1379C83.6869 57.4995 82.4806 58.2867 81.6745 59.6035C80.875 60.9061 80.555 62.6211 80.7277 64.3306C80.8759 66.0485 81.5018 67.6031 82.1257 68.8963C82.7458 70.1951 83.2631 71.358 83.4264 72.3964C83.8087 74.5192 82.8742 75.6925 82.9809 75.7274Z" fill="#365462"/>
<path d="M114.371 38.5126C114.383 38.5022 114.483 38.5975 114.657 38.7986C114.812 39.011 115.037 39.3404 115.2 39.8246C115.525 40.7657 115.594 42.3959 114.581 43.9628C113.562 45.5146 111.459 46.6293 109.068 46.7954C106.654 46.988 104.094 46.2669 101.496 45.5986C100.19 45.271 98.9058 44.9973 97.6542 44.9039C96.4044 44.8057 95.1962 44.9284 94.0871 45.2267C91.8651 45.8327 90.0887 47.0475 88.8738 48.2916C87.6307 49.53 86.9473 50.8052 86.5414 51.6925C86.1327 52.5892 86.0242 53.1329 85.9675 53.1169C85.9515 53.1131 85.9732 52.9772 86.0317 52.7214C86.0817 52.4618 86.1837 52.088 86.3649 51.6208C86.7227 50.6948 87.3758 49.3572 88.6237 48.0509C89.8423 46.7388 91.6565 45.4466 93.9672 44.7896C95.1169 44.4659 96.394 44.3281 97.6891 44.4234C98.986 44.514 100.299 44.7915 101.615 45.1219C104.233 45.7968 106.729 46.5057 109.036 46.3443C111.323 46.2084 113.313 45.1833 114.294 43.7664C115.273 42.3345 115.273 40.7912 115.017 39.8803C114.747 38.9421 114.325 38.5437 114.371 38.5126Z" fill="#1D2A30"/>
<path d="M76.1346 295.153L61.8447 276.916C61.8447 276.916 38.5073 285.315 35.5377 282.202L69.9057 253.224L93.3375 280.728L76.1346 295.153Z" fill="#365462"/>
<path d="M73.7266 269.444C74.2392 268.702 74.0683 267.567 73.3472 267.024C72.626 266.482 71.4697 266.646 70.9449 267.379C70.4201 268.113 70.5834 269.483 71.3612 269.94C72.138 270.399 73.485 270.131 73.8192 269.293" fill="#E3E3E2"/>
<path d="M69.9057 253.224L72.1588 256.089L38.3648 282.801C38.3648 282.801 36.274 283.425 35.5377 282.202L69.9057 253.224Z" fill="#E3E3E2"/>
<path d="M61.4351 277.559C61.2992 277.388 62.0742 276.604 62.4451 275.368C62.8482 274.141 62.6603 273.056 62.8708 272.993C63.053 272.894 63.6496 274.108 63.1738 275.597C62.7122 277.088 61.5286 277.744 61.4351 277.559Z" fill="#1D2A30"/>
<path d="M56.5729 279.108C56.3974 278.978 56.8844 278.079 56.8552 276.89C56.8618 275.699 56.3587 274.809 56.5323 274.676C56.6673 274.517 57.6122 275.402 57.6197 276.883C57.6396 278.363 56.7117 279.265 56.5729 279.108Z" fill="#1D2A30"/>
<path d="M50.8885 276.52C51.0103 276.356 51.9514 276.998 52.2949 278.28C52.648 279.561 52.1628 280.589 51.9731 280.509C51.7626 280.452 51.856 279.528 51.5577 278.481C51.284 277.425 50.7356 276.677 50.8885 276.52Z" fill="#1D2A30"/>
<path d="M65.1522 281.355C65.0937 281.142 66.0593 280.725 66.9532 279.861C67.865 279.015 68.3351 278.074 68.5437 278.145C68.7438 278.184 68.5465 279.412 67.4789 280.416C66.4189 281.427 65.1815 281.557 65.1522 281.355Z" fill="#1D2A30"/>
<path d="M68.1037 284.981C68.0423 284.913 68.6191 284.25 69.832 283.538C70.4361 283.185 71.2035 282.834 72.0993 282.573C72.5467 282.444 73.0262 282.337 73.5293 282.265C73.7747 282.234 74.0485 282.177 74.3911 282.232C74.7243 282.25 75.2057 282.606 75.2208 283.06C75.2671 283.471 75.0518 283.849 74.8083 284.063C74.5629 284.285 74.3137 284.406 74.0881 284.519C73.6275 284.748 73.1612 284.923 72.7081 285.053C71.8001 285.308 70.9477 285.381 70.2426 285.349C68.8229 285.283 68.0225 284.886 68.0527 284.805C68.082 284.686 68.9126 284.884 70.2379 284.81C70.8986 284.772 71.6792 284.649 72.5023 284.38C72.9129 284.243 73.333 284.07 73.7474 283.852C74.1919 283.64 74.5044 283.381 74.461 283.142C74.443 283.051 74.427 283.023 74.2608 282.98C74.0985 282.948 73.8701 282.976 73.6294 283.007C73.1574 283.065 72.7072 283.15 72.2815 283.254C71.431 283.462 70.6872 283.742 70.0802 284.019C68.8635 284.575 68.1773 285.074 68.1037 284.981Z" fill="#1D2A30"/>
<path d="M68.1189 284.557C68.1566 284.481 68.9967 284.801 69.9746 285.836C70.4579 286.351 70.9525 287.051 71.3291 287.918C71.5141 288.352 71.668 288.827 71.7718 289.333C71.8568 289.843 71.9936 290.504 71.4065 291.128C71.0771 291.427 70.5712 291.4 70.2823 291.254C69.9737 291.118 69.782 290.937 69.5734 290.772C69.1723 290.424 68.8476 290.025 68.5955 289.614C68.0868 288.791 67.8734 287.93 67.8319 287.216C67.7526 285.759 68.2831 284.968 68.3454 285.013C68.4719 285.05 68.1604 285.867 68.369 287.156C68.4709 287.791 68.7145 288.538 69.1874 289.233C69.4224 289.579 69.7112 289.912 70.0577 290.2C70.4192 290.521 70.8052 290.7 70.91 290.547C71.0837 290.406 71.1422 289.886 71.0365 289.476C70.9534 289.019 70.8279 288.585 70.6769 288.183C70.3682 287.381 69.9604 286.707 69.5621 286.185C68.7588 285.136 68.05 284.659 68.1189 284.557Z" fill="#1D2A30"/>
<path d="M40.5972 307.257L26.3068 289.019C26.3068 289.019 2.96928 297.419 0 294.306L34.3683 265.328L57.7991 292.832L40.5972 307.257Z" fill="#365462"/>
<path d="M38.1892 281.548C38.7008 280.805 38.5299 279.671 37.8097 279.129C37.0886 278.586 35.9323 278.75 35.4074 279.485C34.8826 280.217 35.0459 281.587 35.8237 282.044C36.6006 282.502 37.9475 282.236 38.2807 281.398" fill="#E3E3E2"/>
<path d="M34.3683 265.328L36.6214 268.194L2.82731 294.905C2.82731 294.905 0.736349 295.53 0 294.306L34.3683 265.328Z" fill="#E3E3E2"/>
<path d="M25.8971 289.664C25.761 289.491 26.536 288.708 26.9066 287.471C27.3099 286.246 27.1223 285.16 27.3329 285.096C27.5153 284.998 28.1112 286.212 27.6359 287.702C27.1739 289.194 25.9903 289.849 25.8971 289.664Z" fill="#1D2A30"/>
<path d="M21.0358 291.212C20.8599 291.083 21.3463 290.184 21.3179 288.994C21.3241 287.803 20.8208 286.914 20.9941 286.78C21.1298 286.621 22.0748 287.506 22.0819 288.986C22.1022 290.466 21.1737 291.369 21.0358 291.212Z" fill="#1D2A30"/>
<path d="M15.3507 288.624C15.4727 288.46 16.4137 289.102 16.7573 290.383C17.1106 291.664 16.625 292.694 16.4362 292.614C16.2246 292.555 16.3186 291.633 16.0199 290.584C15.746 289.529 15.1977 288.782 15.3507 288.624Z" fill="#1D2A30"/>
<path d="M29.6147 293.459C29.5562 293.247 30.5209 292.829 31.4157 291.964C32.3275 291.119 32.7976 290.179 33.0062 290.248C33.2054 290.288 33.009 291.517 31.9405 292.52C30.8815 293.53 29.644 293.661 29.6147 293.459Z" fill="#1D2A30"/>
<path d="M32.5655 297.085C32.5051 297.018 33.0808 296.356 34.2947 295.643C34.8988 295.29 35.6662 294.939 36.562 294.677C37.0094 294.549 37.4889 294.441 37.992 294.369C38.2365 294.337 38.5112 294.281 38.8538 294.336C39.187 294.354 39.6675 294.709 39.6826 295.163C39.7298 295.576 39.5146 295.953 39.2711 296.167C39.0247 296.39 38.7764 296.511 38.5508 296.623C38.0893 296.852 37.6239 297.028 37.1708 297.157C36.2619 297.413 35.4104 297.484 34.7053 297.454C33.2857 297.387 32.4843 296.99 32.5145 296.91C32.5438 296.791 33.3754 296.989 34.7006 296.913C35.3604 296.876 36.142 296.753 36.9651 296.484C37.3757 296.347 37.7948 296.173 38.2101 295.956C38.6547 295.744 38.9662 295.486 38.9237 295.246C38.9048 295.155 38.8888 295.127 38.7226 295.084C38.5612 295.053 38.3328 295.08 38.0912 295.111C37.6201 295.169 37.169 295.255 36.7442 295.358C35.8937 295.566 35.1499 295.847 34.543 296.123C33.3263 296.678 32.64 297.18 32.5655 297.085Z" fill="#1D2A30"/>
<path d="M32.5813 296.661C32.6191 296.585 33.4592 296.906 34.4371 297.94C34.9204 298.455 35.415 299.155 35.7907 300.023C35.9766 300.456 36.1305 300.931 36.2343 301.437C36.3183 301.946 36.4561 302.609 35.8681 303.232C35.5396 303.531 35.0327 303.505 34.7448 303.359C34.4352 303.222 34.2445 303.041 34.0369 302.876C33.6347 302.529 33.31 302.129 33.058 301.718C32.5492 300.895 32.3359 300.034 32.2934 299.32C32.2142 297.863 32.7456 297.072 32.8079 297.117C32.9353 297.154 32.6229 297.972 32.8305 299.261C32.9334 299.896 33.177 300.643 33.6499 301.337C33.8839 301.683 34.1737 302.017 34.5201 302.304C34.8817 302.625 35.2668 302.804 35.3725 302.652C35.5452 302.51 35.6047 301.99 35.499 301.58C35.4159 301.122 35.2904 300.689 35.1384 300.288C34.8307 299.485 34.4229 298.811 34.0236 298.289C33.2204 297.24 32.5115 296.763 32.5813 296.661Z" fill="#1D2A30"/>
<path d="M56.7691 4.3116C57.1165 4.21626 58.6909 16.9261 57.8499 18.6072C57.0089 20.2893 51.4832 25.2146 49.3207 25.2146C47.1582 25.2146 44.2754 28.338 43.6742 29.4188L29.7391 26.5361L32.8626 18.847L32.4878 9.18222C32.4095 7.17073 32.8559 5.16207 33.8461 3.4111C34.9259 1.50156 36.4532 -0.488216 37.9087 0.107395C40.5507 1.18818 40.5507 2.0292 40.5507 2.0292C40.5507 2.0292 43.0465 -0.253164 43.9017 2.3898C43.9017 2.3898 47.1582 -0.0124989 48.7203 3.11092C48.7203 3.11092 52.3242 0.94841 53.2851 5.87376L53.6457 9.23697C53.6457 9.23697 53.2851 5.27251 56.7691 4.3116Z" fill="#F9AD95"/>
<path d="M45.4745 19.6249C45.432 19.5938 45.9106 18.8406 46.9716 17.8778C48.0221 16.9206 49.69 15.7709 51.7827 15.0989C52.5275 14.8544 53.2694 14.6854 53.9613 14.5807L53.7621 14.8157C53.7744 13.2101 53.5875 11.8329 53.562 10.8267C53.5337 9.8271 53.5941 9.23812 53.646 9.23717C53.7055 9.23623 53.7489 9.82425 53.8574 10.8059C53.9631 11.7791 54.2142 13.1733 54.2341 14.811L54.2359 15.012L54.0349 15.046C53.3685 15.1602 52.6549 15.3301 51.9356 15.5661C49.9166 16.2146 48.2798 17.2755 47.1962 18.143C46.106 19.0124 45.5368 19.6788 45.4745 19.6249Z" fill="#F6865E"/>
<path d="M37.0471 5.36316C37.0763 5.35277 37.216 5.61801 37.3887 6.13433C37.5275 6.63743 37.8314 7.45958 37.4463 8.46107C37.2557 8.97456 36.711 9.29549 36.5977 9.73347C36.459 10.1894 36.6365 10.7737 37.0178 11.1871C37.7654 12.0404 39.489 12.0725 40.3338 11.0464C40.7557 10.5339 40.9124 9.84865 40.9794 9.18791C41.0417 8.52056 41.0493 7.85037 41.0511 7.22361C41.0493 5.96348 40.9615 4.83077 40.8539 3.88119C40.7614 2.9335 40.582 2.19065 40.313 1.74512C40.0515 1.2977 39.7788 1.14949 39.8042 1.11268C39.809 1.09097 40.1318 1.1844 40.4735 1.64031C40.818 2.09056 41.0606 2.87967 41.1984 3.83492C41.3513 4.78827 41.4768 5.93705 41.5042 7.21794C41.5146 7.8598 41.5174 8.52528 41.4589 9.2351C41.3919 9.9336 41.2343 10.7199 40.7151 11.357C39.6315 12.6332 37.6266 12.5662 36.6818 11.4901C36.2211 10.9643 36.0031 10.2451 36.2089 9.60981C36.3127 9.29171 36.5354 9.05006 36.7148 8.87072C36.8989 8.68571 37.0329 8.51582 37.1301 8.3157C37.4992 7.50205 37.2925 6.68746 37.2037 6.18341C37.0914 5.66332 37.0121 5.37448 37.0471 5.36316Z" fill="#F6865E"/>
<path d="M40.3291 11.3599C40.3716 11.3486 40.416 11.5723 40.652 11.8687C40.8766 12.1632 41.3457 12.5115 42.0036 12.5983C42.6531 12.7012 43.4507 12.3859 44.0331 11.7242C44.6334 11.0692 44.96 10.1063 45.0629 9.05766C45.3243 6.92535 44.8628 5.01866 44.3889 3.69812C43.916 2.37475 43.4299 1.63847 43.495 1.59505C43.5385 1.55824 44.1416 2.2407 44.7127 3.57068C45.2819 4.87517 45.8246 6.898 45.5518 9.1096C45.4461 10.2102 45.0704 11.3033 44.3663 12.0301C43.6914 12.7682 42.7116 13.1146 41.9489 12.9419C41.1909 12.7927 40.6963 12.3416 40.4943 11.9763C40.2829 11.6072 40.3065 11.3599 40.3291 11.3599Z" fill="#F6865E"/>
<path d="M44.539 11.694C44.5767 11.6742 44.673 11.8535 44.9232 12.0895C45.1676 12.3245 45.6047 12.5973 46.205 12.6832C46.8016 12.7748 47.5425 12.6492 48.158 12.1376C48.7762 11.6458 49.2454 10.8397 49.4379 9.9317C49.7928 8.07785 49.1963 6.31838 49.0018 5.06108C48.7611 3.79718 48.646 3.00713 48.7121 2.99203C48.7781 2.97692 49.0132 3.73959 49.3416 4.98462C49.5002 5.60949 49.7069 6.34387 49.8674 7.19434C50.0241 8.03915 50.1326 9.01892 49.9193 10.0346C49.7041 11.0427 49.1689 11.9432 48.4364 12.4954C47.7106 13.0674 46.7997 13.1816 46.1427 13.0249C45.4687 12.8805 45.0062 12.518 44.7816 12.2179C44.5522 11.9139 44.5154 11.7025 44.539 11.694Z" fill="#F6865E"/>
<path d="M49.4454 11.3295C49.4822 11.3248 49.5256 11.5438 49.6294 11.9242C49.737 12.2989 49.8994 12.8596 50.3157 13.392C50.6989 13.9159 51.5022 14.3633 52.3187 14.1679C53.1163 13.9612 53.643 12.955 53.5826 11.9346C53.592 9.77491 53.3419 7.82007 53.104 6.42119C52.8661 5.01947 52.6415 4.16427 52.7132 4.14256C52.7708 4.12274 53.1153 4.94868 53.4447 6.35228C53.7732 7.75211 54.0838 9.73055 54.0734 11.9384C54.1366 13.0588 53.5439 14.3359 52.4282 14.6068C51.3502 14.8286 50.445 14.2217 50.0363 13.5997C49.6058 12.9663 49.4964 12.3603 49.4416 11.962C49.3925 11.557 49.4152 11.3324 49.4454 11.3295Z" fill="#F6865E"/>
<path d="M183.017 139.681C183.017 139.681 178.299 146.664 177.092 149.001C176.114 150.891 172.293 158.8 172.12 163.905L181.547 174.878C181.547 174.878 185.812 171.62 186.494 170.393C187.175 169.166 186.547 167.414 186.547 167.414C186.547 167.414 187.856 166.305 188.537 166.033C188.537 166.033 188.128 168.213 189.764 168.622C191.399 169.031 196.849 163.308 196.849 163.308C196.849 163.308 197.258 160.854 195.759 160.718C195.759 160.718 196.849 157.312 195.759 156.358C195.759 156.358 196.985 153.632 195.487 152.407C195.487 152.407 194.806 149.272 193.715 148.183C192.625 147.093 181.547 150.363 181.547 150.363C181.547 150.363 184.172 144.531 184.443 142.895C184.716 141.261 183.017 139.681 183.017 139.681Z" fill="#F9AD95"/>
<path d="M189.836 161.205C189.86 161.228 189.749 161.389 189.526 161.653C189.299 161.921 188.971 162.267 188.734 162.819C188.605 163.106 188.463 163.381 188.454 163.703C188.433 164.027 188.5 164.388 188.658 164.715C188.916 165.383 189.906 165.507 190.613 165.024C191.339 164.547 191.98 163.858 192.599 163.343C193.176 162.842 193.721 162.369 194.236 161.923C195.177 161.125 195.782 160.657 195.828 160.707C195.873 160.757 195.351 161.317 194.47 162.18C193.978 162.651 193.456 163.15 192.905 163.678C192.286 164.219 191.715 164.88 190.867 165.445C190.443 165.711 189.899 165.868 189.395 165.779C188.895 165.725 188.404 165.34 188.247 164.909C188.065 164.494 188.004 164.066 188.048 163.667C188.084 163.255 188.282 162.923 188.424 162.661C188.718 162.09 189.133 161.731 189.39 161.517C189.656 161.295 189.811 161.182 189.836 161.205Z" fill="#F6865E"/>
<path d="M190.434 151.428C190.481 151.478 189.79 152.23 188.64 153.4C188.092 153.987 187.276 154.663 186.879 155.566C186.477 156.411 187.321 157.777 188.402 157.685C188.937 157.638 189.414 157.262 189.846 156.883C190.287 156.494 190.714 156.116 191.126 155.752C191.917 155.065 192.651 154.429 193.313 153.854C194.568 152.785 195.366 152.149 195.412 152.2C195.457 152.25 194.74 152.977 193.545 154.113C192.905 154.711 192.195 155.374 191.429 156.089C191.021 156.461 190.6 156.847 190.166 157.244C189.723 157.632 189.191 158.097 188.446 158.175C187.692 158.242 187.031 157.788 186.681 157.242C186.312 156.707 186.202 155.971 186.458 155.4C186.696 154.841 187.073 154.443 187.406 154.089C187.738 153.734 188.09 153.443 188.39 153.159C189.612 152.042 190.389 151.378 190.434 151.428Z" fill="#F6865E"/>
<path d="M188.601 158.174C188.61 158.214 188.41 158.254 188.13 158.451C187.859 158.638 187.492 159.021 187.38 159.597C187.248 160.159 187.557 160.889 188.241 161.235C188.578 161.405 188.967 161.459 189.357 161.336C189.748 161.22 190.125 160.961 190.501 160.666C193.557 158.26 195.641 155.861 195.752 155.959C195.801 156.001 195.341 156.654 194.482 157.614C193.622 158.574 192.352 159.829 190.805 161.052C190.414 161.358 189.99 161.656 189.49 161.798C188.994 161.951 188.437 161.866 188.029 161.635C187.178 161.187 186.824 160.204 187.041 159.521C187.228 158.832 187.699 158.444 188.035 158.286C188.381 158.121 188.601 158.149 188.601 158.174Z" fill="#F6865E"/>
<path d="M186.778 169.251C186.706 169.263 186.653 168.657 186.277 167.736C185.917 166.842 185.036 165.587 183.542 165.011L182.507 164.613L183.604 164.564L183.63 164.563H183.631L183.647 165.022H183.645H183.642L183.634 165.023H183.621L183.594 165.025H183.593L183.578 164.564H183.58H183.583H183.59L183.604 164.563L183.412 164.679C183.862 163.865 184.234 162.9 184.438 161.852C184.913 159.467 184.479 157.224 183.881 155.758C183.302 154.264 182.627 153.496 182.707 153.438C182.734 153.417 182.909 153.599 183.204 153.951C183.48 154.317 183.865 154.867 184.2 155.621C184.903 157.101 185.419 159.445 184.92 161.948C184.706 163.048 184.305 164.06 183.813 164.907L183.747 165.021L183.619 165.024H183.606L183.598 165.025H183.595H183.593L183.578 164.564H183.606L183.619 164.563H183.626H183.63H183.631L183.647 165.022H183.646L183.62 165.023L183.683 164.575C185.379 165.269 186.224 166.663 186.541 167.635C186.71 168.129 186.771 168.541 186.788 168.819C186.806 169.099 186.803 169.25 186.778 169.251Z" fill="#F6865E"/>
<path d="M67.6573 229.125L66.2509 241.782C65.5826 247.799 65.6024 253.873 66.3113 259.885L71.8379 306.785L54.1489 285.8C54.1489 285.8 37.1197 296.005 36.897 305.788C36.897 305.788 70.2814 343.694 78.7304 349.03C87.1794 354.366 108.968 349.03 109.858 332.354C109.858 332.354 111.859 347.695 131.202 347.251C150.545 346.807 150.768 300.561 150.768 300.561L142.319 230.969L67.6573 229.125Z" fill="#1D2A30"/>
<path d="M109.932 332.78C109.916 332.779 109.91 332.558 109.913 332.137C109.922 331.666 109.934 331.054 109.95 330.295C110.006 328.639 110.083 326.34 110.18 323.527C110.422 317.763 110.754 309.897 111.122 301.206C111.326 296.851 111.521 292.703 111.698 288.921C111.922 285.153 111.915 281.729 112.56 278.897C113.174 276.053 114.635 274.043 115.901 273.049C116.528 272.537 117.094 272.248 117.486 272.088C117.679 272.001 117.837 271.96 117.94 271.927C118.044 271.896 118.098 271.884 118.101 271.892C118.133 271.953 117.226 272.156 116.023 273.196C114.827 274.213 113.458 276.183 112.9 278.972C112.309 281.743 112.348 285.174 112.151 288.945C111.985 292.728 111.803 296.877 111.612 301.234C111.19 309.921 110.807 317.784 110.526 323.545C110.367 326.356 110.235 328.65 110.141 330.306C110.087 331.063 110.045 331.672 110.012 332.142C109.977 332.561 109.949 332.781 109.932 332.78Z" fill="#365462"/>
<path d="M115.113 230.13C115.147 230.126 115.237 230.53 115.371 231.266C115.508 232.001 115.678 233.071 115.867 234.394C116.245 237.041 116.671 240.713 116.969 244.784C117.265 248.856 117.377 252.551 117.386 255.225C117.392 256.563 117.378 257.645 117.351 258.392C117.324 259.14 117.294 259.552 117.259 259.552C117.226 259.552 117.192 259.14 117.159 258.393C117.127 257.545 117.086 256.488 117.039 255.233C116.941 252.565 116.774 248.882 116.478 244.82C116.181 240.759 115.811 237.091 115.522 234.437C115.387 233.189 115.273 232.135 115.181 231.292C115.106 230.549 115.079 230.135 115.113 230.13Z" fill="#365462"/>
<path d="M108.347 233.269C108.333 233.247 108.485 233.108 108.84 233.029C109.189 232.951 109.755 232.987 110.312 233.347C110.585 233.528 110.858 233.787 111.036 234.15C111.213 234.509 111.278 234.963 111.177 235.401C110.988 236.266 110.212 237.129 109.127 237.208C108.047 237.253 107.175 236.515 106.84 235.71C106.472 234.87 106.737 233.996 107.12 233.49C107.505 232.959 107.986 232.697 108.321 232.593C108.663 232.487 108.862 232.511 108.865 232.537C108.907 232.62 108.044 232.696 107.408 233.682C107.109 234.155 106.939 234.868 107.255 235.528C107.544 236.178 108.284 236.761 109.099 236.718C109.909 236.669 110.572 235.981 110.735 235.299C110.929 234.596 110.56 233.956 110.112 233.63C109.663 233.291 109.18 233.203 108.863 233.219C108.541 233.233 108.364 233.307 108.347 233.269Z" fill="#365462"/>
<path d="M72.2297 306.635C72.3146 306.657 71.9361 308.061 71.6001 310.371C71.2603 312.678 71.0432 315.911 71.3811 319.455C71.7294 322.999 72.5619 326.13 73.3388 328.33C74.1119 330.533 74.7528 331.836 74.6735 331.875C74.6433 331.891 74.4602 331.577 74.1534 330.994C73.8391 330.416 73.4445 329.546 73.0131 328.45C72.1447 326.26 71.2442 323.096 70.8912 319.502C70.5495 315.91 70.8251 312.631 71.2575 310.316C71.4708 309.157 71.6917 308.228 71.8889 307.599C72.0777 306.969 72.1976 306.625 72.2297 306.635Z" fill="#365462"/>
<path d="M71.8955 327.317C71.8841 327.282 72.2391 327.233 72.8045 326.907C73.3614 326.576 74.0655 325.868 74.5432 324.72C75.0274 323.577 75.3106 322.064 75.3814 320.294C75.4701 318.518 75.5579 316.495 75.5701 314.256C75.623 309.781 75.4399 304.449 74.9207 298.553C74.4053 292.657 73.552 286.201 72.4382 279.459C71.3291 272.714 70.1511 266.298 69.4158 260.408C68.6465 254.525 68.3124 249.173 68.419 244.681C68.5144 240.191 68.9684 236.572 69.4564 234.109C69.6603 232.871 69.9425 231.933 70.0822 231.289C70.1577 230.991 70.2181 230.752 70.2672 230.561C70.3116 230.398 70.338 230.315 70.3465 230.317C70.355 230.319 70.3437 230.405 70.3163 230.572C70.2795 230.767 70.2351 231.009 70.1785 231.31C70.0709 231.962 69.8189 232.903 69.6452 234.142C69.2166 236.607 68.8174 240.215 68.7664 244.687C68.706 249.159 69.0732 254.484 69.8651 260.35C70.6231 266.221 71.8134 272.626 72.9225 279.379C74.0391 286.13 74.8811 292.602 75.3729 298.514C75.8675 304.426 76.0147 309.775 75.9184 314.262C75.8835 316.505 75.7702 318.533 75.656 320.311C75.5579 322.094 75.2426 323.637 74.7187 324.796C74.2024 325.964 73.4435 326.682 72.8535 326.993C72.2551 327.3 71.8955 327.317 71.8955 327.317Z" fill="#365462"/>
<path d="M48.2921 290.073C48.3148 290.047 48.6914 290.353 49.3531 290.928C50.0091 291.508 50.9436 292.365 52.0498 293.475C54.2765 295.679 57.146 298.949 59.8881 302.872C61.2681 304.826 62.4895 306.752 63.575 308.512C64.6511 310.274 65.6743 311.821 66.7296 312.951C67.767 314.097 68.8393 314.776 69.6218 315.131C70.4147 315.473 70.8961 315.553 70.8857 315.604C70.8819 315.621 70.762 315.608 70.5326 315.571C70.2995 315.544 69.9701 315.448 69.5491 315.308C68.7222 315 67.5754 314.338 66.4776 313.191C65.3619 312.061 64.2905 310.504 63.1909 308.753C62.0855 307.008 60.8594 305.099 59.486 303.155C56.759 299.253 53.9547 295.973 51.8006 293.716C50.7312 292.582 49.8363 291.688 49.2209 291.067C48.6017 290.451 48.2694 290.098 48.2921 290.073Z" fill="#365462"/>
<path d="M74.7189 103.81C74.7189 103.81 63.827 99.7245 58.8347 95.6402C53.8414 91.5549 39.6024 68.7745 39.6024 68.7745L46.7997 27.6896L29.259 18.9744C29.259 18.9744 8.89104 67.8626 11.1605 76.9393C13.4299 86.017 50.245 136.516 50.245 136.516L59.2877 172.343L68.8194 204.566C68.8194 204.566 64.7341 206.381 67.0033 212.737C69.2725 219.09 72.1958 221.849 69.2725 223.175C64.5189 225.33 67.6574 229.125 67.6574 229.125L144.245 231.004C144.245 231.004 134.439 168.829 136.127 157.471C137.85 145.891 136.186 126.143 136.186 126.143L118.744 120.83L74.7189 103.81Z" fill="#00C04D"/>
<path d="M136.186 126.143C144.134 129.792 152.593 181.59 152.593 181.59L171.141 161.86L182.471 176.142C182.471 176.142 166.446 204.281 162.768 207.148C159.662 209.569 150.297 216.878 143.99 214.379C137.684 211.881 133.746 167.077 133.746 167.077L136.186 126.143Z" fill="#00C04D"/>
<path d="M82.9461 108.269C82.9461 108.269 82.0125 102.219 84.0023 103.132C84.0844 103.17 112.127 111.98 111.931 113.932C111.766 115.586 112.127 120.83 112.127 120.83H93.6199L82.9461 108.269Z" fill="#00B84A"/>
<path d="M65.5193 147.653C65.4854 147.651 65.4844 147.114 65.5109 146.148C65.5288 145.666 65.5458 145.076 65.5288 144.39C65.5165 143.704 65.5373 142.924 65.4769 142.063C65.4183 140.339 65.2248 138.294 64.8926 136.042C64.5311 133.793 64.0128 131.341 63.2728 128.819C62.512 126.302 61.603 123.965 60.6752 121.886C59.7199 119.819 58.7609 118.001 57.867 116.526C57.446 115.773 57.0024 115.131 56.6371 114.551C56.2765 113.967 55.9395 113.483 55.6592 113.089C55.1089 112.296 54.8163 111.845 54.8427 111.825C54.8701 111.804 55.2137 112.214 55.814 112.976C56.1189 113.355 56.4795 113.826 56.8646 114.397C57.2535 114.965 57.7207 115.598 58.1634 116.345C59.1017 117.806 60.1003 119.621 61.0867 121.696C62.0448 123.784 62.9755 126.139 63.7438 128.678C64.4914 131.224 65.0011 133.704 65.3409 135.975C65.6515 138.251 65.8101 140.317 65.8242 142.053C65.862 142.92 65.8176 143.705 65.8035 144.394C65.794 145.083 65.7497 145.675 65.7015 146.159C65.6166 147.124 65.5533 147.656 65.5193 147.653Z" fill="#1D2A30"/>
<path d="M80.1692 214.515C80.1446 214.57 79.3036 214.274 78.0293 213.603C76.7569 212.935 75.0692 211.856 73.407 210.413C71.7476 208.965 70.4459 207.442 69.6096 206.274C68.7685 205.104 68.3598 204.312 68.4099 204.281C68.5401 204.186 70.4421 207.205 73.7298 210.041C76.9919 212.906 80.2447 214.374 80.1692 214.515Z" fill="#1D2A30"/>
<path d="M103.628 223.346C103.637 223.379 103.2 223.536 102.4 223.794C101.602 224.062 100.422 224.372 98.95 224.681C97.4784 224.999 95.7001 225.259 93.715 225.431C91.729 225.575 89.5335 225.618 87.2369 225.473C84.9404 225.309 82.7703 224.975 80.8202 224.564C78.8757 224.129 77.1483 223.634 75.7325 223.122C74.3147 222.618 73.1877 222.153 72.4325 221.781C71.6736 221.42 71.2621 221.205 71.2762 221.175C71.2904 221.143 71.7293 221.299 72.508 221.606C73.2821 221.922 74.4223 222.335 75.8438 222.792C77.2625 223.259 78.9833 223.715 80.9146 224.12C82.8496 224.503 84.9979 224.82 87.2699 224.982C89.542 225.126 91.713 225.097 93.682 224.979C95.6491 224.833 97.4161 224.612 98.8848 224.339C100.354 224.075 101.539 223.819 102.349 223.609C103.162 223.41 103.618 223.314 103.628 223.346Z" fill="#1D2A30"/>
<path d="M129.142 176.142C129.159 176.14 129.187 176.297 129.222 176.599C129.251 176.9 129.32 177.346 129.338 177.921C129.412 179.073 129.411 180.75 129.183 182.805C128.753 186.892 127.132 192.584 123.373 197.716C119.612 202.849 114.673 206.111 110.905 207.753C109.015 208.591 107.415 209.098 106.296 209.374C105.741 209.529 105.296 209.597 105 209.662C104.702 209.718 104.544 209.741 104.54 209.724C104.531 209.683 105.147 209.524 106.244 209.19C107.341 208.858 108.909 208.306 110.761 207.438C114.451 205.732 119.277 202.475 122.977 197.426C126.673 192.377 128.325 186.796 128.838 182.762C129.108 180.734 129.162 179.073 129.147 177.927C129.135 176.781 129.101 176.145 129.142 176.142Z" fill="#1D2A30"/>
<path d="M136.303 143.148C136.32 143.15 136.317 143.434 136.297 143.974C136.271 144.556 136.235 145.341 136.188 146.329C136.119 147.351 136.086 148.602 136.065 150.057C136.024 151.511 135.996 153.165 136.03 154.995C136.023 158.655 136.231 163.01 136.526 167.839C136.863 172.667 137.36 177.965 137.983 183.517C139.258 194.619 140.718 204.637 141.678 211.901C142.162 215.533 142.544 218.473 142.777 220.509C142.886 221.493 142.974 222.274 143.038 222.853C143.093 223.391 143.114 223.674 143.097 223.676C143.08 223.678 143.027 223.399 142.94 222.866C142.853 222.29 142.735 221.513 142.587 220.534C142.284 218.46 141.858 215.539 141.334 211.95C140.286 204.698 138.771 194.688 137.494 183.572C136.871 178.015 136.387 172.706 136.074 167.868C135.803 163.029 135.632 158.664 135.683 154.996C135.67 153.161 135.723 151.504 135.79 150.048C135.837 148.593 135.899 147.339 135.997 146.318C136.082 145.331 136.149 144.546 136.199 143.966C136.251 143.429 136.286 143.147 136.303 143.148Z" fill="#1D2A30"/>
<path d="M111.943 118.2C111.95 118.227 111.536 118.372 110.763 118.549C109.99 118.728 108.848 118.899 107.425 118.929C106.003 118.963 104.305 118.795 102.468 118.395C100.633 117.985 98.6678 117.334 96.6761 116.494C92.6805 114.803 89.3957 112.641 87.0661 111.058C85.9023 110.26 84.9753 109.592 84.342 109.123C83.7077 108.653 83.3679 108.378 83.3867 108.351C83.4066 108.323 83.7841 108.544 84.4505 108.965C85.1962 109.444 86.1373 110.048 87.2577 110.768C89.6317 112.274 92.9241 114.372 96.8668 116.041C98.8377 116.873 100.771 117.527 102.569 117.954C104.369 118.371 106.028 118.571 107.425 118.58C108.737 118.594 109.807 118.49 110.575 118.384C111.448 118.264 111.933 118.144 111.943 118.2Z" fill="#1D2A30"/>
<path d="M149.964 195.176C149.831 195.152 150.323 191.965 151.063 188.061C151.803 184.156 152.511 181.011 152.644 181.036C152.777 181.062 152.285 184.247 151.545 188.152C150.806 192.056 150.098 195.203 149.964 195.176Z" fill="#1D2A30"/>
<path d="M93.3091 211.052H126.198V189.438H93.3091V211.052Z" fill="#00C04D"/>
<path d="M104.564 209.729C104.549 209.729 104.541 209.728 104.54 209.724C104.531 209.683 105.147 209.524 106.244 209.19C107.341 208.858 108.909 208.306 110.761 207.438C114.018 205.932 118.159 203.217 121.631 199.13C119.545 201.892 117.068 204.248 114.204 206.042C113.05 206.736 111.934 207.305 110.905 207.753C110.459 207.951 110.028 208.13 109.617 208.293C108.438 208.726 107.207 209.074 105.928 209.33C105.493 209.47 105.057 209.602 104.618 209.726C104.595 209.729 104.577 209.729 104.564 209.729Z" fill="#161C1E"/>
<path d="M142.434 212.878C142.156 212.58 141.918 212.249 141.733 211.893C141.707 211.843 141.681 211.792 141.658 211.741C141.64 211.61 141.623 211.479 141.605 211.345C141.876 211.931 142.152 212.444 142.434 212.878Z" fill="#B2B1B0"/>
<path d="M146.128 214.531C146.12 214.531 146.114 214.531 146.105 214.531C144.758 214.524 143.37 213.882 142.435 212.878C142.152 212.444 141.876 211.931 141.605 211.345C140.645 204.13 139.226 194.339 137.983 183.517C137.36 177.965 136.864 172.667 136.527 167.839C136.47 166.913 136.416 166.004 136.367 165.115C136.304 162.887 136.234 160.657 136.077 158.428C136.071 158.156 136.064 157.888 136.058 157.622L136.08 157.595C141.724 171.388 139.739 187.726 147.015 200.731C148.396 203.199 150.129 205.607 150.451 208.417C150.772 211.22 148.944 214.531 146.128 214.531Z" fill="#00A843"/>
<path d="M141.658 211.741C140.931 210.213 140.986 208.284 140.793 206.604C139.563 195.952 137.806 185.292 136.824 174.615C136.532 171.45 136.457 168.283 136.367 165.115C136.416 166.005 136.47 166.914 136.526 167.84C136.863 172.667 137.36 177.965 137.983 183.517C139.226 194.339 140.645 204.13 141.605 211.346C141.623 211.479 141.64 211.61 141.658 211.741ZM136.077 158.428C136.059 158.175 136.04 157.921 136.021 157.667L136.058 157.622C136.064 157.888 136.071 158.156 136.077 158.428Z" fill="#161C1E"/>
<path d="M105.637 123.562C105.152 123.562 104.666 123.514 104.194 123.424C102.598 123.12 101.122 122.383 99.7033 121.594C99.2568 121.345 98.8141 121.09 98.3743 120.83H110.199C110.189 120.887 110.177 120.945 110.162 121.001C109.98 121.69 109.465 122.25 108.875 122.649C107.929 123.289 106.786 123.562 105.637 123.562Z" fill="#00A843"/>
<path d="M110.199 120.83H98.3742C93.2355 117.778 88.5924 113.895 84.6846 109.375C85.2925 109.82 86.0967 110.394 87.0661 111.058C89.3957 112.641 92.6805 114.803 96.6761 116.494C98.6677 117.334 100.633 117.985 102.468 118.395C104.149 118.761 105.714 118.933 107.057 118.933C107.182 118.933 107.305 118.931 107.425 118.928C107.91 118.918 108.362 118.892 108.777 118.855C109.041 118.895 109.296 118.968 109.521 119.111C110.072 119.461 110.304 120.181 110.199 120.83Z" fill="#00A843"/>
<path d="M107.057 118.933C105.714 118.933 104.149 118.762 102.468 118.395C100.633 117.985 98.6679 117.334 96.6762 116.494C92.6806 114.803 89.3958 112.641 87.0662 111.058C86.0968 110.394 85.2926 109.82 84.6847 109.375C84.6299 109.312 84.5761 109.25 84.5223 109.187C91.3837 113.884 99.5627 118.34 108.088 118.795C108.317 118.808 108.551 118.819 108.777 118.855C108.362 118.892 107.91 118.918 107.426 118.929C107.305 118.931 107.182 118.933 107.057 118.933Z" fill="#161C1E"/>
<path d="M92.0548 113.749C91.9557 113.822 91.0269 112.115 91.1269 109.796C91.2024 107.474 92.2587 105.843 92.3521 105.923C92.4909 105.984 91.6848 107.625 91.6177 109.814C91.5186 112.001 92.1983 113.699 92.0548 113.749Z" fill="#1D2A30"/>
<path d="M101.613 117.626C101.468 117.591 101.908 115.712 101.846 113.365C101.804 111.018 101.282 109.16 101.425 109.118C101.537 109.068 102.292 110.92 102.337 113.355C102.4 115.786 101.728 117.67 101.613 117.626Z" fill="#1D2A30"/>
<path d="M108.356 119.215C108.219 119.158 108.794 117.723 108.895 115.86C109.019 113.998 108.622 112.505 108.764 112.466C108.877 112.413 109.513 113.92 109.386 115.89C109.275 117.861 108.461 119.281 108.356 119.215Z" fill="#1D2A30"/>
<path d="M85.5635 109.937C85.4615 110.02 84.6186 108.632 84.7923 106.722C84.8895 105.795 85.1283 104.952 85.5748 104.45C85.7919 104.204 86.0609 104.073 86.2535 104.07C86.446 104.064 86.5357 104.128 86.5291 104.155C86.5206 104.224 86.1383 104.194 85.8476 104.665C85.5531 105.102 85.369 105.904 85.2831 106.764C85.117 108.514 85.6975 109.886 85.5635 109.937Z" fill="#1D2A30"/>
<path d="M31.8963 71.7581C31.8189 71.6609 33.4065 70.4074 35.7248 69.5588C38.0393 68.696 40.0602 68.6177 40.064 68.7423C40.0829 68.8886 38.1422 69.1812 35.8947 70.0194C33.6435 70.8416 31.9765 71.8818 31.8963 71.7581Z" fill="#1D2A30"/>
<path d="M135.234 161.377C135.234 161.377 134.958 161.321 134.438 161.193C133.878 161.054 133.121 160.867 132.168 160.63C131.185 160.378 129.979 160.078 128.57 159.765C127.163 159.447 125.567 159.055 123.786 158.702C120.236 157.937 115.984 157.148 111.242 156.394C106.497 155.671 101.259 155.002 95.7406 154.507C90.2187 154.033 84.9441 153.782 80.1434 153.667C75.3426 153.583 71.0176 153.619 67.3882 153.755C65.5731 153.793 63.9335 153.901 62.4921 153.969C61.0517 154.032 59.8114 154.118 58.7986 154.194C57.8207 154.261 57.0429 154.315 56.4662 154.355C55.9319 154.389 55.6506 154.397 55.6506 154.397C55.6506 154.397 60.121 153.906 67.3835 153.616C71.0138 153.463 75.3426 153.412 80.1471 153.486C84.9507 153.59 90.231 153.836 95.7576 154.31C101.281 154.806 106.522 155.482 111.27 156.216C116.014 156.979 120.267 157.782 123.816 158.566C130.917 160.116 135.234 161.377 135.234 161.377Z" fill="#FCFDFD"/>
<path d="M127.445 189.437C127.445 189.437 127.225 189.417 126.809 189.36C126.343 189.293 125.739 189.206 124.99 189.098C124.202 188.97 123.232 188.863 122.106 188.732C120.982 188.589 119.698 188.457 118.277 188.336C112.597 187.798 104.714 187.458 96.0077 187.484C87.2982 187.526 79.4193 187.883 73.7247 188.26C70.8769 188.437 68.5756 188.623 66.9851 188.753C66.23 188.815 65.6221 188.865 65.1529 188.903C64.7339 188.935 64.5139 188.942 64.5139 188.942C64.5139 188.942 64.732 188.908 65.1492 188.863C65.6183 188.816 66.2243 188.754 66.9775 188.676C68.5671 188.524 70.8684 188.316 73.7162 188.121C79.4099 187.709 87.2925 187.328 96.0077 187.287C104.719 187.261 112.607 187.624 118.29 188.199C123.976 188.746 127.445 189.437 127.445 189.437Z" fill="#FCFDFD"/>
<path d="M138.77 195.121C138.769 195.133 138.582 195.13 138.246 195.114C137.793 195.085 137.323 195.056 136.824 195.025C135.421 194.915 133.86 194.792 132.139 194.657C130.419 194.5 128.86 194.359 127.458 194.231C126.961 194.18 126.492 194.129 126.041 194.08C125.707 194.041 125.523 194.012 125.524 193.998C125.525 193.984 125.712 193.987 126.048 194.005C126.501 194.032 126.97 194.063 127.469 194.094C128.873 194.204 130.434 194.326 132.156 194.461C133.875 194.618 135.434 194.759 136.836 194.887C137.333 194.939 137.801 194.989 138.253 195.038C138.587 195.078 138.771 195.106 138.77 195.121Z" fill="#FCFDFD"/>
<path d="M143.066 226.93C143.066 226.93 142.802 226.885 142.303 226.783C141.804 226.686 141.075 226.507 140.119 226.367C138.218 226.038 135.435 225.703 131.982 225.643C128.53 225.562 124.418 225.769 119.868 226.171C115.318 226.562 110.322 227.13 105.052 227.398C94.5079 227.975 84.9385 227.487 78.063 226.797C71.1819 226.107 66.9749 225.317 66.9749 225.317C66.9749 225.317 67.241 225.344 67.7441 225.414C68.2935 225.491 69.0269 225.595 69.9482 225.724C71.8625 225.981 74.6366 226.336 78.0762 226.66C84.9498 227.312 94.5089 227.779 105.042 227.201C110.305 226.933 115.299 226.373 119.853 225.99C124.406 225.599 128.527 225.405 131.985 225.503C135.445 225.581 138.231 225.939 140.132 226.292C141.087 226.443 141.815 226.634 142.312 226.745C142.808 226.86 143.066 226.93 143.066 226.93Z" fill="#FCFDFD"/>
<path d="M140.83 138.608C140.83 138.608 140.54 138.534 139.992 138.373C139.406 138.198 138.609 137.962 137.602 137.663C135.483 137.034 132.491 136.145 128.811 135.052C121.384 132.864 111.102 129.914 99.6976 126.829C88.2876 123.747 77.9177 121.117 70.3994 119.266C66.67 118.356 63.6372 117.616 61.4908 117.093C60.4704 116.844 59.6624 116.647 59.0687 116.503C58.5155 116.366 58.2267 116.284 58.2267 116.284C58.2267 116.284 58.5212 116.339 59.0772 116.464C59.6737 116.6 60.4845 116.785 61.5087 117.018C63.6589 117.527 66.6964 118.247 70.4325 119.131C77.9602 120.948 88.3376 123.557 99.7486 126.639C111.155 129.724 121.432 132.697 128.85 134.919C132.523 136.037 135.51 136.946 137.625 137.59C138.627 137.904 139.42 138.152 140.004 138.335C140.547 138.508 140.83 138.608 140.83 138.608Z" fill="#FCFDFD"/>
<path d="M62.7941 123.477C62.796 123.484 62.7394 123.505 62.6289 123.539C62.4732 123.584 62.3137 123.629 62.1457 123.678C61.6086 123.821 61.0167 123.978 60.3579 124.154C58.6796 124.58 56.6672 125.089 54.4424 125.654C53.2889 125.948 52.176 126.194 51.1915 126.481C50.207 126.77 49.3594 127.156 48.7421 127.62C47.4772 128.555 47.2441 129.594 47.2101 129.558C47.2101 129.558 47.2441 129.313 47.4461 128.919C47.6452 128.525 48.0313 127.996 48.658 127.51C49.2801 127.018 50.1457 126.609 51.1387 126.307C52.1345 126.007 53.2398 125.758 54.3952 125.463C56.6256 124.921 58.6428 124.429 60.3248 124.019C60.9894 123.866 61.5859 123.728 62.1268 123.604C62.2976 123.568 62.4609 123.534 62.6195 123.501C62.7328 123.479 62.7932 123.471 62.7941 123.477Z" fill="#FCFDFD"/>
<path d="M54.2699 91.4361C54.2699 91.4427 54.1651 91.4559 53.9641 91.4748C53.7055 91.4965 53.4176 91.5201 53.0872 91.5484C52.3255 91.5984 51.2248 91.7164 49.8741 91.9071C47.1726 92.2828 43.4678 93.0794 39.5628 94.5349C35.6616 96.0018 32.3446 97.8349 30.0604 99.3262C28.9163 100.069 28.0094 100.703 27.4014 101.165C27.1348 101.361 26.9017 101.533 26.6927 101.686C26.529 101.804 26.4408 101.863 26.4368 101.858C26.4368 101.858 27.7074 100.734 29.9839 99.2101C32.255 97.6848 35.5766 95.8234 39.4948 94.3509C43.4149 92.8887 47.1415 92.111 49.8552 91.7693C52.5728 91.4229 54.2699 91.4361 54.2699 91.4361Z" fill="#FCFDFD"/>
<path d="M40.684 64.0361C40.6802 64.0408 40.599 63.9917 40.447 63.8926C40.2488 63.7604 40.0327 63.6151 39.7882 63.4527C39.2247 63.0591 38.3818 62.5277 37.3208 61.9113C35.1989 60.6795 32.1085 59.2127 28.4744 58.2801C24.8367 57.3579 21.4184 57.1785 18.9679 57.2795C17.7419 57.3295 16.7486 57.4098 16.068 57.5013C15.7763 57.5344 15.5178 57.5627 15.2807 57.5901C15.1004 57.608 15.0053 57.6146 15.0038 57.607C15.0038 57.607 16.4978 57.2767 18.962 57.1408C21.421 57.0039 24.8633 57.1615 28.5235 58.0894C32.1793 59.0276 35.2791 60.5247 37.3906 61.7905C39.506 63.0601 40.684 64.0361 40.684 64.0361Z" fill="#FCFDFD"/>
<path d="M43.9896 35.9055C43.9849 35.9102 43.932 35.8621 43.8377 35.7677C43.7083 35.6355 43.5743 35.4968 43.4299 35.3486C43.0844 34.9767 42.5577 34.4642 41.8837 33.86C40.5396 32.6481 38.5196 31.1387 36.0456 29.9012C33.566 28.6713 31.1448 27.97 29.3674 27.6264C28.4783 27.4527 27.7515 27.3423 27.2475 27.2904C27.0418 27.2649 26.8508 27.2404 26.6672 27.2177C26.5347 27.1988 26.4654 27.1856 26.4658 27.179C26.4662 27.1715 26.537 27.1715 26.6705 27.1781C26.8552 27.1894 27.048 27.2007 27.2552 27.2139C27.7633 27.2422 28.4962 27.3329 29.3929 27.4905C31.1863 27.7992 33.6349 28.4854 36.1334 29.7247C38.6263 30.9717 40.65 32.5121 41.9772 33.7562C42.6436 34.3782 43.1571 34.9078 43.4865 35.2967C43.6215 35.4543 43.747 35.6006 43.8679 35.7422C43.9528 35.8442 43.9953 35.9008 43.9896 35.9055Z" fill="#FCFDFD"/>
<path d="M150.552 172.42C150.552 172.434 150.355 172.456 149.998 172.485C149.641 172.51 149.126 172.566 148.494 172.655C147.23 172.833 145.498 173.216 143.684 173.931C141.873 174.652 140.348 175.559 139.304 176.295C138.783 176.662 138.369 176.975 138.093 177.201C137.813 177.425 137.654 177.544 137.644 177.534C137.636 177.524 137.777 177.385 138.043 177.143C138.306 176.897 138.708 176.567 139.224 176.183C140.252 175.412 141.782 174.476 143.612 173.748C145.443 173.025 147.198 172.66 148.476 172.518C149.115 172.444 149.635 172.41 149.993 172.409C150.353 172.403 150.551 172.407 150.552 172.42Z" fill="#FCFDFD"/>
<path d="M171.417 193.525C171.417 193.525 170.159 193.114 168.356 191.984C167.45 191.428 166.444 190.653 165.411 189.699C164.397 188.727 163.37 187.563 162.453 186.224C161.551 184.872 160.856 183.484 160.331 182.181C159.834 180.866 159.489 179.643 159.312 178.595C158.938 176.502 159.025 175.18 159.025 175.18C159.031 175.18 159.043 175.262 159.056 175.417C159.072 175.627 159.089 175.85 159.107 176.096C159.122 176.391 159.148 176.751 159.217 177.165C159.28 177.58 159.321 178.056 159.448 178.569C159.642 179.606 159.997 180.815 160.5 182.114C161.029 183.403 161.723 184.774 162.615 186.114C163.525 187.441 164.538 188.596 165.536 189.569C166.553 190.521 167.542 191.301 168.432 191.868C168.859 192.176 169.287 192.392 169.647 192.607C170.006 192.825 170.331 192.983 170.599 193.108C170.82 193.216 171.021 193.315 171.21 193.408C171.348 193.479 171.42 193.519 171.417 193.525Z" fill="#FCFDFD"/>
<path d="M205.787 200.255L205.788 200.251C205.788 200.253 205.787 200.255 205.787 200.255Z" fill="#757677"/>
<path d="M206.285 140.999L206.218 140.919L206.272 141.014L206.285 140.999Z" fill="#F03658"/>
<path d="M223.467 124.159C222.411 130.868 225.189 138.048 230.486 142.298C235.784 146.548 243.395 147.706 249.715 145.221C257.814 142.038 263.186 133.7 271.486 131.088C275.07 129.96 278.949 129.998 282.504 128.783C286.784 127.32 290.494 123.805 291.46 119.385C292.424 114.966 290.15 109.848 285.931 108.215C283.72 107.359 280.953 107.305 279.541 105.4C277.51 102.661 280.022 98.978 280.627 95.6214C281.495 90.8178 277.77 85.933 273.067 84.6229C268.365 83.3127 263.178 85.0911 259.513 88.3164C256.376 91.0774 253.248 93.709 249.117 94.3339C246.566 94.72 241.502 94.1744 238.605 88.7903" fill="#1D2A30"/>
<path d="M257.243 84.6737C257.26 84.6709 257.293 84.8304 257.339 85.1391C257.384 85.4468 257.419 85.9084 257.386 86.5021C257.323 87.6744 256.961 89.4433 255.707 91.1971C255.079 92.0589 254.254 92.932 253.164 93.5833C252.085 94.2488 250.765 94.6858 249.345 94.7934C247.928 94.9029 246.406 94.6915 244.976 94.0827C243.545 93.4842 242.23 92.4421 241.268 91.1188C240.281 89.8105 239.59 88.3805 238.91 87.0344C238.233 85.6856 237.569 84.3962 236.744 83.3079C235.111 81.1066 232.821 79.8833 230.843 79.3283C228.84 78.7686 227.121 78.8422 225.975 79.0036C224.823 79.1848 224.211 79.418 224.194 79.3689C224.189 79.3529 224.339 79.2887 224.631 79.1801C224.919 79.0621 225.363 78.9423 225.943 78.8158C227.098 78.5921 228.861 78.4609 230.935 78.9923C232.98 79.519 235.378 80.7517 237.105 83.0341C238.859 85.275 239.783 88.2899 241.66 90.8224C242.588 92.0948 243.809 93.0632 245.165 93.64C246.517 94.2224 247.964 94.4338 249.313 94.3423C250.664 94.2507 251.921 93.8514 252.954 93.2341C253.999 92.6309 254.805 91.8078 255.427 90.9923C256.67 89.3291 257.076 87.6282 257.196 86.486C257.306 85.3278 257.191 84.6784 257.243 84.6737Z" fill="#1D2A30"/>
<path d="M278.348 77.9948L274.731 123.404L243.721 143.437C243.721 143.437 248.226 170.657 248.46 171.247L286.447 142.154C291.226 138.582 294.116 133.027 294.3 127.064L292.7 74.5958L278.348 77.9948Z" fill="#9E5A49"/>
<path d="M274.554 57.0747C274.287 56.9265 270.457 67.1085 270.816 68.665C271.176 70.2215 274.966 74.8817 276.545 75.819C279.496 77.5709 277.513 83.9413 277.793 84.9542L293.041 85.749L292.63 73.9566L293.638 65.9286C294.103 64.2834 294.134 62.5362 293.664 60.8919C293.152 59.1003 292.287 57.153 290.966 57.356C288.569 57.7232 288.402 58.4169 288.402 58.4169C288.402 58.4169 286.796 56.0354 285.563 58.0479C285.563 58.0479 283.351 55.4153 281.441 57.6844C281.441 57.6844 278.894 55.1812 277.121 59.0578L276.153 61.7631C276.153 61.7631 277.24 58.5613 274.554 57.0747Z" fill="#9E5A49"/>
<path d="M281.231 70.2311C281.156 70.2736 280.799 69.526 279.937 68.5717C279.503 68.1026 278.92 67.6032 278.179 67.2172C277.433 66.8434 276.533 66.5923 275.561 66.5517C275.289 66.5262 275.018 66.5451 274.763 66.5423L274.438 66.5385L274.516 66.2383C274.969 64.4827 275.394 62.9309 275.721 61.8218C276.047 60.7127 276.277 60.0462 276.337 60.0623C276.399 60.0774 276.281 60.7721 276.039 61.902C275.796 63.0328 275.429 64.5997 274.989 66.3582L274.742 66.0552C275.012 66.0552 275.298 66.0345 275.588 66.0609C276.62 66.1034 277.597 66.3884 278.39 66.817C279.18 67.2578 279.779 67.8222 280.2 68.3452C281.034 69.408 281.276 70.2141 281.231 70.2311Z" fill="#864338"/>
<path d="M290.632 61.8671C290.663 61.8869 290.544 62.1125 290.352 62.5212C290.182 62.9205 289.857 63.5529 290.001 64.2844C290.042 64.4656 290.117 64.628 290.233 64.8168C290.345 64.999 290.486 65.2491 290.509 65.5389C290.554 66.1194 290.226 66.6791 289.734 67.0284C288.721 67.742 287.031 67.3956 286.377 66.1033C286.07 65.4634 286.097 64.7753 286.182 64.1825C286.276 63.5812 286.412 63.0328 286.549 62.5042C286.829 61.4508 287.164 60.5258 287.483 59.7697C287.79 59.0098 288.153 58.4029 288.534 58.1008C288.912 57.7931 289.2 57.7856 289.201 57.8092C289.216 57.8488 288.964 57.9224 288.664 58.2405C288.36 58.5548 288.069 59.1306 287.808 59.8962C287.533 60.6598 287.238 61.5763 286.988 62.6156C286.785 63.636 286.361 64.8659 286.819 65.891C287.301 66.8849 288.709 67.1983 289.477 66.6546C289.866 66.3969 290.125 65.9589 290.102 65.5691C290.102 65.2029 289.716 64.8215 289.661 64.3514C289.544 63.4349 289.965 62.8166 290.183 62.4296C290.434 62.0388 290.605 61.851 290.632 61.8671Z" fill="#864338"/>
<path d="M286.729 66.1664C286.752 66.173 286.727 66.3854 286.48 66.6535C286.24 66.9206 285.738 67.2019 285.073 67.1764C284.399 67.1707 283.648 66.6846 283.231 65.9332C282.787 65.1857 282.694 64.1983 282.826 63.2639C283.042 61.377 283.9 59.8082 284.637 58.8473C285.381 57.8628 286.022 57.4257 286.058 57.472C286.109 57.5296 285.569 58.0459 284.922 59.0464C284.275 60.046 283.522 61.5205 283.314 63.3281C283.191 64.2106 283.268 65.0601 283.626 65.7143C283.971 66.3694 284.554 66.7828 285.102 66.83C285.654 66.8923 286.106 66.7054 286.35 66.5119C286.604 66.3203 286.691 66.1466 286.729 66.1664Z" fill="#864338"/>
<path d="M283.184 65.6048C283.207 65.619 283.138 65.7908 282.889 66.0013C282.643 66.2099 282.186 66.4232 281.594 66.4109C281.014 66.4128 280.272 66.1353 279.781 65.5123C279.278 64.9044 279.011 64.0455 279.035 63.1629C279.061 62.2737 279.349 61.4818 279.648 60.8144C279.953 60.1433 280.271 59.5798 280.531 59.0965C281.055 58.1365 281.41 57.5579 281.471 57.5881C281.532 57.6183 281.287 58.2517 280.843 59.2504C280.438 60.2538 279.6 61.5894 279.527 63.1752C279.506 63.9567 279.73 64.7071 280.135 65.2301C280.535 65.7681 281.108 66.0173 281.614 66.0635C282.666 66.1627 283.141 65.5331 283.184 65.6048Z" fill="#864338"/>
<path d="M279.206 64.3278C279.236 64.3373 279.213 64.5289 279.096 64.8564C278.974 65.1774 278.768 65.6606 278.282 66.1043C277.817 66.5432 276.938 66.8755 276.074 66.4715C275.185 66.0146 274.949 64.8206 275.226 63.9012C275.658 62.0719 276.312 60.4993 276.869 59.41C277.427 58.3179 277.884 57.7101 277.938 57.7421C278.064 57.8063 276.548 60.4314 275.705 64.0126C275.453 64.8357 275.688 65.7503 276.284 66.0694C276.9 66.3875 277.641 66.1873 278.061 65.8381C278.507 65.4879 278.755 65.0613 278.922 64.7762C279.088 64.4864 279.171 64.3146 279.206 64.3278Z" fill="#864338"/>
<path d="M288.56 68.0998C288.526 68.2461 286.842 67.7137 284.825 68.23C282.796 68.7067 281.552 69.9574 281.454 69.8432C281.411 69.8035 281.657 69.4307 282.21 68.9757C282.759 68.5198 283.639 68.0167 284.708 67.7524C285.776 67.4919 286.791 67.5306 287.488 67.6807C288.188 67.8289 288.579 68.045 288.56 68.0998Z" fill="#864338"/>
<path d="M193.254 154.878C184.106 155.727 176.059 149.012 174.735 144.998C173.411 140.985 174.804 136.221 178.082 133.554C180.684 131.433 184.464 130.356 185.714 127.24C187.887 121.814 180.321 115.711 183.021 110.527C184.933 106.856 190.521 106.911 193.143 103.708C195.457 100.88 194.617 96.7219 195.344 93.1416C196.577 87.0656 202.777 82.7878 208.972 82.5839C215.167 82.3801 221.101 85.6205 225.379 90.106C229.657 94.5924 232.502 100.235 235.001 105.908C237.025 110.5 238.901 115.478 238.046 120.423C236.78 127.747 230.043 132.701 223.656 136.501C213.245 142.695 205.327 155.878 193.254 154.878Z" fill="#1D2A30"/>
<path d="M178.536 138.248C178.536 138.256 178.48 138.263 178.37 138.267C178.26 138.275 178.095 138.269 177.88 138.25C177.453 138.205 176.813 138.068 176.086 137.67C175.368 137.275 174.551 136.59 174.024 135.516C173.512 134.449 173.357 132.998 173.887 131.584C174.146 130.88 174.595 130.196 175.207 129.652C175.808 129.095 176.54 128.666 177.288 128.252C178.04 127.84 178.821 127.44 179.537 126.918C180.247 126.396 180.856 125.712 181.222 124.865C181.987 123.166 181.762 121.088 181.261 119.113C180.756 117.12 179.818 115.13 179.423 112.905C179.218 111.801 179.137 110.667 179.3 109.561C179.481 108.463 179.927 107.385 180.686 106.593C181.429 105.783 182.384 105.243 183.343 104.892C184.303 104.53 185.269 104.3 186.196 104.063C188.049 103.612 189.79 103.042 191.019 101.896C192.264 100.783 193.052 99.3792 193.562 98.0511C194.548 95.3477 194.509 92.9426 194.551 91.3408C194.55 90.5696 194.549 89.9504 194.548 89.4737C194.548 89.0461 194.555 88.8215 194.572 88.8205C194.589 88.8196 194.615 89.0433 194.646 89.4699C194.678 89.8966 194.718 90.5262 194.741 91.3379C194.757 92.9473 194.858 95.3713 193.888 98.1719C193.384 99.5462 192.59 101.012 191.292 102.199C190.004 103.426 188.157 104.041 186.309 104.502C184.488 104.994 182.413 105.414 181.043 106.916C180.352 107.641 179.953 108.616 179.782 109.636C179.634 110.666 179.706 111.746 179.906 112.815C180.285 114.968 181.209 116.937 181.728 118.993C182.232 121.015 182.479 123.193 181.634 125.051C181.232 125.971 180.549 126.723 179.792 127.267C179.031 127.812 178.231 128.209 177.483 128.609C176.737 129.012 176.031 129.418 175.461 129.934C174.882 130.437 174.466 131.054 174.212 131.707C173.696 133.019 173.814 134.388 174.273 135.4C174.745 136.42 175.503 137.1 176.182 137.504C177.579 138.315 178.558 138.176 178.536 138.248Z" fill="#1D2A30"/>
<path d="M261.716 311.273L279.716 302.935C279.716 302.935 294.238 318.43 297.714 317.213L282.799 281.732L254.22 293.573L261.716 311.273Z" fill="#365462"/>
<path d="M297.274 317.281C293.16 317.281 279.716 302.935 279.716 302.935L261.716 311.273L261.155 309.949L254.22 293.573L282.799 281.732L297.714 317.213C297.583 317.26 297.435 317.281 297.274 317.281Z" fill="#253840"/>
<path d="M273.568 292.609C273.466 291.844 274.039 291.045 274.8 290.912C275.56 290.78 276.378 291.356 276.492 292.119C276.607 292.883 275.948 293.864 275.178 293.91C274.407 293.956 273.484 293.227 273.556 292.459" fill="#E3E3E2"/>
<path d="M282.799 281.731L279.966 283.038L295.326 316.57C295.326 316.57 296.677 317.86 297.714 317.213L282.799 281.731Z" fill="#E3E3E2"/>
<path d="M279.778 303.586C279.95 303.507 279.664 302.608 279.862 301.521C280.032 300.429 280.598 299.674 280.463 299.544C280.361 299.398 279.434 300.092 279.216 301.412C278.988 302.73 279.635 303.69 279.778 303.586Z" fill="#1D2A30"/>
<path d="M282.881 306.66C283.065 306.629 283.046 305.755 283.531 304.859C283.99 303.949 284.719 303.466 284.639 303.297C284.598 303.123 283.533 303.429 282.95 304.555C282.358 305.677 282.714 306.725 282.881 306.66Z" fill="#1D2A30"/>
<path d="M288.224 306.901C288.194 306.729 287.228 306.852 286.466 307.695C285.697 308.534 285.667 309.508 285.842 309.52C286.025 309.559 286.314 308.819 286.95 308.135C287.57 307.438 288.279 307.081 288.224 306.901Z" fill="#1D2A30"/>
<path d="M275.465 305.031C275.591 304.892 275.019 304.198 274.674 303.19C274.309 302.19 274.317 301.289 274.13 301.262C273.963 301.214 273.634 302.228 274.056 303.408C274.471 304.592 275.364 305.173 275.465 305.031Z" fill="#1D2A30"/>
<path d="M271.803 306.646C271.875 306.619 271.693 305.888 271.047 304.872C270.723 304.368 270.275 303.801 269.693 303.254C269.403 302.981 269.079 302.713 268.724 302.461C268.549 302.341 268.362 302.192 268.079 302.1C267.818 301.983 267.313 302.068 267.125 302.408C266.928 302.704 266.945 303.075 267.048 303.334C267.149 303.598 267.291 303.789 267.42 303.962C267.682 304.316 267.969 304.632 268.263 304.906C268.857 305.455 269.479 305.842 270.028 306.094C271.136 306.596 271.901 306.605 271.91 306.532C271.934 306.429 271.223 306.257 270.242 305.683C269.754 305.397 269.205 305 268.682 304.474C268.424 304.21 268.171 303.913 267.939 303.586C267.683 303.252 267.546 302.933 267.672 302.767C267.721 302.704 267.745 302.69 267.887 302.722C268.023 302.761 268.187 302.871 268.358 302.988C268.695 303.216 269.006 303.457 269.29 303.701C269.856 304.191 270.316 304.695 270.671 305.142C271.381 306.039 271.709 306.688 271.803 306.646Z" fill="#1D2A30"/>
<path d="M271.956 306.316C271.956 306.243 271.191 306.161 270.042 306.568C269.474 306.773 268.822 307.114 268.199 307.628C267.888 307.887 267.586 308.19 267.31 308.535C267.047 308.891 266.684 309.341 266.889 310.046C267.023 310.402 267.421 310.579 267.696 310.579C267.986 310.596 268.201 310.533 268.425 310.488C268.867 310.379 269.27 310.201 269.622 309.986C270.331 309.557 270.828 308.984 271.139 308.456C271.767 307.376 271.67 306.566 271.605 306.576C271.495 306.554 271.413 307.299 270.753 308.201C270.427 308.645 269.95 309.12 269.319 309.464C269.006 309.638 268.655 309.779 268.279 309.864C267.879 309.968 267.515 309.954 267.493 309.796C267.417 309.621 267.575 309.202 267.814 308.93C268.056 308.614 268.32 308.332 268.592 308.085C269.141 307.594 269.714 307.238 270.221 306.995C271.243 306.508 271.969 306.421 271.956 306.316Z" fill="#1D2A30"/>
<path d="M263.789 303.492L258.015 290.733L246.049 296.371L234.83 318.563L263.789 303.492Z" fill="#1D2A30"/>
<path d="M281.735 318.758L299.982 310.974C299.982 310.974 314.022 326.907 317.534 325.796L303.713 289.875L274.784 300.837L281.735 318.758Z" fill="#365462"/>
<path d="M294.151 300.465C294.074 299.697 294.671 298.916 295.436 298.806C296.2 298.697 297 299.298 297.091 300.064C297.181 300.832 296.494 301.791 295.722 301.814C294.95 301.837 294.049 301.08 294.146 300.314" fill="#E3E3E2"/>
<path d="M303.712 289.875L300.84 291.093L315.166 325.079C315.166 325.079 316.478 326.411 317.534 325.797L303.712 289.875Z" fill="#E3E3E2"/>
<path d="M300.024 311.626C300.197 311.553 299.939 310.645 300.17 309.565C300.374 308.478 300.963 307.742 300.832 307.608C300.736 307.459 299.787 308.123 299.53 309.436C299.26 310.746 299.877 311.726 300.024 311.626Z" fill="#1D2A30"/>
<path d="M303.032 314.795C303.217 314.769 303.224 313.895 303.736 313.014C304.222 312.118 304.966 311.658 304.891 311.487C304.856 311.311 303.782 311.585 303.165 312.693C302.539 313.794 302.863 314.854 303.032 314.795Z" fill="#1D2A30"/>
<path d="M308.364 315.199C308.341 315.025 307.369 315.119 306.583 315.939C305.79 316.754 305.729 317.726 305.904 317.745C306.086 317.788 306.396 317.057 307.053 316.393C307.694 315.714 308.414 315.38 308.364 315.199Z" fill="#1D2A30"/>
<path d="M295.669 312.939C295.801 312.803 295.248 312.091 294.934 311.075C294.599 310.064 294.635 309.164 294.45 309.131C294.284 309.078 293.924 310.082 294.311 311.274C294.689 312.47 295.564 313.078 295.669 312.939Z" fill="#1D2A30"/>
<path d="M291.958 314.442C292.032 314.416 291.873 313.68 291.257 312.646C290.949 312.131 290.519 311.551 289.954 310.986C289.672 310.705 289.356 310.426 289.008 310.164C288.838 310.04 288.655 309.885 288.376 309.784C288.119 309.659 287.611 309.729 287.413 310.062C287.207 310.353 287.213 310.723 287.307 310.985C287.4 311.254 287.537 311.447 287.66 311.623C287.91 311.987 288.188 312.311 288.474 312.595C289.05 313.161 289.66 313.567 290.201 313.835C291.293 314.371 292.059 314.403 292.068 314.33C292.097 314.229 291.392 314.034 290.428 313.431C289.947 313.131 289.412 312.717 288.906 312.175C288.655 311.903 288.412 311.599 288.191 311.265C287.943 310.922 287.817 310.599 287.948 310.438C288 310.376 288.023 310.362 288.165 310.399C288.299 310.442 288.459 310.558 288.628 310.679C288.958 310.917 289.26 311.168 289.537 311.421C290.089 311.928 290.532 312.446 290.872 312.903C291.555 313.822 291.865 314.482 291.958 314.442Z" fill="#1D2A30"/>
<path d="M292.121 314.116C292.125 314.043 291.363 313.938 290.202 314.31C289.628 314.497 288.966 314.818 288.327 315.314C288.009 315.562 287.697 315.855 287.41 316.192C287.137 316.539 286.76 316.979 286.944 317.689C287.068 318.05 287.459 318.238 287.735 318.248C288.023 318.272 288.241 318.217 288.465 318.179C288.91 318.082 289.318 317.916 289.677 317.713C290.399 317.305 290.914 316.748 291.241 316.23C291.902 315.169 291.829 314.357 291.764 314.365C291.653 314.341 291.55 315.082 290.862 315.963C290.523 316.398 290.032 316.857 289.391 317.183C289.072 317.346 288.717 317.477 288.338 317.55C287.935 317.641 287.572 317.616 287.556 317.457C287.484 317.281 287.655 316.867 287.902 316.602C288.154 316.294 288.427 316.021 288.706 315.781C289.27 315.306 289.853 314.969 290.368 314.742C291.403 314.287 292.132 314.222 292.121 314.116Z" fill="#1D2A30"/>
<path d="M190.542 249.142C190.542 249.142 235.709 242.914 244.929 236.051C254.148 229.186 253.775 227.113 253.775 227.113C253.775 227.113 255.215 220.034 249.572 219.119C243.928 218.205 217.235 225.526 217.235 225.526L201.524 221.496L188.559 229.186L179.918 239.864C179.918 239.864 182.304 246.117 185.661 247.186C189.017 248.254 190.542 248.406 190.542 248.406V249.142Z" fill="#00A843"/>
<path d="M183.081 249.142L251.537 235.641L253.307 221.165H183.081V249.142Z" fill="#00A843"/>
<path d="M192.622 240.878C192.283 239.996 191.848 228.386 191.848 228.386C191.848 228.386 195.034 223.192 201.26 223.123C207.487 223.053 216.436 225.804 216.436 225.804L242.82 217.116L244.928 227.113C244.928 227.113 225.081 243.952 214.51 243.9C202.237 243.841 192.622 240.878 192.622 240.878Z" fill="#9E5A49"/>
<path d="M167.525 213.724C164.595 214.774 161.622 214.591 158.677 213.575C155.078 212.336 152.006 209.907 149.693 206.883L147.384 203.862C144.704 201.208 127.91 178.167 127.91 178.167L136.854 163.708L157.029 187.249L162.807 171.25L179.918 183.236L175.273 202.436C174.14 207.494 172.344 211.999 167.525 213.724Z" fill="#9E5A49"/>
<path d="M126.41 142.255C126.41 142.255 131.224 149.38 132.455 151.764C133.452 153.693 137.186 159.867 136.976 166.381L127.91 178.167C127.91 178.167 123.558 174.842 122.863 173.591C122.168 172.339 122.808 170.55 122.808 170.55C122.808 170.55 121.472 169.419 120.777 169.142C120.777 169.142 121.194 171.366 119.527 171.783C117.858 172.2 112.296 166.361 112.296 166.361C112.296 166.361 111.88 163.859 113.409 163.72C113.409 163.72 112.296 160.244 113.409 159.271C113.409 159.271 112.157 156.491 113.687 155.239C113.687 155.239 114.382 152.041 115.494 150.929C116.607 149.817 127.91 153.154 127.91 153.154C127.91 153.154 125.232 147.203 124.955 145.535C124.677 143.867 126.41 142.255 126.41 142.255Z" fill="#9E5A49"/>
<path d="M119.452 164.216C119.477 164.192 119.636 164.308 119.905 164.536C120.167 164.755 120.589 165.12 120.889 165.702C121.034 165.971 121.236 166.309 121.273 166.729C121.317 167.134 121.255 167.571 121.068 167.992C120.909 168.432 120.411 168.823 119.901 168.878C119.388 168.969 118.835 168.809 118.403 168.537C117.538 167.963 116.955 167.288 116.325 166.735C115.76 166.196 115.228 165.686 114.727 165.208C113.826 164.328 113.293 163.758 113.339 163.708C113.384 163.658 114.001 164.136 114.962 164.951C115.484 165.405 116.04 165.888 116.629 166.401C117.262 166.926 117.915 167.63 118.657 168.116C119.379 168.61 120.394 168.484 120.659 167.8C120.82 167.465 120.888 167.096 120.867 166.764C120.858 166.435 120.711 166.153 120.58 165.861C120.337 165.297 120.002 164.944 119.77 164.671C119.541 164.402 119.428 164.239 119.452 164.216Z" fill="#864338"/>
<path d="M118.841 154.24C118.887 154.19 119.679 154.869 120.925 156.009C121.231 156.299 121.589 156.595 121.928 156.958C122.267 157.32 122.653 157.724 122.895 158.294C123.156 158.875 123.042 159.625 122.667 160.169C122.312 160.725 121.638 161.187 120.87 161.119C120.113 161.04 119.571 160.567 119.119 160.17C118.675 159.764 118.245 159.372 117.83 158.992C117.048 158.262 116.323 157.587 115.67 156.977C114.45 155.82 113.717 155.078 113.763 155.028C113.808 154.977 114.623 155.627 115.903 156.719C116.577 157.304 117.324 157.954 118.133 158.655C118.553 159.027 118.988 159.413 119.439 159.809C119.879 160.196 120.366 160.581 120.915 160.629C122.023 160.723 122.885 159.326 122.474 158.461C122.067 157.537 121.234 156.849 120.675 156.251C119.501 155.057 118.795 154.29 118.841 154.24Z" fill="#864338"/>
<path d="M120.712 161.123C120.713 161.099 120.937 161.071 121.29 161.239C121.63 161.401 122.111 161.796 122.3 162.498C122.52 163.193 122.16 164.194 121.294 164.65C120.878 164.886 120.312 164.973 119.806 164.816C119.298 164.672 118.866 164.368 118.467 164.056C116.889 162.809 115.592 161.528 114.715 160.55C113.837 159.571 113.367 158.905 113.416 158.864C113.527 158.765 115.652 161.214 118.771 163.669C119.154 163.971 119.539 164.236 119.94 164.354C120.339 164.48 120.738 164.424 121.082 164.251C121.781 163.898 122.098 163.148 121.962 162.575C121.846 161.987 121.472 161.595 121.193 161.405C120.907 161.204 120.703 161.164 120.712 161.123Z" fill="#864338"/>
<path d="M122.573 172.427C122.547 172.424 122.545 172.271 122.563 171.985C122.582 171.701 122.644 171.282 122.818 170.778C123.14 169.787 124.004 168.365 125.732 167.659L125.795 168.107H125.768H125.767L125.782 167.647H125.784H125.788H125.795L125.809 167.648H125.836H125.837L125.822 168.109H125.821H125.819H125.816L125.809 168.108H125.795L125.667 168.105L125.602 167.991C125.101 167.127 124.691 166.095 124.473 164.974C123.964 162.42 124.489 160.031 125.205 158.521C125.547 157.75 125.939 157.189 126.22 156.816C126.522 156.456 126.699 156.27 126.725 156.292C126.806 156.349 126.117 157.133 125.525 158.657C124.912 160.153 124.47 162.442 124.955 164.878C125.163 165.947 125.543 166.931 126.003 167.763L125.811 167.647L125.824 167.648H125.832H125.835H125.837L125.821 168.109L125.793 168.107H125.779H125.773H125.769H125.767L125.782 167.647H125.783L125.81 167.648L126.908 167.697L125.873 168.095C124.346 168.683 123.448 169.965 123.08 170.879C122.698 171.819 122.645 172.437 122.573 172.427Z" fill="#864338"/>
<path d="M159.249 196.92C159.131 196.968 158.221 194.852 157.637 192.087C157.044 189.32 157.013 187.019 157.141 187.014C157.284 187.003 157.532 189.259 158.119 191.984C158.693 194.711 159.385 196.871 159.249 196.92Z" fill="#864338"/>
<path d="M192.622 240.878C192.347 241.704 189.87 262.626 189.87 262.626C189.87 262.626 172.046 306.595 169.497 319.887C166.957 333.141 168.671 346.866 182.987 350.72C197.302 354.575 209.009 343.641 209.009 343.641C209.009 343.641 214.062 350.719 227.64 349.059C241.397 347.375 289.802 317.685 289.802 317.685L281.543 296.291L243.828 310.527C243.828 310.527 262.795 273.154 263.649 263.451C264.308 255.967 253.258 231.928 244.928 227.113C244.928 227.113 221.253 245.163 213.269 243.846C205.286 242.53 192.622 240.878 192.622 240.878Z" fill="#1D2A30"/>
<path d="M219.701 262.653C219.71 262.654 219.708 262.732 219.698 262.885C219.681 263.065 219.661 263.287 219.638 263.56C219.591 264.155 219.471 265.026 219.3 266.147C218.944 268.384 218.223 271.596 216.972 275.451C215.736 279.313 213.922 283.79 211.8 288.699C209.67 293.602 207.397 299.024 205.535 304.896C204.596 307.83 203.818 310.736 203.209 313.573C202.602 316.411 202.129 319.176 201.986 321.831C201.658 327.144 202.539 331.961 204.085 335.671C205.635 339.388 207.65 342.02 209.174 343.669C209.947 344.49 210.562 345.113 211.009 345.506C211.206 345.695 211.367 345.848 211.498 345.974C211.607 346.081 211.661 346.14 211.655 346.147C211.65 346.152 211.586 346.108 211.466 346.012C211.326 345.896 211.155 345.754 210.943 345.58C210.473 345.21 209.834 344.606 209.034 343.799C207.459 342.18 205.376 339.554 203.764 335.804C202.157 332.065 201.227 327.181 201.534 321.805C201.667 319.115 202.134 316.326 202.738 313.472C203.344 310.617 204.123 307.693 205.067 304.747C206.937 298.849 209.231 293.412 211.385 288.52C213.528 283.622 215.369 279.174 216.642 275.343C217.929 271.516 218.699 268.333 219.111 266.114C219.31 265.002 219.461 264.138 219.54 263.548C219.583 263.279 219.619 263.058 219.648 262.879C219.675 262.729 219.694 262.652 219.701 262.653Z" fill="#365462"/>
<path d="M281.543 296.291C281.548 296.307 281.38 296.385 281.053 296.517C280.673 296.665 280.198 296.849 279.616 297.075C278.298 297.563 276.497 298.229 274.301 299.041C269.817 300.705 263.604 302.96 256.818 305.639C250.038 308.318 243.926 310.889 239.885 313.414C239.402 313.753 238.939 314.077 238.499 314.384C238.105 314.737 237.691 315.035 237.373 315.376C236.715 316.043 236.251 316.708 235.938 317.295C235.641 317.843 235.399 318.291 235.205 318.648C235.031 318.956 234.932 319.112 234.918 319.104C234.903 319.095 234.972 318.923 235.117 318.603C235.272 318.288 235.463 317.804 235.769 317.204C236.059 316.598 236.516 315.891 237.176 315.186C237.494 314.823 237.906 314.512 238.305 314.139C238.735 313.808 239.207 313.479 239.694 313.123C243.74 310.491 249.847 307.866 256.638 305.181C263.434 302.498 269.667 300.293 274.184 298.714C276.402 297.963 278.221 297.346 279.553 296.895C280.148 296.704 280.633 296.548 281.02 296.423C281.358 296.321 281.537 296.275 281.543 296.291Z" fill="#365462"/>
<path d="M263.649 263.451C263.666 263.453 263.653 263.636 263.612 263.98C263.559 264.38 263.492 264.88 263.411 265.49C263.15 266.784 262.698 268.651 261.944 270.888C260.474 275.378 258.005 281.42 255.008 287.961C252.01 294.506 249.105 300.338 246.951 304.532C245.874 306.628 244.981 308.315 244.352 309.473C244.053 310.009 243.809 310.448 243.613 310.799C243.439 311.1 243.339 311.254 243.325 311.246C243.31 311.237 243.379 311.068 243.526 310.754C243.699 310.391 243.917 309.939 244.182 309.385C244.793 308.14 245.625 306.444 246.641 304.376C248.715 300.144 251.566 294.293 254.56 287.756C257.553 281.224 260.067 275.218 261.614 270.777C262.409 268.562 262.906 266.726 263.224 265.453C263.341 264.852 263.437 264.361 263.513 263.969C263.586 263.629 263.631 263.451 263.649 263.451Z" fill="#365462"/>
<path d="M216.779 264.852C216.645 264.876 215.709 260.175 214.686 254.354C213.664 248.531 212.944 243.794 213.078 243.77C213.211 243.746 214.148 248.446 215.17 254.269C216.193 260.09 216.912 264.829 216.779 264.852Z" fill="#365462"/>
<path d="M254.048 240.724C254.067 240.746 253.836 240.995 253.357 241.382C252.88 241.771 252.132 242.27 251.129 242.736C249.156 243.676 245.964 244.351 242.66 243.407C239.36 242.447 237.016 240.176 235.846 238.33C235.246 237.402 234.879 236.581 234.681 235.999C234.483 235.416 234.419 235.082 234.446 235.074C234.541 235.036 234.887 236.371 236.134 238.135C237.345 239.882 239.638 242.017 242.796 242.935C245.957 243.839 249.034 243.252 250.99 242.417C252.984 241.588 253.989 240.642 254.048 240.724Z" fill="#365462"/>
<path d="M205.533 243.634C205.563 243.635 205.585 243.959 205.56 244.543C205.536 245.127 205.442 245.973 205.22 246.998C204.785 249.04 203.697 251.827 201.623 254.303C199.549 256.781 196.995 258.34 195.061 259.126C194.091 259.526 193.274 259.765 192.704 259.892C192.133 260.018 191.811 260.054 191.805 260.024C191.782 259.938 193.051 259.673 194.922 258.807C196.783 257.956 199.231 256.394 201.247 253.988C203.26 251.583 204.369 248.898 204.881 246.916C205.406 244.922 205.443 243.626 205.533 243.634Z" fill="#365462"/>
<path d="M218.69 245C218.724 245.078 218.007 245.132 217.51 245.952C217.275 246.344 217.162 246.922 217.437 247.447C217.691 247.965 218.299 248.415 218.958 248.388C219.618 248.354 220.183 247.851 220.388 247.312C220.614 246.764 220.448 246.199 220.178 245.83C219.609 245.058 218.89 245.071 218.916 244.99C218.915 244.962 219.078 244.915 219.374 244.966C219.665 245.017 220.093 245.196 220.451 245.616C220.809 246.013 221.081 246.741 220.813 247.468C220.571 248.167 219.887 248.824 218.981 248.878C218.074 248.907 217.333 248.315 217.027 247.641C216.695 246.943 216.9 246.191 217.219 245.764C217.538 245.313 217.947 245.095 218.232 245.019C218.522 244.94 218.689 244.973 218.69 245Z" fill="#365462"/>
<path d="M202.998 140.124L183.653 140.734C183.653 140.734 177.406 165.904 177.88 182.612C178.17 192.842 184.503 207.314 186.033 212.64C187.099 216.351 183.311 221.401 182.246 225.113L182.199 225.272C180.624 230.63 173.253 249.142 191.532 249.142C191.532 249.142 182.022 243.9 186.814 234.592C191.431 225.621 200.355 221.725 207.918 226.137C215.482 230.549 218.003 228.658 224.935 225.822C231.869 222.986 256.45 215.737 253.298 228.344C253.298 228.344 257.08 221.094 249.517 215.737C243.771 211.668 238.937 200.546 238.741 189.219C238.637 183.222 241.181 176.78 245.931 173.119L254.244 166.967C254.244 166.967 245.6 167.476 248.121 154.24C250.643 141.005 252.415 138.376 252.415 138.376L235.963 143.805C235.39 143.952 234.796 144.011 234.205 143.978L225.867 143.525L202.998 140.124Z" fill="#00C04D"/>
<path d="M161.097 172.573C161.097 172.573 170.094 149.564 173.837 145.81C177.232 142.404 183.653 140.734 183.653 140.734L178.556 184.057L161.097 172.573Z" fill="#00C04D"/>
<path d="M184.36 208.247C184.343 208.253 184.272 208.102 184.151 207.808C184.015 207.46 183.847 207.034 183.643 206.516C183.226 205.385 182.566 203.768 181.895 201.717C180.493 197.647 178.632 191.947 177.676 185.402C177.221 182.129 177.156 178.956 177.439 176.104C177.716 173.252 178.24 170.73 178.64 168.615C179.051 166.501 179.37 164.789 179.563 163.601C179.659 163.054 179.738 162.602 179.802 162.234C179.861 161.923 179.901 161.76 179.918 161.762C179.935 161.764 179.928 161.93 179.899 162.248C179.859 162.619 179.812 163.075 179.753 163.628C179.618 164.827 179.349 166.554 178.983 168.677C178.625 170.802 178.139 173.322 177.891 176.146C177.635 178.967 177.712 182.093 178.163 185.335C179.11 191.819 180.91 197.518 182.225 201.609C182.851 203.667 183.462 205.301 183.823 206.451C183.991 206.982 184.131 207.419 184.244 207.774C184.336 208.078 184.376 208.241 184.36 208.247Z" fill="#1D2A30"/>
<path d="M235.602 195.406C235.569 195.412 235.483 195.007 235.355 194.271C235.219 193.536 235.09 192.459 234.994 191.124C234.795 188.456 234.859 184.726 235.602 180.697C236.355 176.67 237.634 173.164 238.777 170.746C239.347 169.535 239.853 168.577 240.245 167.938C240.628 167.297 240.854 166.95 240.884 166.967C240.96 167.011 240.146 168.447 239.094 170.887C238.042 173.324 236.83 176.804 236.085 180.787C235.351 184.77 235.232 188.454 235.341 191.106C235.445 193.76 235.69 195.394 235.602 195.406Z" fill="#1D2A30"/>
<path d="M235.334 190.955L235.269 190.797C234.819 187.449 235.199 184.045 235.769 180.714C236.244 177.934 236.866 175.13 238.221 172.655C238.365 172.39 238.52 172.129 238.684 171.874C237.739 174.223 236.734 177.314 236.085 180.787C235.365 184.696 235.237 188.315 235.334 190.955Z" fill="#161C1E"/>
<path d="M253.534 222.346C253.527 222.351 253.474 222.301 253.375 222.197C253.259 222.068 253.12 221.914 252.948 221.727C252.574 221.316 251.994 220.731 251.188 220.052C249.573 218.727 246.913 217.023 243.2 216.313C241.359 215.946 239.269 215.891 237.101 216.277C234.932 216.689 232.706 217.534 230.45 218.604C228.186 219.662 225.862 220.916 223.311 221.945C222.029 222.442 220.693 222.887 219.291 223.166C217.886 223.419 216.42 223.53 214.955 223.396C212.022 223.117 209.322 222.169 206.675 221.604C204.034 220.995 201.395 220.93 198.947 221.358C196.501 221.773 194.265 222.631 192.356 223.732C190.449 224.847 188.865 226.201 187.637 227.622C185.151 230.467 183.994 233.39 183.43 235.405C183.141 236.421 183 237.231 182.907 237.781C182.869 238.032 182.837 238.237 182.811 238.408C182.787 238.548 182.77 238.622 182.762 238.621C182.762 238.621 182.727 237.429 183.244 235.357C183.758 233.306 184.878 230.321 187.374 227.395C188.608 225.934 190.211 224.534 192.149 223.381C194.092 222.24 196.37 221.349 198.871 220.911C201.366 220.46 204.092 220.519 206.776 221.133C209.462 221.703 212.149 222.638 215 222.907C216.421 223.036 217.83 222.93 219.197 222.687C220.562 222.416 221.87 221.984 223.133 221.496C225.65 220.49 227.975 219.247 230.258 218.193C232.535 217.127 234.806 216.28 237.03 215.875C239.256 215.498 241.394 215.576 243.266 215.972C247.045 216.74 249.717 218.522 251.312 219.906C252.905 221.332 253.534 222.346 253.534 222.346Z" fill="#1D2A30"/>
<path d="M228.612 183.236C228.628 183.236 228.64 183.393 228.649 183.694C228.649 183.996 228.675 184.441 228.641 185.012C228.608 186.156 228.455 187.814 228.047 189.824C227.261 193.826 225.177 199.307 221.066 204.092C216.952 208.879 211.846 211.762 208.008 213.141C206.082 213.846 204.467 214.247 203.34 214.451C202.781 214.571 202.336 214.611 202.039 214.657C201.74 214.695 201.582 214.706 201.579 214.689C201.573 214.648 202.194 214.527 203.299 214.264C204.406 214.004 205.994 213.556 207.884 212.817C211.651 211.368 216.645 208.481 220.692 203.772C224.738 199.063 226.843 193.692 227.709 189.751C228.154 187.77 228.359 186.135 228.451 185C228.544 183.867 228.57 183.236 228.612 183.236Z" fill="#1D2A30"/>
<path d="M205.356 213.604C205.218 212.143 206.184 210.771 207.389 209.933C208.593 209.095 210.024 208.666 211.38 208.105C216.429 206.02 220.616 201.928 222.818 196.929C223.245 195.959 223.61 194.941 224.275 194.116C224.852 193.398 225.726 192.842 226.629 192.842C226.701 192.842 226.774 192.846 226.846 192.853C225.704 196.267 223.754 200.209 220.692 203.772C216.645 208.481 211.651 211.368 207.884 212.817C207.445 212.989 207.022 213.145 206.617 213.286C205.824 213.514 205.356 213.604 205.356 213.604Z" fill="#00A843"/>
<path d="M206.617 213.286C207.022 213.145 207.445 212.989 207.884 212.817C211.651 211.368 216.645 208.481 220.692 203.771C223.754 200.209 225.704 196.267 226.846 192.853C226.908 192.859 226.97 192.868 227.033 192.881C227.033 192.881 226.294 197.258 220.32 204.56C215.71 210.195 209.3 212.52 206.617 213.286Z" fill="#161C1E"/>
<path d="M193.169 156.29C192.551 155.421 191.962 154.423 190.965 154.043C189.207 153.372 187.385 154.991 185.502 155.002C183.278 155.016 181.739 152.904 179.956 151.573C177.629 149.837 174.568 149.339 171.694 148.919L170.721 150.699C173.257 152.384 177.189 150.04 179.75 151.687C180.906 152.432 181.469 153.791 182.108 155.008C182.749 156.224 183.699 157.479 185.064 157.641C186.375 157.797 187.566 156.885 188.869 156.672C192.951 156.004 195.844 162.06 199.924 161.382C197.224 160.429 194.83 158.625 193.169 156.29Z" fill="#FCFDFD"/>
<path d="M177.351 179.839C178.601 178.204 180.893 177.7 182.937 177.937C184.982 178.174 186.898 179.019 188.873 179.603C190.846 180.189 193.028 180.503 194.922 179.699C195.843 179.309 196.663 178.666 197.638 178.447C198.976 178.145 200.34 178.689 201.649 179.103C204.4 179.976 207.322 180.308 210.199 180.073C211.308 179.983 212.419 179.809 213.528 179.895C214.638 179.98 215.778 180.36 216.513 181.196C217.895 180.391 219.431 179.851 221.014 179.615C219.202 180.885 217.29 182.194 215.093 182.456C212.563 182.757 210.112 181.624 207.619 181.099C200.84 179.669 193.725 182.75 186.935 181.378C185.354 181.058 183.812 180.499 182.201 180.405C180.591 180.309 178.819 180.786 177.899 182.111" fill="#FCFDFD"/>
<path d="M182.075 199.176C184.766 199.758 187.165 197.494 189.804 196.713C192.132 196.026 194.637 196.518 196.97 197.19C199.302 197.861 201.631 198.715 204.058 198.743C205.551 198.762 207.08 198.468 208.519 198.873C209.646 199.193 210.61 199.914 211.67 200.411C215.116 202.028 219.159 201.158 222.859 200.259C220.182 201.889 216.958 202.438 213.826 202.349C210.692 202.261 207.611 201.574 204.553 200.892C202.078 200.338 199.603 199.785 197.129 199.232C195.263 198.816 193.334 198.396 191.454 198.746C188.273 199.339 185.557 202.069 182.336 201.757" fill="#FCFDFD"/>
<path d="M210.591 212.213C212.558 212.405 214.53 212.548 216.505 212.64C218.097 212.715 219.715 212.754 221.265 212.376C223.848 211.745 226.123 209.98 228.776 209.798C231.502 209.61 234.069 211.134 236.796 211.323C239.312 211.494 241.883 210.448 243.561 208.565C239.62 209.728 235.372 209.831 231.38 208.86C229.527 208.409 227.62 207.726 225.759 208.153C224.263 208.497 223.028 209.512 221.675 210.235C218.353 212.013 214.398 211.999 210.63 211.943" fill="#FCFDFD"/>
<path d="M226.5 178.059C226.693 175.902 234.305 173.99 237.437 171.247C237.152 173.452 235.481 175.414 233.349 176.049C232.179 176.397 230.934 176.367 229.723 176.525C228.511 176.683 227.242 177.089 226.5 178.059Z" fill="#FCFDFD"/>
<path d="M212.882 162.857C214.157 163.84 215.982 163.564 217.514 163.07C219.046 162.574 220.634 161.897 222.209 162.232C223.749 162.559 224.923 163.785 226.343 164.464C228.24 165.369 230.552 165.227 232.431 164.284C234.309 163.341 235.762 161.658 236.632 159.745C237.036 158.857 237.365 157.862 238.156 157.292C239.042 156.653 240.243 156.737 241.284 156.408C242.961 155.877 244.087 154.333 245.006 152.832C245.925 151.331 246.826 149.709 248.343 148.818C247.023 148.414 245.651 149.303 244.729 150.33C243.807 151.358 243.057 152.603 241.854 153.279C240.651 153.956 239.168 153.962 237.946 154.605C235.778 155.746 235.073 158.461 233.575 160.4C231.878 162.6 228.662 163.783 226.193 162.507C224.863 161.819 223.763 160.483 222.266 160.463C221.294 160.45 220.425 161.011 219.56 161.452C217.523 162.488 215.186 162.931 212.911 162.71C213.082 162.745 213.252 162.779 213.424 162.814" fill="#FCFDFD"/>
<path d="M179.424 238.16C179.248 236.896 179.788 235.636 180.487 234.571C181.189 233.504 182.06 232.549 182.675 231.431C183.538 229.863 183.854 228.06 184.487 226.388C185.119 224.713 186.221 223.045 187.929 222.514C189.087 222.153 190.35 222.372 191.538 222.123C193.539 221.704 195.101 220.016 197.11 219.635C198.746 219.324 200.423 219.932 202.087 219.85C203.589 219.777 205.054 219.117 206.104 218.043C204.795 218.829 203.144 218.695 201.643 218.421C200.14 218.146 198.595 217.757 197.11 218.109C196.139 218.339 195.264 218.875 194.3 219.132C192.49 219.617 190.53 219.086 188.711 219.534C186.05 220.189 184.32 222.748 183.244 225.268C182.169 227.789 182.04 229.775 180.235 231.838C180.235 231.838 178.86 237.235 179.424 238.16Z" fill="#FCFDFD"/>
<path d="M195.446 143.389C194.692 143.069 193.917 142.776 193.25 142.302C192.582 141.827 192.047 141.283 191.93 140.473L189.068 140.563C189.984 142.754 192.271 144.725 194.632 144.959C195.308 145.026 196.008 144.992 196.646 145.226C197.374 145.493 197.936 146.081 198.619 146.451C199.3 146.82 200.28 146.9 200.742 146.277C199.078 145.144 197.301 144.175 195.446 143.389Z" fill="#FCFDFD"/>
<path d="M177.352 165.966C176.249 165.469 174.976 165.628 173.784 165.836C172.594 166.044 171.354 166.289 170.196 165.941C169.2 165.643 168.385 164.939 167.523 164.356C166.661 163.774 165.848 163.249 164.83 163.464L164.278 164.768C164.29 165.329 164.795 165.044 165.333 165.199C165.871 165.355 166.48 165.444 166.844 165.869C167.149 166.226 167.198 166.73 167.407 167.15C167.834 168.009 168.888 168.403 169.846 168.34C170.803 168.276 171.692 167.849 172.558 167.438C173.425 167.029 174.329 166.621 175.288 166.603C176.738 166.576 178.153 167.554 178.641 168.919C179.23 167.864 178.453 166.463 177.352 165.966Z" fill="#FCFDFD"/>
<path d="M239.462 140.062C240.568 141.616 242.764 142.023 244.635 141.648C246.505 141.272 248.179 140.275 249.925 139.504C251.67 138.733 253.648 138.178 255.471 138.74C257.719 139.434 259.163 141.63 261.241 142.733C264.09 144.245 268.016 143.233 269.778 140.533C270.71 139.107 271.045 137.388 271.598 135.776C272.15 134.166 273.048 132.522 274.602 131.826C276.415 131.015 278.573 131.722 280.488 131.194C283.148 130.458 284.619 127.549 285.003 124.816C285.706 119.831 288.5 109.838 269.011 108.514" fill="#1D2A30"/>
<path d="M232.674 101.154C233.963 90.8613 226.517 81.4552 216.067 80.4593C206.217 79.5211 197.463 86.8553 195.985 96.6399C194.691 105.216 193.579 113.875 193.62 117.019C193.741 126.502 199.287 130.193 201.537 131.301C202.05 131.554 203.466 131.841 204.032 131.923L204.085 131.996L201.979 142.881C201.024 150.013 205.006 156.375 212.126 157.412C219.27 158.453 224.854 152.976 225.945 145.839L232.674 101.154Z" fill="#9E5A49"/>
<path d="M197.62 102.243C197.777 102.465 199.029 101.793 200.633 102.031C202.239 102.247 203.298 103.244 203.5 103.073C203.598 102.998 203.461 102.62 203.002 102.171C202.551 101.726 201.743 101.239 200.743 101.097C199.742 100.956 198.848 101.202 198.309 101.509C197.76 101.815 197.542 102.143 197.62 102.243Z" fill="#1D2A30"/>
<path d="M212.493 104.709C212.65 104.931 213.904 104.26 215.506 104.498C217.112 104.713 218.17 105.71 218.373 105.539C218.471 105.465 218.335 105.086 217.876 104.638C217.424 104.193 216.616 103.705 215.616 103.565C214.615 103.424 213.721 103.669 213.182 103.975C212.635 104.282 212.416 104.609 212.493 104.709Z" fill="#1D2A30"/>
<path d="M206.348 112.866C206.367 112.776 205.395 112.458 203.809 112.016C203.405 111.913 203.029 111.775 203 111.486C202.947 111.175 203.183 110.759 203.452 110.311C203.981 109.375 204.536 108.394 205.119 107.366C207.449 103.168 209.2 99.6915 209.031 99.5999C208.861 99.5074 206.834 102.836 204.502 107.033C203.938 108.07 203.398 109.058 202.883 110.004C202.661 110.447 202.316 110.936 202.436 111.582C202.502 111.904 202.771 112.17 203.023 112.279C203.274 112.398 203.504 112.435 203.705 112.477C205.32 112.802 206.328 112.956 206.348 112.866Z" fill="#1D2A30"/>
<path d="M204.097 131.932C204.097 131.932 210.22 133.344 218.652 129.815C218.652 129.815 215.013 137.65 203.53 134.865L204.097 131.932Z" fill="#864338"/>
<path d="M206.462 116.834C207.151 116.155 208.223 115.883 209.211 116.138C209.898 116.314 210.552 116.752 210.892 117.382C211.233 118.01 211.204 118.829 210.74 119.313C210.219 119.859 209.293 119.868 208.559 119.538C207.824 119.209 207.239 118.609 206.685 118.015C206.533 117.851 206.377 117.68 206.297 117.473C206.216 117.267 206.23 117.015 206.386 116.877" fill="#864338"/>
<path d="M210.91 114.665C210.651 114.612 210.393 116.354 208.722 117.373C207.052 118.396 205.223 117.93 205.174 118.173C205.134 118.277 205.539 118.571 206.319 118.707C207.084 118.845 208.243 118.762 209.266 118.138C210.287 117.512 210.825 116.557 210.989 115.851C211.162 115.132 211.03 114.672 210.91 114.665Z" fill="#1D2A30"/>
<path d="M213.596 98.8958C213.689 99.3555 215.323 99.3819 217.173 99.8841C219.033 100.349 220.471 101.121 220.778 100.766C220.917 100.595 220.712 100.146 220.16 99.633C219.613 99.1223 218.7 98.5805 217.588 98.2898C216.475 98.001 215.414 98.0302 214.687 98.2086C213.956 98.387 213.558 98.6787 213.596 98.8958Z" fill="#1D2A30"/>
<path d="M199.242 96.0186C199.471 96.4245 200.631 96.2074 201.964 96.383C203.303 96.5123 204.384 96.9861 204.699 96.6425C204.839 96.4736 204.715 96.0828 204.274 95.6656C203.84 95.2512 203.069 94.8519 202.152 94.7462C201.234 94.6424 200.393 94.8576 199.877 95.1634C199.352 95.4693 199.143 95.8223 199.242 96.0186Z" fill="#1D2A30"/>
<path d="M245.676 127.158C246.269 125.801 246.789 124.544 247.057 123.728C248.114 120.519 248.123 115.425 246.599 112.409C245.182 109.604 241.594 106.815 240.557 104.095C238.961 99.9076 240.141 98.8193 238.917 90.0843C238.223 85.1325 231.614 78.2617 224.682 79.3312C222.501 76.8024 219.415 75.497 216.357 74.9325C208.86 73.5469 200.695 76.4532 196.208 83.2324C194.138 86.3605 192.897 90.5723 194.124 94.3196C196.087 97.3137 202.315 95.4636 206.077 93.4069C210.037 96.0328 215.542 94.8926 218.286 90.879C219.072 91.8787 220.152 92.3884 221.285 92.4884C221.405 93.5975 221.544 94.5282 221.627 95.1238C222.003 97.8546 226.109 101.809 226.156 104.565C226.243 109.755 222.254 110.014 221.153 115.088C220.323 118.909 223.222 121.147 223.771 125.019C223.856 125.61 216.907 138.255 225.867 143.525C225.867 143.525 226.101 143.719 226.456 144.076C229.63 147.268 229.972 152.253 227.467 155.993C225.122 159.494 222.605 165.263 228.612 168.375C228.612 168.375 230.351 162.836 232.819 161.761C239.075 159.038 245.472 158.515 242.896 144.958C240.318 131.4 243.751 132.963 245.676 127.158Z" fill="#1D2A30"/>
<path d="M117.75 183.719C118.286 184.137 118.801 184.542 119.284 184.928L119.38 184.827C119.22 184.72 119.056 184.61 118.882 184.492C118.533 184.256 118.152 183.995 117.75 183.719Z" fill="#F03658"/>
<path d="M125.919 160.312L125.922 160.282C125.265 160.234 124.561 160.181 123.817 160.127C124.518 160.197 125.218 160.257 125.919 160.312Z" fill="#F03658"/>
<path d="M123.532 174.25L123.53 174.125C123.24 174.006 122.948 173.876 122.658 173.751C122.973 173.929 123.264 174.096 123.532 174.25Z" fill="#100F0D"/>
</svg>
