<svg width="23" height="33" viewBox="0 0 23 33" fill="none" xmlns="http://www.w3.org/2000/svg">
<line x1="5.4809" y1="6.57053" x2="17.3854" y2="6.57053" stroke="#DADADA" stroke-width="2"/>
<path d="M16.8853 7.57053L16.8853 2.87392" stroke="#DADADA" stroke-width="2"/>
<path d="M5.5 7.57053L5.5 3.22656" stroke="#DADADA" stroke-width="2"/>
<line x1="17.3854" y1="3.29028" x2="13.2389" y2="3.29028" stroke="#DADADA" stroke-width="2"/>
<line x1="9.14648" y1="3.29028" x2="4.99999" y2="3.29028" stroke="#DADADA" stroke-width="2"/>
<path d="M8.5 3C9.30357 0.505396 12.8281 0.455177 14 3" stroke="#DADADA" stroke-width="2"/>
<path d="M17.3854 4.56097H19C20.6569 4.56097 22 5.90412 22 7.56097V28.1119C22 29.7688 20.6569 31.1119 19 31.1119H4C2.34315 31.1119 1 29.7688 1 28.1119C1 20.6175 1 12.1228 1 7.56083C1 5.90397 2.34315 4.56097 4 4.56097H5.48089" stroke="#DADADA" stroke-width="2"/>
<path d="M3.94269 18.4718H7.739C7.83065 18.4718 7.91444 18.5236 7.95543 18.6056V18.6056L9.90908 22.9687C9.92123 22.9959 9.9618 22.9872 9.9618 22.9575V22.9575C9.9618 22.9543 9.96234 22.9512 9.96339 22.9482L13.0964 14.149C13.1021 14.133 13.1114 14.1184 13.1234 14.1064V14.1064C13.1796 14.0502 13.2745 14.0668 13.3083 14.1387L15.3002 18.3795C15.3081 18.3963 15.3188 18.4117 15.332 18.4248V18.4248C15.3621 18.4549 15.4029 18.4718 15.4455 18.4718H17.0175H18.6561" stroke="#DADADA" stroke-width="2"/>
</svg>
